<?xml version="1.0" encoding="UTF-8" standalone="no"?>
<!-- Created with Inkscape (http://www.inkscape.org/) -->

<svg
   xmlns:dc="http://purl.org/dc/elements/1.1/"
   xmlns:cc="http://creativecommons.org/ns#"
   xmlns:rdf="http://www.w3.org/1999/02/22-rdf-syntax-ns#"
   xmlns:svg="http://www.w3.org/2000/svg"
   xmlns="http://www.w3.org/2000/svg"
   xmlns:sodipodi="http://sodipodi.sourceforge.net/DTD/sodipodi-0.dtd"
   xmlns:inkscape="http://www.inkscape.org/namespaces/inkscape"
   width="210mm"
   height="297mm"
   viewBox="0 0 210 297"
   version="1.1"
   id="svg8"
   inkscape:version="0.92.4 (5da689c313, 2019-01-14)"
   sodipodi:docname="cv.svg">
  <defs
     id="defs2" />
  <sodipodi:namedview
     id="base"
     pagecolor="#ffffff"
     bordercolor="#666666"
     borderopacity="1.0"
     inkscape:pageopacity="0.0"
     inkscape:pageshadow="2"
     inkscape:zoom="0.35"
     inkscape:cx="400"
     inkscape:cy="560"
     inkscape:document-units="mm"
     inkscape:current-layer="layer1"
     showgrid="false"
     inkscape:window-width="1440"
     inkscape:window-height="838"
     inkscape:window-x="-8"
     inkscape:window-y="-8"
     inkscape:window-maximized="1" />
  <metadata
     id="metadata5">
    <rdf:RDF>
      <cc:Work
         rdf:about="">
        <dc:format>image/svg+xml</dc:format>
        <dc:type
           rdf:resource="http://purl.org/dc/dcmitype/StillImage" />
        <dc:title></dc:title>
      </cc:Work>
    </rdf:RDF>
  </metadata>
  <g
     inkscape:label="Capa 1"
     inkscape:groupmode="layer"
     id="layer1">
    <path
       style="fill:#000000;stroke-width:0.26458332"
       d="m 70.776048,161.89241 c 0,-6.69396 0.0893,-12.16705 0.198437,-12.16242 0.347735,0.0147 1.224038,0.77397 1.070517,0.92749 -0.08119,0.0812 -0.34289,-0.0476 -0.581547,-0.2863 -0.402175,-0.40217 -0.425047,-0.36236 -0.312614,0.54414 0.124019,0.9999 0.277678,1.29452 0.705589,1.35287 0.133394,0.0182 0.361597,0.0479 0.507118,0.0661 0.145521,0.0182 0.264583,0.15917 0.264583,0.31328 0,0.15796 -0.144279,0.19006 -0.330729,0.0736 -0.535677,-0.33465 -1.030106,-0.33564 -0.920615,-0.002 0.05584,0.17023 0.419768,0.34719 0.808728,0.39323 0.38896,0.0461 0.7072,0.17838 0.7072,0.29405 0,0.11568 -0.297657,0.15342 -0.661459,0.0839 -0.386119,-0.0738 -0.661458,-0.003 -0.661458,0.16898 0,0.16248 0.357187,0.29543 0.79375,0.29543 0.436562,0 0.79375,0.10255 0.79375,0.22789 0,0.12534 -0.297656,0.17099 -0.661458,0.10145 -0.38612,-0.0738 -0.661459,-0.003 -0.661459,0.16898 0,0.16248 0.20836,0.29725 0.463021,0.29948 0.395697,0.003 0.405315,0.0413 0.06615,0.26053 -0.288387,0.18637 -0.3022,0.25759 -0.05053,0.26053 0.190489,0.002 0.2794,0.11237 0.197579,0.24476 -0.318121,0.51473 0.195147,1.083 1.005739,1.11351 l 0.831588,0.0313 -0.79375,0.20197 c -0.436563,0.11109 -0.658151,0.21606 -0.492419,0.23328 0.165732,0.0172 0.284795,0.23856 0.264583,0.49186 -0.02628,0.3294 0.226968,0.50785 0.889294,0.62663 0.917766,0.16459 0.918949,0.16655 0.132292,0.2195 -0.692556,0.0466 -0.726287,0.0824 -0.264583,0.28082 0.291041,0.12506 0.376149,0.23576 0.189128,0.24598 -0.530656,0.029 0.128062,1.07605 0.680077,1.08098 0.358339,0.003 0.377626,0.0523 0.09175,0.23336 -0.293256,0.18578 -0.259776,0.33148 0.176389,0.76765 0.296092,0.29609 0.475311,0.60138 0.398265,0.67843 -0.07704,0.077 0.260299,0.39729 0.749653,0.71166 0.489355,0.31436 0.651611,0.49848 0.360569,0.40916 -0.522503,-0.16038 0.20895,0.57389 1.764619,1.7714 0.599516,0.46149 0.5946,0.46202 -0.177119,0.0191 -0.61251,-0.35153 -0.46354,-0.11254 0.65242,1.04669 1.731512,1.79865 2.020655,1.92808 0.960982,0.43017 -0.159767,-0.22583 -0.05236,-0.13257 0.238681,0.20726 0.291042,0.33983 0.857477,1.00086 1.258745,1.46895 0.495439,0.57795 0.67296,0.68126 0.553156,0.32191 -0.216009,-0.64791 0.136672,-0.36142 0.564246,0.45834 0.172121,0.33 0.452042,0.57023 0.622046,0.53385 0.170005,-0.0364 0.309099,0.0728 0.309099,0.24254 0,0.16977 0.06675,0.24193 0.148327,0.16035 0.08158,-0.0816 0.446093,0.14944 0.81003,0.51338 0.633579,0.63358 0.676881,0.64094 1.018836,0.17329 0.196423,-0.26862 0.293277,-0.59173 0.21523,-0.71801 -0.07805,-0.12628 -0.244259,-0.0681 -0.369361,0.12937 -0.17719,0.27964 -0.228354,0.25665 -0.23151,-0.10404 -0.0051,-0.58374 0.352383,-0.59378 0.823447,-0.0231 0.283096,0.34295 0.290236,0.46444 0.0324,0.55122 -0.181901,0.0612 -0.328906,0.30975 -0.326678,0.55228 0.0033,0.35765 0.04822,0.37122 0.237787,0.0718 0.187803,-0.29659 0.258968,-0.27059 0.362132,0.13229 0.08948,0.34946 0.148254,0.26086 0.193918,-0.29232 0.06544,-0.79276 0.06573,-0.7926 0.229129,0.13229 0.101419,0.57405 0.314464,0.92604 0.560483,0.92604 0.218281,0 0.484348,0.11907 0.591261,0.26459 0.106912,0.14552 0.196209,-0.0628 0.198437,-0.46302 0.0046,-0.83118 0.01051,-0.83388 0.917644,-0.42055 0.370649,0.16888 0.673908,0.48929 0.673908,0.71203 0,0.31758 -0.08988,0.29414 -0.416496,-0.10862 -0.229073,-0.28247 -0.346193,-0.37299 -0.260268,-0.20114 0.08593,0.17184 0.01683,0.3986 -0.153551,0.5039 -0.170379,0.1053 -0.239708,0.0781 -0.154066,-0.0605 0.08564,-0.13857 0.04633,-0.42486 -0.08736,-0.63619 -0.183583,-0.2902 -0.244066,-0.21309 -0.247125,0.31505 -0.004,0.68782 0.594291,1.1725 1.078158,0.87345 0.132389,-0.0818 0.240707,-0.0366 0.240707,0.10058 0,0.13713 0.250492,0.31484 0.556649,0.3949 0.473481,0.12382 0.53826,0.0494 0.433566,-0.49831 -0.0677,-0.35413 -0.02053,-0.64387 0.104808,-0.64387 0.125341,0 0.227893,0.35719 0.227893,0.79375 0,0.43656 0.132943,0.79375 0.295428,0.79375 0.172453,0 0.242793,-0.27534 0.168982,-0.66146 -0.06954,-0.3638 -0.0318,-0.66146 0.08387,-0.66146 0.115675,0 0.247993,0.31824 0.294039,0.7072 0.04605,0.38896 0.223002,0.75289 0.393236,0.80873 0.333794,0.10949 0.332805,-0.38494 -0.0019,-0.92061 -0.12911,-0.20667 -0.06481,-0.33073 0.171412,-0.33073 0.22081,0 0.364849,0.23781 0.346344,0.57183 -0.01742,0.31451 0.135203,0.62811 0.339171,0.69688 0.267388,0.0902 0.32966,-0.0325 0.223208,-0.43954 -0.08119,-0.31052 -0.03972,-0.56459 0.09218,-0.56459 0.215248,0 0.340003,0.36968 0.280606,0.83151 -0.01203,0.0935 0.211997,0.23121 0.497835,0.30596 0.587437,0.15362 0.673854,-0.0837 0.202205,-0.55539 -0.174625,-0.17462 -0.217516,-0.3175 -0.09531,-0.3175 0.245969,0 0.920327,0.81227 0.933566,1.12448 0.0046,0.10914 -5.46846,0.19844 -12.162419,0.19844 H 70.776048 Z m 26.016554,11.77395 c 0.140239,-0.43318 1.764693,-0.49122 1.764693,-0.0631 0,0.24715 -0.302707,0.36084 -0.925173,0.34749 -0.508848,-0.0109 -0.886632,-0.13891 -0.83952,-0.28444 z m 5.875058,0.11723 c 0.0695,-0.11238 -0.0233,-0.27507 -0.2061,-0.36153 -0.18281,-0.0865 0.29654,-0.10179 1.06522,-0.0341 0.85298,0.0752 1.33663,0.0245 1.24115,-0.12996 -0.086,-0.13922 0.0887,-0.25313 0.38834,-0.25313 0.69306,0 0.6909,0.16776 -0.007,0.54125 -0.64362,0.34445 -2.66747,0.53808 -2.48165,0.23743 z m 3.30639,0.0812 c 0.0129,-0.30463 0.68489,-1.12448 0.92166,-1.12448 0.11565,0 -0.0165,0.25832 -0.29375,0.57404 -0.47616,0.54228 -0.47723,0.56423 -0.0194,0.39687 0.26656,-0.0974 0.58715,-0.17716 0.71241,-0.17716 0.12527,0 0.1819,-0.23812 0.12585,-0.52916 -0.0613,-0.31802 0.0405,-0.52917 0.255,-0.52917 0.23121,0 0.30624,0.1938 0.21302,0.55025 -0.12445,0.4759 -0.0407,0.53847 0.62008,0.46302 0.61024,-0.0697 0.78083,-0.23365 0.8477,-0.81483 0.046,-0.40018 0.17836,-0.72761 0.29404,-0.72761 0.11568,0 0.15342,0.29766 0.0839,0.66146 -0.0738,0.38612 -0.003,0.66146 0.16898,0.66146 0.16249,0 0.29543,-0.36992 0.29543,-0.82206 0,-0.60557 0.10002,-0.78368 0.37978,-0.67632 0.20888,0.0802 0.43487,0.004 0.5022,-0.17013 0.0673,-0.17373 0.10968,-0.054 0.0941,0.26596 -0.0216,0.4441 -0.10918,0.51472 -0.36991,0.29833 -0.26081,-0.21645 -0.34158,-0.1507 -0.34158,0.27807 0,0.64085 0.33006,0.72287 0.84336,0.20958 0.19359,-0.1936 0.49975,-0.30274 0.68035,-0.24254 0.18107,0.0604 0.33019,-0.10813 0.33242,-0.37561 0.003,-0.40999 0.0437,-0.42364 0.26053,-0.0882 0.19679,0.3045 0.25648,0.21213 0.25648,-0.39687 0,-0.609 -0.0597,-0.70138 -0.25648,-0.39688 -0.14106,0.21828 -0.26209,0.27782 -0.26894,0.1323 -0.007,-0.14553 -0.18728,-0.0335 -0.40093,0.249 -0.30144,0.39855 -0.38846,0.42288 -0.38846,0.10862 0,-0.22274 0.30326,-0.54315 0.67391,-0.71203 0.90619,-0.41289 0.91061,-0.4109 0.93448,0.42055 0.0115,0.40018 0.0812,0.57804 0.15489,0.39523 0.0737,-0.18281 0.24289,-0.26508 0.37598,-0.18282 0.13309,0.0822 0.25608,-0.24443 0.27329,-0.72596 l 0.0313,-0.87551 0.20197,0.79375 0.20198,0.79375 0.0313,-0.85059 c 0.0195,-0.53075 0.2137,-0.9482 0.51637,-1.11019 0.36943,-0.19771 0.48508,-0.16567 0.48508,0.13437 0,0.21961 -0.15614,0.33406 -0.35278,0.2586 -0.23527,-0.0903 -0.35278,0.0822 -0.35278,0.51778 0,0.69304 0.45369,0.89312 0.68115,0.30038 0.0744,-0.19403 0.28141,-0.35278 0.4599,-0.35278 0.56056,0 2.57568,-1.47086 2.9921,-2.18398 0.277,-0.47436 0.35462,-0.52105 0.25465,-0.15318 -0.0979,0.36022 0.0868,0.24475 0.57847,-0.36166 0.80829,-0.99693 1.98947,-2.31281 1.4074,-1.56791 -0.77133,0.98711 -0.0785,0.68255 1.04011,-0.45722 0.63968,-0.65179 1.04302,-1.18508 0.89631,-1.18508 -0.14672,0 -0.38289,0.0893 -0.52482,0.19844 -0.14193,0.10914 -0.0382,0.0198 0.23047,-0.19844 1.83459,-1.4904 2.28597,-1.93019 2.17138,-2.1156 -0.0714,-0.11561 0.0555,-0.28137 0.28221,-0.36835 0.22667,-0.087 0.34573,-0.26557 0.26458,-0.39687 -0.0812,-0.13131 0.0379,-0.3099 0.26459,-0.39688 0.22667,-0.087 0.33802,-0.27805 0.24745,-0.4246 -0.0906,-0.14655 -0.0428,-0.26645 0.10621,-0.26645 0.14899,0 0.38579,-0.2147 0.52623,-0.47711 0.19693,-0.36797 0.12976,-0.55553 -0.29364,-0.81995 -0.47597,-0.29725 -0.52738,-0.28658 -0.38662,0.0802 0.10442,0.27212 0.0204,0.42307 -0.23554,0.42307 -0.31589,0 -0.33952,-0.10904 -0.11467,-0.52917 0.29635,-0.55374 0.79375,-0.71954 0.79375,-0.26458 0,0.14552 0.20836,0.26276 0.46302,0.26053 0.39569,-0.003 0.40531,-0.0413 0.0661,-0.26053 -0.3309,-0.21384 -0.30891,-0.26236 0.13229,-0.29184 0.35839,-0.0239 0.273,-0.10054 -0.26458,-0.23733 l -0.79375,-0.20197 0.87551,-0.0313 c 0.50996,-0.0182 0.80724,-0.14177 0.71199,-0.29588 -0.0899,-0.14552 -0.0304,-0.26459 0.13229,-0.26459 0.1627,0 0.22223,-0.11906 0.13229,-0.26458 -0.0899,-0.14552 -0.008,-0.27867 0.18283,-0.29589 0.19049,-0.0172 -0.0109,-0.12219 -0.44741,-0.23328 l -0.79375,-0.20197 0.92604,-0.0354 c 0.65362,-0.025 0.81635,-0.1048 0.55316,-0.2714 -0.20508,-0.12983 -0.55317,-0.16687 -0.77353,-0.0823 -0.29678,0.11388 -0.35445,0.0333 -0.22244,-0.3107 0.098,-0.25545 0.17823,-0.51425 0.17823,-0.57511 0,-0.0609 0.20135,-0.11065 0.44744,-0.11065 0.41252,0 0.41137,0.0264 -0.0147,0.33795 -0.41982,0.30698 -0.39764,0.34329 0.24207,0.39624 0.52974,0.0438 0.66657,-0.0399 0.5522,-0.33795 -0.0836,-0.21793 -0.0506,-0.39624 0.0734,-0.39624 0.12398,0 0.28769,-0.23812 0.3638,-0.52916 0.1048,-0.40076 0.008,-0.52917 -0.39841,-0.52917 -0.40854,0 -0.46906,0.0816 -0.2533,0.34159 0.21638,0.26072 0.14576,0.34829 -0.29833,0.36991 -0.32001,0.0156 -0.43969,-0.0268 -0.26596,-0.0941 0.17372,-0.0673 0.25028,-0.29332 0.17013,-0.5022 -0.10736,-0.27977 0.0708,-0.37978 0.67632,-0.37978 0.45213,0 0.82206,-0.13295 0.82206,-0.29543 0,-0.17245 -0.27534,-0.24279 -0.66146,-0.16898 -0.3638,0.0695 -0.66146,0.0318 -0.66146,-0.0839 0,-0.11567 0.31824,-0.24799 0.7072,-0.29404 0.38896,-0.046 0.75289,-0.223 0.80873,-0.39323 0.10949,-0.3338 -0.38494,-0.33281 -0.92062,0.002 -0.18645,0.11648 -0.33073,0.0844 -0.33073,-0.0736 0,-0.15411 0.11907,-0.29509 0.26459,-0.31328 0.14552,-0.0182 0.40349,-0.0479 0.57326,-0.0661 0.16977,-0.0182 0.36431,-0.19996 0.4323,-0.40393 0.089,-0.26714 -0.0343,-0.32956 -0.44097,-0.2232 -0.37034,0.0968 -0.56459,0.0248 -0.56459,-0.20927 0,-0.2145 0.21115,-0.31625 0.52916,-0.25501 0.29104,0.056 0.52917,-5.3e-4 0.52917,-0.12584 0,-0.12527 0.0797,-0.44585 0.17716,-0.71241 0.16735,-0.45786 0.14541,-0.45679 -0.39688,0.0194 -0.31572,0.27722 -0.57403,0.40941 -0.57403,0.29376 0,-0.23677 0.81985,-0.90874 1.12448,-0.92166 0.10914,-0.005 0.19844,5.46845 0.19844,12.16241 v 12.17083 h -12.17084 c -6.69396,0 -12.16704,-0.0893 -12.16242,-0.19844 z m -10.45946,-0.5953 c -0.08994,-0.14552 0.0221,-0.26458 0.248968,-0.26458 0.226869,0 0.41249,0.11906 0.41249,0.26458 0,0.14552 -0.112036,0.26458 -0.248968,0.26458 -0.136933,0 -0.322553,-0.11906 -0.41249,-0.26458 z m 13.07664,-0.0661 c -0.20003,-0.6536 -0.12893,-0.99218 0.20834,-0.99218 0.30953,0 0.33592,0.0843 0.11118,0.35507 -0.16208,0.19529 -0.21634,0.43341 -0.12059,0.52917 0.0957,0.0957 0.0947,0.17409 -0.002,0.17409 -0.097,0 -0.1855,-0.0298 -0.19664,-0.0661 z m -21.150484,-2.46944 c -0.0034,-0.42428 -0.04595,-0.44229 -0.260531,-0.11024 -0.219188,0.33917 -0.25707,0.32955 -0.260532,-0.0661 -0.0022,-0.25466 0.118748,-0.46302 0.268836,-0.46302 0.330278,0 0.652354,0.75045 0.421257,0.98155 -0.09074,0.0907 -0.166801,-0.0632 -0.16903,-0.34214 z m 25.954114,0 c 0.0127,-0.30823 0.0754,-0.37092 0.15985,-0.15985 0.0764,0.19099 0.067,0.4192 -0.0209,0.50712 -0.0879,0.0879 -0.15046,-0.0684 -0.13897,-0.34727 z m 2.39105,-1.18422 c -0.0169,-0.22688 0.66286,-0.8911 1.51054,-1.47604 1.27646,-0.88084 1.49375,-0.96294 1.26487,-0.47796 -0.15199,0.32207 -0.41317,0.53307 -0.58041,0.46889 -0.16723,-0.0642 -0.37924,0.15795 -0.47112,0.4936 -0.13891,0.50744 -0.21096,0.5434 -0.42759,0.2134 -0.24098,-0.36708 -0.38862,-0.18164 -0.28916,0.36319 0.0232,0.127 -0.13385,0.16336 -0.34896,0.0808 -0.23297,-0.0894 -0.43891,0.0312 -0.5093,0.29827 -0.096,0.36413 -0.12394,0.37086 -0.14887,0.0358 z m -31.427918,-0.63418 c 0,-0.21188 0.09922,-0.32391 0.220487,-0.24896 0.121267,0.0749 0.220486,0.2483 0.220486,0.38523 0,0.13693 -0.09922,0.24897 -0.220486,0.24897 -0.121268,0 -0.220487,-0.17336 -0.220487,-0.38524 z m -0.759645,-0.27622 c -0.112141,-0.29104 -0.261837,-0.64823 -0.332658,-0.79375 -0.07082,-0.14552 0.08042,-0.0679 0.33609,0.17245 0.255671,0.24037 0.405368,0.59756 0.332659,0.79375 -0.09316,0.25137 -0.192413,0.20044 -0.336091,-0.17245 z m -1.118015,-1.12721 c -0.308916,-0.65897 -0.301573,-0.68034 0.09686,-0.28191 0.237112,0.23711 0.387528,0.55797 0.334257,0.71303 -0.05327,0.15506 -0.247272,-0.0389 -0.431114,-0.43112 z m -1.058112,-0.37099 c -0.180082,-0.18008 -0.327422,-0.45692 -0.327422,-0.61518 0,-0.37314 -2.442513,-2.78141 -2.820962,-2.78141 -0.159085,0 -0.437464,-0.17859 -0.618621,-0.39688 -0.266056,-0.32057 -0.258295,-0.39687 0.04037,-0.39687 0.501598,0 4.281727,3.83475 4.154973,4.21501 -0.07354,0.22063 -0.189724,0.21394 -0.428339,-0.0247 z m 37.77259,0.003 c 0,-0.47286 3.73149,-4.19296 4.2058,-4.19296 0.28725,0 0.29262,0.0775 0.0275,0.39687 -0.18116,0.21829 -0.4681,0.39688 -0.63766,0.39688 -0.38784,0 -2.80192,2.43048 -2.80192,2.82096 0,0.15909 -0.1786,0.43747 -0.39688,0.61862 -0.32058,0.26606 -0.39687,0.2583 -0.39687,-0.0404 z m -33.954873,-0.13602 c -0.09701,-0.097 -0.176389,-0.35723 -0.176389,-0.57826 0,-0.22102 -0.239642,-0.65695 -0.532537,-0.96873 -0.524059,-0.55783 -0.532537,-0.8884 -0.532537,-20.76228 0,-17.65578 0.05033,-20.25105 0.400245,-20.6377 0.220135,-0.24324 0.398422,-0.73054 0.396194,-1.08289 -0.0032,-0.51072 -0.05606,-0.56014 -0.260532,-0.24375 -0.141064,0.21828 -0.258303,0.28913 -0.260531,0.15743 -0.0022,-0.13169 -0.218246,-0.0722 -0.48004,0.1323 -0.261793,0.20445 -0.195623,0.10384 0.147046,-0.22358 0.567269,-0.54203 0.852609,-0.5909 3.187967,-0.54602 l 2.564933,0.0493 -2.22475,0.14915 c -1.849275,0.12397 -2.236048,0.22729 -2.291693,0.61216 -0.05915,0.40912 0.18838,0.46302 2.126208,0.46302 1.61948,0 2.278674,-0.10305 2.520109,-0.39396 0.179828,-0.21668 0.462297,-0.32691 0.62771,-0.24496 0.165412,0.0819 0.06263,-0.0479 -0.228417,-0.28864 -0.521039,-0.43091 -0.519007,-0.43686 0.132292,-0.38721 0.363802,0.0277 0.720989,0.0281 0.79375,9e-4 0.07276,-0.0272 0.351561,-0.091 0.619556,-0.14172 0.267996,-0.0507 0.565652,-0.17963 0.661459,-0.2865 0.09581,-0.10686 -0.0152,-0.12681 -0.246675,-0.0443 -0.231478,0.0825 -0.588666,0.0437 -0.79375,-0.0861 -0.315353,-0.19964 -0.311652,-0.24139 0.02399,-0.27063 0.218281,-0.019 0.575469,-0.0506 0.79375,-0.0702 0.218281,-0.0196 0.36416,-0.1933 0.324174,-0.38602 -0.03999,-0.19272 0.02948,-0.28725 0.154364,-0.21006 0.124886,0.0772 0.912955,-0.13843 1.751264,-0.47915 0.838309,-0.34071 1.395251,-0.6629 1.237649,-0.71598 -0.157602,-0.0531 0.958373,-0.0965 2.479943,-0.0965 3.158071,0 2.946961,0.33402 -0.258852,0.40956 -2.05482,0.0484 -2.081593,0.0572 -0.916285,0.3015 0.875671,0.18356 1.643083,0.14935 2.836953,-0.12646 0.900115,-0.20795 1.573315,-0.27572 1.495985,-0.15061 -0.14599,0.23622 0.0948,0.30351 1.21248,0.33887 0.49413,0.0156 0.66065,0.1652 0.66146,0.59416 5.3e-4,0.31529 0.10947,0.67248 0.24194,0.79375 0.13994,0.1281 0.16111,0.0819 0.0505,-0.11025 -0.10468,-0.1819 -0.0827,-0.33073 0.0489,-0.33073 0.27122,0 1.15153,0.90848 1.04938,1.08298 -0.0367,0.0627 0.0707,-0.0434 0.23861,-0.23575 0.2053,-0.23514 0.36211,-0.25785 0.47864,-0.0693 0.1131,0.183 2.09103,0.28042 5.69364,0.28042 h 5.52033 l 0.81405,0.68497 c 0.82638,0.69536 1.04217,1.16711 0.53385,1.16711 -0.15411,0 -0.23252,-0.0893 -0.17426,-0.19844 0.0583,-0.10914 -0.1133,-0.40679 -0.38126,-0.66146 -0.26795,-0.25466 -0.48902,-0.37372 -0.49124,-0.26458 -0.002,0.10914 -0.11947,0.0198 -0.26054,-0.19844 -0.20058,-0.31037 -0.25736,-0.24155 -0.26053,0.31573 -0.005,0.83086 0.84245,1.54221 1.60057,1.34396 0.5001,-0.13078 0.51205,0.11544 0.51205,10.55371 0,9.69638 0.0424,10.74812 0.45695,11.34 0.25132,0.35881 0.48347,0.77226 0.51588,0.91877 0.0324,0.14651 0.13322,0.5147 0.22401,0.81822 0.21263,0.71088 -0.91232,2.09224 -1.75561,2.15576 -0.6013,0.0453 -0.59994,0.0379 0.0985,-0.53709 0.9214,-0.75857 1.40845,-2.0185 0.9342,-2.41666 -0.18788,-0.15774 -0.25231,-0.17284 -0.14316,-0.0336 0.30798,0.39305 0.23428,0.67373 -0.13927,0.53038 -0.18574,-0.0713 -0.80505,0.34901 -1.37623,0.93395 -0.85878,0.87946 -0.97678,1.12086 -0.68181,1.39467 0.19619,0.18212 0.28464,0.20164 0.19656,0.0434 -0.0881,-0.15826 0.31117,-0.74796 0.88723,-1.31047 0.72646,-0.70937 1.04737,-0.89055 1.04737,-0.59134 0,0.23727 -0.37023,0.72114 -0.82273,1.07528 -0.68448,0.53569 -0.7765,0.73025 -0.54763,1.15791 0.1704,0.31839 0.18297,0.65966 0.033,0.89665 -0.13313,0.21044 -0.24389,3.30957 -0.24612,6.88696 -0.004,5.69842 0.0467,6.50434 0.40579,6.50434 0.3609,0 0.40489,-0.84759 0.36839,-7.09949 -0.0228,-3.90472 0.0607,-7.12933 0.18547,-7.1658 0.12481,-0.0365 0.25857,3.23768 0.29726,7.27588 l 0.0703,7.34219 -0.86408,0.004 c -0.58508,0.003 -0.74817,0.0775 -0.50511,0.23152 0.25025,0.15856 0.27028,0.28227 0.0662,0.40844 -0.16106,0.0995 -0.30692,0.44184 -0.32414,0.76067 -0.0243,0.45066 -0.0763,0.40301 -0.23328,-0.21405 -0.11108,-0.43656 -0.21604,-0.67469 -0.23323,-0.52917 -0.0204,0.1731 -5.40595,0.26275 -15.57558,0.25927 l -15.544323,-0.005 15.412083,0.13761 c 8.47666,0.0757 15.41205,0.22691 15.41199,0.33605 -6e-5,0.10914 -1e-4,0.3175 -1e-4,0.46302 0,0.29833 -30.482402,0.38567 -30.779876,0.0882 z m 23.040803,-0.55105 c -4.18372,-0.0409 -11.029822,-0.0409 -15.213546,0 -4.183724,0.0409 -0.760677,0.0744 7.606776,0.0744 8.36745,0 11.7905,-0.0335 7.60677,-0.0744 z M 87.57709,162.422 c 0.0954,-0.15436 -0.173642,-0.26458 -0.645844,-0.26458 -0.44515,0 -0.809365,0.11906 -0.809365,0.26458 0,0.14552 0.29063,0.26459 0.645844,0.26459 0.355214,0 0.719428,-0.11907 0.809365,-0.26459 z m 14.15522,0 c 0,-0.14552 -0.30469,-0.26458 -0.67708,-0.26458 -0.38401,0 -0.60629,0.11452 -0.51355,0.26458 0.0899,0.14552 0.39462,0.26459 0.67708,0.26459 0.28245,0 0.51355,-0.11907 0.51355,-0.26459 z m -4.416855,-0.19737 c -1.628899,-0.0463 -4.367336,-0.0465 -6.085417,-2.7e-4 -1.71808,0.0462 -0.385344,0.0841 2.961635,0.0843 3.346979,1.8e-4 4.752682,-0.0376 3.123782,-0.0839 z m 17.646015,-3.22544 c 0,-0.1516 -5.59808,-0.22865 -14.41911,-0.19844 -7.930518,0.0272 -14.419425,0.13868 -14.419799,0.24782 -3.7e-4,0.10914 6.488227,0.19843 14.419119,0.19843 8.78631,0 14.41979,-0.0968 14.41979,-0.24781 z m 0,-3.58865 c 0,-0.34787 -1.76215,-0.39687 -14.27188,-0.39687 -7.849547,0 -14.335217,0.10245 -14.412609,0.22768 -0.07739,0.12522 -0.06458,0.30382 0.02848,0.39687 0.09306,0.0931 6.578727,0.1692 14.412609,0.1692 12.48441,0 14.2434,-0.049 14.2434,-0.39688 z m -21.648367,-0.0663 c 3.882411,-0.0412 10.311797,-0.0412 14.287507,-8e-5 3.97571,0.0412 0.7992,0.0749 -7.05893,0.075 -7.858132,4e-5 -11.110989,-0.0336 -7.228577,-0.0749 z m -6.132888,-3.6691 c 0,-0.0558 -0.238125,-0.10143 -0.529167,-0.10143 -0.291042,0 -0.529167,0.10791 -0.529167,0.23981 0,0.1319 0.238125,0.17754 0.529167,0.10143 0.291042,-0.0761 0.529167,-0.18402 0.529167,-0.23981 z m 19.759245,-0.0351 c -3.61174,-0.0416 -9.445806,-0.0416 -12.964586,9e-5 -3.518781,0.0417 -0.563722,0.0757 6.566806,0.0756 7.13052,-5e-5 10.00952,-0.0341 6.39778,-0.0757 z m 8.63899,-1.40726 c -0.20042,-0.20042 0.13045,-0.67326 1.13771,-1.62588 1.5204,-1.43793 1.66767,-1.79018 0.98527,-2.35652 -0.38858,-0.3225 -0.41605,-0.29065 -0.25724,0.29833 l 0.1778,0.65938 -0.47037,-0.65172 c -0.25869,-0.35844 -2.13009,-2.29321 -4.15865,-4.29948 -2.02857,-2.00627 -3.57478,-3.64776 -3.43604,-3.64776 0.13874,0 1.91178,1.66271 3.94009,3.69491 2.02831,2.0322 3.74367,3.63907 3.81191,3.57083 0.0682,-0.0682 -0.16413,-0.44046 -0.51638,-0.82715 -0.35225,-0.3867 -0.46186,-0.60214 -0.24358,-0.47877 0.55937,0.31614 -2.35177,-2.77447 -5.0381,-5.34871 -1.70081,-1.62985 -2.35545,-2.1053 -2.64583,-1.92161 -0.48294,0.30547 -1.12483,0.32706 -0.94228,0.0317 0.075,-0.12126 -0.032,-0.22048 -0.23758,-0.22048 -0.20562,0 -0.43477,0.15875 -0.50923,0.35278 -0.0943,0.24573 0.10579,0.35277 0.65939,0.35277 0.70322,0 0.76327,0.0588 0.5214,0.51077 -0.15035,0.28092 -0.61591,0.75468 -1.03457,1.0528 l -0.76122,0.54203 v -0.68601 c 0,-0.37731 -0.16371,-0.78972 -0.3638,-0.91646 -0.29107,-0.18437 -0.27565,-0.23125 0.0772,-0.23449 0.72548,-0.007 0.72739,-0.61856 0.004,-1.39451 -0.74167,-0.79595 -0.97278,-1.51762 -0.48806,-1.52401 0.17651,-0.002 0.14154,-0.10889 -0.0821,-0.25035 -0.33381,-0.21111 -0.32457,-0.2712 0.0646,-0.42055 0.24975,-0.0958 0.38701,-0.28278 0.30503,-0.41542 -0.082,-0.13265 -0.25989,-0.17268 -0.39535,-0.089 -0.13546,0.0837 -0.2463,0.0341 -0.2463,-0.11028 0,-0.14437 -0.37042,-0.25197 -0.82315,-0.23909 -0.75405,0.0214 -0.77767,0.0478 -0.28131,0.31339 0.51799,0.27722 0.49677,0.32782 -0.48197,1.14952 -1.30992,1.09974 -1.64866,1.1058 -0.64588,0.0115 l 0.7771,-0.84799 -0.96437,0.81548 c -0.5304,0.44852 -1.51532,1.0259 -2.18871,1.28307 -0.67339,0.25717 -1.172055,0.51987 -1.108145,0.58378 0.0639,0.0639 0.680285,-0.13332 1.369715,-0.43829 0.68942,-0.30496 1.31236,-0.49562 1.3843,-0.42368 0.0719,0.0719 -0.39295,0.36842 -1.03308,0.65886 -0.86754,0.39361 -1.740095,0.52953 -3.427036,0.53386 -2.600655,0.007 -4.190919,-0.60649 -5.979808,-2.30569 -0.559599,-0.53155 -0.868625,-0.87672 -0.686724,-0.76706 0.181901,0.10966 0.330729,0.0733 0.330729,-0.0808 0,-0.15411 -0.188515,-0.2802 -0.418923,-0.2802 -0.230408,0 -0.368786,-0.14882 -0.307507,-0.33073 0.06128,-0.1819 -0.07763,-0.48838 -0.30868,-0.68107 -0.336627,-0.28074 -0.341242,-0.31627 -0.02322,-0.17882 0.218281,0.0943 0.165759,-0.0159 -0.116716,-0.24496 -0.375201,-0.30427 -0.410847,-0.41867 -0.132291,-0.42455 0.281516,-0.006 0.26013,-0.0786 -0.08172,-0.27773 -0.254662,-0.14832 -0.463021,-0.38985 -0.463021,-0.53673 0,-0.14688 0.119062,-0.19347 0.264583,-0.10353 0.145521,0.0899 0.264584,0.0445 0.264584,-0.10106 0,-0.14552 -0.119063,-0.33817 -0.264584,-0.42811 -0.344128,-0.21268 -0.344128,-2.16857 0,-2.38125 0.145521,-0.0899 0.264584,-0.28258 0.264584,-0.4281 0,-0.14552 -0.119063,-0.191 -0.264584,-0.10106 -0.145521,0.0899 -0.264583,0.0433 -0.264583,-0.10353 0,-0.14688 0.191626,-0.3743 0.425836,-0.50537 0.373773,-0.20917 0.37674,-0.25714 0.02426,-0.3924 -0.521804,-0.20024 -0.799518,0.81083 -0.729247,2.65494 0.0322,0.84516 -0.05818,1.38906 -0.230835,1.38906 -0.162583,0 -0.295029,-0.5932 -0.31014,-1.38906 -0.01954,-1.02918 -0.07553,-1.21769 -0.216097,-0.7276 -0.104347,0.3638 -0.09898,1.07517 0.01192,1.58081 0.120638,0.55003 0.09613,0.98458 -0.06101,1.08169 -0.157353,0.0973 -0.09969,0.29758 0.143831,0.49969 0.223567,0.18554 0.341239,0.44292 0.261492,0.57195 -0.07975,0.12903 -0.01891,0.23461 0.135204,0.23461 0.154109,0 0.280199,0.12609 0.280199,0.28019 0,0.15411 -0.148828,0.20482 -0.33073,0.11268 -0.181901,-0.0921 -0.12422,0.002 0.128179,0.20898 0.2524,0.20708 0.381385,0.45403 0.286633,0.54879 -0.09475,0.0948 -0.02063,0.17227 0.164711,0.17227 0.185344,0 0.272957,0.16687 0.194697,0.37081 -0.08759,0.22826 0.078,0.42841 0.430768,0.52066 0.568761,0.14873 0.569119,0.15305 0.04784,0.57486 -0.288872,0.23375 -0.391372,0.35887 -0.227779,0.27804 0.412619,-0.20386 1.754741,1.09326 1.549913,1.49795 -0.09174,0.18126 0.02445,0.0932 0.258195,-0.19566 0.421813,-0.52128 0.426124,-0.52093 0.574858,0.0478 0.09225,0.35277 0.292402,0.51836 0.520663,0.43077 0.203942,-0.0783 0.370804,-0.003 0.370804,0.16622 0,0.16968 0.119062,0.23492 0.264583,0.14498 0.145521,-0.0899 0.264583,-0.0176 0.264583,0.16078 0,0.17836 0.07834,0.24595 0.174094,0.1502 0.09575,-0.0957 0.333876,-0.0415 0.529166,0.12059 0.195291,0.16208 0.355074,0.20212 0.355074,0.089 0,-0.11313 0.238125,0.01 0.529166,0.27319 0.413576,0.37428 0.529167,0.39596 0.529167,0.0992 0,-0.21164 -0.595175,-0.61029 -1.345028,-0.9009 -0.739766,-0.2867 -1.46872,-0.67009 -1.619897,-0.85199 -0.409787,-0.49307 0.01098,-0.40079 1.022193,0.22417 1.399161,0.86473 5.279676,0.93101 7.253421,0.12389 0.28222,-0.11541 0.51169,0.0402 0.71396,0.48411 0.22589,0.49577 0.22128,0.68539 -0.019,0.78308 -0.17843,0.0725 -0.19457,0.13804 -0.0369,0.1498 0.15409,0.0115 0.51128,-0.158 0.79375,-0.37664 0.42813,-0.33138 0.43655,-0.37069 0.0506,-0.23628 -0.32754,0.11407 -0.46302,0.0239 -0.46302,-0.30803 0,-0.2581 0.0775,-0.39175 0.17228,-0.297 0.0948,0.0948 0.32909,-0.0342 0.52075,-0.28663 0.23296,-0.30679 0.35127,-0.3441 0.35689,-0.11257 0.005,0.19049 0.1174,0.27899 0.2506,0.19667 0.37668,-0.2328 1.87448,1.1616 1.87448,1.74508 0,0.2867 0.11906,0.44768 0.26458,0.35774 0.14552,-0.0899 0.26459,-0.0474 0.26459,0.0946 0,0.14198 -0.14883,0.3182 -0.33073,0.3916 -0.20625,0.0832 -0.16475,0.14132 0.11024,0.15434 0.24254,0.0115 0.48675,0.15822 0.5427,0.32607 0.10733,0.322 2.355,-1.92179 2.59772,-2.59324 0.11427,-0.31611 0.24273,-0.27747 0.66146,0.199 0.41164,0.46839 0.43078,0.55902 0.0921,0.43605 -0.51546,-0.18716 -3.14793,2.40191 -2.95874,2.90996 0.0833,0.22364 -0.034,0.2743 -0.36191,0.15628 -0.26683,-0.096 -0.42284,-0.12589 -0.34671,-0.0663 0.0761,0.0596 0.83705,0.76314 1.69094,1.56351 0.85388,0.80036 1.46917,1.30638 1.36731,1.12448 -0.32397,-0.57857 -0.0199,-0.35981 0.91861,0.6609 0.82452,0.89671 0.83582,0.92837 0.11805,0.33073 l -0.79375,-0.66091 -11.575704,0.1323 c -7.385638,0.0844 -11.599578,0.22806 -11.641668,0.39687 -0.0429,0.17206 4.162825,0.31085 12.026184,0.39688 l 12.092158,0.13229 1.07087,1.04588 c 0.58898,0.57524 1.07168,1.17055 1.07267,1.32292 0.001,0.15237 0.39994,0.54808 0.88653,0.87937 0.48659,0.33129 1.16137,0.89683 1.49952,1.25677 0.33814,0.35994 0.6774,0.65443 0.75389,0.65443 0.0765,0 0.0119,-0.12717 -0.14352,-0.2826 z m -2.60756,-2.69396 -2.11046,-2.18281 2.18281,2.11046 c 2.02733,1.96013 2.30344,2.25516 2.11046,2.25516 -0.0398,0 -1.02206,-0.98226 -2.18281,-2.18281 z m -1.70417,-2.43797 c -2.24687,-2.25038 -4.03137,-4.14201 -3.96555,-4.20361 0.0658,-0.0616 2.02468,1.77895 4.35301,4.09013 2.32833,2.31118 4.11283,4.20281 3.96555,4.20362 -0.14728,7.9e-4 -2.10613,-1.83975 -4.35301,-4.09014 z m -19.125568,-0.3399 c 3.237839,-0.0421 8.536128,-0.0421 11.773968,0 3.23784,0.0421 0.5887,0.0765 -5.886989,0.0765 -6.475677,0 -9.124817,-0.0344 -5.886979,-0.0765 z m 20.963918,-3.43064 c -1.67111,-1.70481 -2.26448,-2.38942 -1.3186,-1.52135 1.7727,1.62684 4.66866,4.621 4.46945,4.621 -0.0619,0 -1.47973,-1.39484 -3.15085,-3.09965 z m -5.1675,1.18142 -1.04589,-1.12448 1.12448,1.04588 c 1.04576,0.97266 1.24606,1.20308 1.04588,1.20308 -0.0432,0 -0.54924,-0.50602 -1.12447,-1.12448 z M 103.4521,136.056 c 1.06732,-1.02454 1.8691,-1.62742 1.62605,-1.22266 -0.10742,0.1789 -0.0666,0.56585 0.0908,0.8599 0.15737,0.29405 0.19264,0.54983 0.0784,0.5684 -0.11426,0.0186 -0.44587,0.0605 -0.73691,0.0932 -0.29104,0.0327 -0.82682,0.15027 -1.19062,0.26126 -0.64697,0.19739 -0.64407,0.18512 0.13229,-0.56012 z m -11.91714,-0.63948 c -0.284763,-0.46076 0.03956,-0.55833 0.402448,-0.12108 0.20869,0.25145 0.228762,0.40327 0.05332,0.40327 -0.154751,0 -0.359845,-0.12699 -0.455766,-0.28219 z m -1.119725,-1.37146 c -0.567556,-0.69687 -1.448031,-3.26214 -0.948057,-2.76217 0.18994,0.18994 1.398628,3.0929 1.287772,3.0929 -0.0387,0 -0.191569,-0.14883 -0.339715,-0.33073 z m 29.027385,14.14046 c -0.0111,-0.29809 -0.10446,-0.22849 -0.27852,0.20775 -0.14395,0.36081 -0.4043,0.84289 -0.57854,1.0713 -0.17424,0.2284 -0.0489,0.13491 0.27852,-0.20775 0.32742,-0.34267 0.58776,-0.82476 0.57854,-1.0713 z m -32.262405,-0.13284 c 0.569645,-0.11608 0.554114,-0.12896 -0.111888,-0.0928 -0.436277,0.0237 -0.819848,0.21495 -0.880038,0.43885 -0.07132,0.26529 -0.03423,0.29607 0.111887,0.0928 0.120219,-0.16723 0.516237,-0.36471 0.880039,-0.43885 z m 19.380735,0.4124 c -3.52888,-0.0417 -9.303418,-0.0417 -12.832298,0 -3.52888,0.0417 -0.641614,0.0758 6.416148,0.0758 7.05777,0 9.94503,-0.0341 6.41615,-0.0758 z m 3.175,-0.50618 c -0.1819,-0.0734 -0.47956,-0.0734 -0.66146,0 -0.1819,0.0734 -0.0331,0.13345 0.33073,0.13345 0.3638,0 0.51263,-0.0601 0.33073,-0.13345 z m 8.21912,-12.68422 c -0.027,-5.7629 -0.09,-10.51889 -0.13995,-10.56885 -0.05,-0.05 -0.2335,-0.003 -0.40786,0.10507 -0.23672,0.1463 -0.32167,2.73075 -0.3354,10.20384 -0.0101,5.50435 0.0658,10.08291 0.16865,10.17458 0.10288,0.0917 0.09,-5.3e-4 -0.0285,-0.20493 -0.14503,-0.24999 -0.11562,-0.30983 0.0899,-0.18282 0.16801,0.10383 0.30547,0.36035 0.30547,0.57004 0,0.2097 0.0893,0.38122 0.19843,0.38117 0.10914,-5e-5 0.17634,-4.71519 0.14933,-10.4781 z m -30.375478,5.97623 c 0.09227,-0.14931 -0.184529,-0.26054 -0.648346,-0.26054 -0.44515,0 -0.809365,0.0931 -0.809365,0.20688 0,0.30852 1.271278,0.35531 1.457711,0.0537 z m 17.592298,0.004 c -0.3638,-0.11651 -4.3524,-0.19661 -8.86355,-0.178 l -8.202084,0.0338 7.9375,0.14416 c 4.365634,0.0793 8.354224,0.15938 8.863554,0.17799 0.81873,0.0299 0.84939,0.009 0.26458,-0.17799 z m -5.446715,-2.79702 c 0.393885,-0.15814 0.457285,-0.11983 0.285255,0.17237 -0.121645,0.20663 0.0374,0.14888 0.35348,-0.12834 0.43337,-0.38011 0.57672,-0.41264 0.58306,-0.13229 0.006,0.27738 0.0969,0.25526 0.35689,-0.0872 0.19166,-0.2524 0.426,-0.38139 0.52075,-0.28664 0.0947,0.0948 0.17228,0.0334 0.17228,-0.1364 0,-0.375 0.13312,-0.38347 -1.43112,0.0911 -0.714355,0.21671 -1.904975,0.39583 -2.645835,0.39806 -1.002944,0.003 -1.245638,0.0734 -0.950137,0.27544 0.409191,0.27982 1.863037,0.19218 2.755377,-0.16609 z m -4.230608,-1.98056 c -0.738617,-0.28416 -1.869711,-0.95535 -2.513542,-1.49152 l -1.170602,-0.97485 0.79375,0.87731 c 0.790804,0.87406 3.081832,2.13823 3.836458,2.11693 0.218282,-0.006 -0.207448,-0.2437 -0.946064,-0.52787 z m 3.062728,-1.32724 c 0,-1.63985 -0.0573,-1.86048 -0.463018,-1.78256 -0.378182,0.0726 -0.47503,0.41554 -0.528561,1.87148 -0.05983,1.62736 -0.01952,1.78256 0.463021,1.78256 0.478538,0 0.528558,-0.1771 0.528558,-1.87148 z m -2.02727,-2.49563 c -0.664953,-0.49011 -0.798128,0.0256 -0.182691,0.70747 0.434637,0.48155 0.500301,0.49254 0.579566,0.097 0.04917,-0.24534 -0.129427,-0.60736 -0.396875,-0.80448 z m 9.964785,0.92753 c -0.3292,-0.21274 -0.30664,-0.25786 0.13229,-0.26458 0.4304,-0.007 0.45639,-0.0541 0.13927,-0.25467 -0.25714,-0.16262 -0.45845,-0.13871 -0.59126,0.0702 -0.31988,0.50318 -0.24457,0.71394 0.25355,0.70958 0.3957,-0.003 0.40532,-0.0413 0.0661,-0.26053 z m -11.178658,-1.40868 c 0.181901,-0.1155 0.328906,-0.3518 0.326678,-0.52511 -0.0028,-0.21771 -0.07243,-0.20727 -0.225275,0.0338 -0.121673,0.19189 -0.834225,0.63289 -1.583448,0.98001 -0.749224,0.34712 -1.362226,0.69066 -1.362226,0.76342 0,0.12881 2.182883,-0.83213 2.844271,-1.25209 z m 4.511143,1.09123 c 0.174635,-0.17462 0.317505,-0.49073 0.317505,-0.70247 0,-0.30559 -0.1091,-0.28622 -0.529165,0.0939 -0.54356,0.49191 -0.6924,0.92604 -0.3175,0.92604 0.11641,0 0.35454,-0.14287 0.52916,-0.3175 z m 6.312975,-1.44815 c -0.1009,-0.1009 -0.33029,-0.0251 -0.50977,0.16846 -0.25906,0.27937 -0.25815,0.31342 0.004,0.16518 0.1819,-0.10269 0.33073,-0.0606 0.33073,0.0935 0,0.15411 -0.20836,0.28202 -0.46302,0.28425 -0.3957,0.003 -0.40532,0.0413 -0.0661,0.26053 0.33917,0.21919 0.32955,0.25707 -0.0662,0.26053 -0.25466,0.002 -0.46302,-0.13485 -0.46302,-0.30463 0,-0.16977 -0.0891,-0.21957 -0.19802,-0.11066 -0.10891,0.10892 0.0391,0.37138 0.32882,0.58326 0.48622,0.35553 0.55608,0.32348 0.90623,-0.41586 0.20866,-0.4406 0.29683,-0.88364 0.19594,-0.98454 z m -6.914995,0.43592 c 0.42185,-0.4403 0.907625,-0.74659 1.079505,-0.68063 0.21243,0.0815 0.29462,-0.20771 0.25666,-0.9032 -0.0307,-0.56272 0.0141,-1.00057 0.0996,-0.97301 0.42922,0.13836 1.46908,-1.07815 1.47803,-1.72911 l 0.01,-0.7209 -0.57731,0.54236 c -0.63839,0.59973 -0.74737,0.5162 -1.02719,-0.78732 -0.13438,-0.626 -0.10413,-0.83888 0.10118,-0.71199 0.16109,0.0996 0.29289,0.34555 0.29289,0.54666 0,0.2011 0.1345,0.44877 0.2989,0.55038 0.18267,0.11289 0.24802,0.0418 0.16805,-0.18283 -0.072,-0.20215 -0.008,-0.60568 0.14128,-0.89672 0.23403,-0.45504 0.21611,-0.48297 -0.12788,-0.19937 -0.3275,0.27 -0.4867,0.23402 -0.87807,-0.19844 -0.46638,-0.51534 -0.22062,-0.76738 0.27865,-0.28577 0.15304,0.14763 0.35496,0.12175 0.51624,-0.0662 0.18739,-0.21831 -0.0943,-0.66437 -0.96278,-1.52456 -0.675225,-0.66877 -1.208415,-1.08468 -1.184865,-0.92424 0.0725,0.49417 0.79991,1.37215 1.287455,1.554 1.00069,0.37327 0.36443,0.60429 -1.719795,0.62444 -1.200552,0.0116 -2.040679,-0.0297 -1.866952,-0.0918 0.176177,-0.063 0.240312,-0.3098 0.145023,-0.55812 -0.154416,-0.4024 -0.100636,-0.39921 0.559294,0.0332 0.418097,0.27395 1.034575,0.43193 1.442475,0.36966 0.65863,-0.10055 0.64889,-0.11174 -0.12908,-0.1484 -0.804599,-0.0379 -0.831467,-0.0744 -0.613786,-0.83339 0.180258,-0.62852 0.145624,-0.79375 -0.166376,-0.79375 -0.216712,0 -0.319915,-0.1199 -0.229343,-0.26645 0.09057,-0.14655 -0.03305,-0.34233 -0.274725,-0.43507 -0.2867,-0.11001 -0.637332,0.0659 -1.008957,0.50611 -0.625222,0.74067 -1.741766,1.40895 -2.157058,1.29106 -0.145521,-0.0413 -0.125059,0.067 0.04547,0.24061 0.17053,0.17365 0.255627,0.45755 0.189107,0.6309 -0.06652,0.17335 0.12758,0.5401 0.431336,0.815 0.550375,0.49808 0.551324,0.49728 0.274714,-0.23026 -0.177072,-0.46573 -0.182063,-0.67103 -0.01378,-0.56703 0.145081,0.0897 0.263783,0.0369 0.263783,-0.11717 0,-0.15411 0.20135,-0.2802 0.447445,-0.2802 0.389307,0 0.380766,0.0488 -0.06573,0.37524 -0.282246,0.20639 -0.424065,0.46435 -0.315153,0.57327 0.108912,0.10891 0.198022,0.077 0.198022,-0.0709 0,-0.29083 3.956641,-0.15422 4.289336,0.1481 0.10356,0.0941 -0.764915,0.13802 -1.929938,0.0976 l -2.118224,-0.0735 -0.396468,0.94888 c -0.349118,0.83555 -0.482018,0.93012 -1.112775,0.79177 -0.620648,-0.13612 -0.72124,-0.0705 -0.753248,0.49112 -0.02836,0.49754 0.0639,0.61049 0.396875,0.4859 0.368185,-0.13776 0.381837,-0.0983 0.09024,0.26054 -0.264821,0.32593 -0.270612,0.46795 -0.02527,0.61958 0.215151,0.13297 0.254748,0.0763 0.12218,-0.17488 -0.107873,-0.20438 0.06266,-0.0739 0.378953,0.28985 0.316298,0.3638 0.499039,0.51399 0.406093,0.33376 -0.110234,-0.21376 -0.03055,-0.27457 0.229172,-0.17491 0.307802,0.11812 0.332673,0.25766 0.109588,0.61488 -0.239697,0.38381 -0.09194,0.6476 0.872348,1.55735 0.638508,0.6024 1.347008,1.09825 1.574444,1.10189 0.227436,0.004 0.758665,-0.35364 1.180505,-0.79395 z m -2.784644,-8.41184 c 0,-0.31977 0.501968,-0.69257 0.685456,-0.50909 0.06659,0.0666 -0.06039,0.27169 -0.282187,0.45577 -0.251456,0.20869 -0.403269,0.22876 -0.403269,0.0533 z m 10.715629,8.68324 c 0.0899,-0.14552 0.0147,-0.26459 -0.16724,-0.26459 -0.18807,0 -0.12172,-0.15285 0.1538,-0.35432 0.43778,-0.32012 0.44266,-0.3704 0.0506,-0.52086 -0.2387,-0.0916 -0.43563,-0.081 -0.43761,0.0236 -0.002,0.10457 -0.0754,0.45802 -0.16315,0.78545 -0.16036,0.59834 0.24958,0.83888 0.56363,0.33073 z m -5.68854,-0.26459 c -0.21828,-0.14106 -0.51593,-0.25648 -0.66146,-0.25648 -0.14552,0 -0.086,0.11542 0.1323,0.25648 0.21828,0.14107 0.51593,0.25648 0.66145,0.25648 0.14553,0 0.086,-0.11541 -0.13229,-0.25648 z m 5.02709,-1.39941 c 0,-0.42997 -0.0671,-0.46177 -0.39688,-0.18809 -0.21828,0.18116 -0.39687,0.41402 -0.39687,0.51747 0,0.10345 0.17859,0.18809 0.39687,0.18809 0.21828,0 0.39688,-0.23286 0.39688,-0.51747 z m 0.94838,-2.3709 c -0.37464,-0.85666 -0.37605,-0.85343 -0.37605,0.8599 0,1.71332 0.001,1.71656 0.37605,0.85989 0.32501,-0.74319 0.32501,-0.9766 0,-1.71979 z m -16.905591,0.39688 c -0.06655,-0.25467 -0.121,-0.0463 -0.121,0.46302 0,0.50932 0.05445,0.71768 0.121,0.46302 0.06655,-0.25466 0.06655,-0.67138 0,-0.92604 z m 11.228461,0.52916 c 0.3291,-0.41964 0.31975,-0.429 -0.0999,-0.0999 -0.25466,0.19972 -0.46302,0.40808 -0.46302,0.46302 0,0.21776 0.21727,0.0776 0.56292,-0.36313 z m 4.72875,-1.60955 c 0,-0.26678 -0.17217,-0.48507 -0.38259,-0.48507 -0.289,0 -0.31908,0.11865 -0.12298,0.48507 0.14278,0.26679 0.31494,0.48507 0.38258,0.48507 0.0676,0 0.12299,-0.21828 0.12299,-0.48507 z m -17.285056,-0.74858 c -0.07824,-0.0782 -0.281945,-0.0559 -0.452684,0.0496 -0.230172,0.14225 -0.217621,0.24952 0.04854,0.41489 0.352808,0.2192 0.694786,-0.17386 0.404141,-0.4645 z m 17.933066,-0.26411 c -0.33753,-0.2468 -0.37288,-0.35432 -0.1165,-0.35432 0.28339,0 0.29604,-0.072 0.055,-0.31309 -0.4395,-0.4395 -0.64286,-0.1359 -0.44282,0.66113 0.1178,0.46932 0.29431,0.62714 0.57917,0.51784 0.35486,-0.13618 0.34484,-0.20468 -0.0748,-0.51156 z m -11.892814,0.17485 c 0.08994,-0.14552 -0.02913,-0.26459 -0.264583,-0.26459 -0.235458,0 -0.35452,0.11907 -0.264583,0.26459 0.08994,0.14552 0.208999,0.26458 0.264583,0.26458 0.05558,0 0.174646,-0.11906 0.264583,-0.26458 z m 10.980214,-0.25214 c 0,-0.13867 -0.13596,-0.55053 -0.30214,-0.91525 -0.24595,-0.53981 -0.39355,-0.61419 -0.79375,-0.40002 -0.27038,0.14471 -0.48221,0.40775 -0.47072,0.58453 0.0157,0.24226 0.0537,0.23997 0.15434,-0.009 0.0734,-0.1819 0.33189,-0.32891 0.57442,-0.32668 0.3814,0.004 0.38736,0.0387 0.0441,0.26053 -0.33028,0.21345 -0.30808,0.26067 0.13229,0.28142 0.29105,0.0137 0.3796,0.0852 0.19679,0.15895 -0.18281,0.0737 -0.26507,0.24289 -0.18282,0.37598 0.19673,0.31832 0.64749,0.31125 0.64749,-0.0101 z m -15.687197,-2.0295 c 0.06581,0.0658 -0.0091,0.36014 -0.166372,0.65408 -0.38189,0.71357 -0.361894,1.17031 0.04471,1.02122 0.181902,-0.0667 0.300964,-0.25521 0.264584,-0.41892 -0.03638,-0.16371 0.04918,-0.29766 0.190133,-0.29766 0.140954,0 0.187747,-0.17859 0.103985,-0.39687 -0.09644,-0.25132 0.0036,-0.39688 0.272887,-0.39688 0.23385,0 0.425182,-0.12609 0.425182,-0.2802 0,-0.15411 -0.119062,-0.20661 -0.264583,-0.11667 -0.533508,0.32972 -0.238208,-0.05 0.832623,-1.07079 0.603464,-0.57523 1.020867,-0.90953 0.927562,-0.74288 -0.09331,0.16666 0.0032,0.36932 0.214346,0.45036 0.309397,0.11873 0.335601,0.0201 0.13489,-0.50784 -0.218665,-0.57513 -0.144536,-0.71894 0.606676,-1.17697 1.011596,-0.61679 1.675216,-0.66656 1.96711,-0.14753 0.182914,0.32524 0.281179,0.32524 0.725175,0 0.462876,-0.33908 0.467863,-0.37623 0.05053,-0.37623 -0.254683,0 -0.389475,-0.11906 -0.299538,-0.26458 0.08994,-0.14552 0.0672,-0.26621 -0.05053,-0.2682 -0.117729,-0.002 -0.511709,-0.0718 -0.875511,-0.15524 -0.540517,-0.12391 -0.588894,-0.0952 -0.264583,0.1573 0.318772,0.24814 0.240668,0.27711 -0.396875,0.14721 -0.622332,-0.1268 -0.708041,-0.0979 -0.396875,0.13384 0.324187,0.24144 0.287776,0.27166 -0.198803,0.165 -0.383188,-0.084 -0.532873,-0.0289 -0.419617,0.15431 0.10917,0.17664 0.01856,0.22443 -0.238501,0.12579 -0.228009,-0.0875 -0.634493,0.008 -0.903299,0.2112 -0.268806,0.20366 -0.380988,0.37408 -0.249294,0.37871 0.30809,0.0108 -0.639717,1.06674 -0.957525,1.06674 -0.131555,0 -0.149778,-0.14882 -0.04049,-0.33073 0.13501,-0.22472 0.05521,-0.21434 -0.248969,0.0324 -0.507287,0.41149 -0.605606,0.69176 -0.1422,0.40536 0.189256,-0.11697 0.233644,-0.0726 0.116677,0.11668 -0.103833,0.168 -0.39012,0.30728 -0.636193,0.30951 -0.386102,0.004 -0.393026,0.0397 -0.05053,0.26459 0.33,0.21664 0.29404,0.28869 -0.213402,0.4276 -0.37267,0.10201 -0.556176,0.30804 -0.471324,0.52916 0.07642,0.19915 0.0038,0.3621 -0.161425,0.3621 -0.165207,0 -0.222852,0.0775 -0.1281,0.17228 0.09475,0.0948 -0.03423,0.3417 -0.286633,0.54878 -0.252399,0.20708 -0.31008,0.30113 -0.128179,0.20899 0.181902,-0.0921 0.33073,-0.0414 0.33073,0.11267 0,0.15411 -0.12609,0.2802 -0.280199,0.2802 -0.154109,0 -0.195165,0.13758 -0.09124,0.30574 0.115227,0.18644 0.392727,-0.12719 0.711154,-0.80376 0.287205,-0.61024 0.576033,-1.05568 0.641839,-0.98987 z m 2.193442,-3.11401 c 0,-0.0572 0.184777,-0.17489 0.410617,-0.26156 0.235459,-0.0904 0.341662,-0.046 0.248968,0.10399 -0.155379,0.25141 -0.659585,0.37186 -0.659585,0.15757 z m 13.918375,3.85531 c -0.40116,-0.0806 -0.42762,-0.14749 -0.13229,-0.33449 0.28562,-0.18085 0.24941,-0.23557 -0.16004,-0.24184 -0.42491,-0.007 -0.45346,-0.056 -0.14492,-0.25118 0.21133,-0.13369 0.49762,-0.173 0.63619,-0.0874 0.13857,0.0857 0.17391,0.0294 0.0785,-0.12491 -0.0954,-0.15434 -0.39801,-0.2219 -0.67248,-0.15012 -0.27447,0.0718 -0.57904,0.001 -0.67681,-0.15713 -0.0978,-0.1582 -0.0309,-0.28763 0.14855,-0.28763 0.18158,0 0.0556,-0.2882 -0.28409,-0.64975 -0.33572,-0.35737 -0.73802,-0.62526 -0.89399,-0.59532 -0.15597,0.0299 -0.28899,-0.12415 -0.29561,-0.34243 -0.007,-0.21828 -0.26534,-0.40969 -0.57496,-0.42535 -0.30962,-0.0157 -0.84213,-0.22401 -1.18335,-0.46302 -0.69174,-0.48451 -1.42054,-0.58484 -1.15758,-0.15936 0.11196,0.18114 -0.0862,0.21135 -0.57969,0.0884 -0.67523,-0.16821 -0.71392,-0.14325 -0.38907,0.25107 0.19839,0.24081 0.46628,0.3726 0.59532,0.29285 0.12903,-0.0797 0.23642,0.0109 0.23865,0.20135 0.003,0.25167 0.0742,0.23786 0.26053,-0.0505 0.21275,-0.32919 0.25787,-0.30664 0.26459,0.1323 0.007,0.43893 0.0518,0.46148 0.26458,0.13229 0.21614,-0.33445 0.25712,-0.3196 0.26053,0.0945 0.003,0.33163 0.13566,0.44082 0.40898,0.33594 0.2616,-0.10038 0.50604,0.0666 0.69063,0.47169 0.15714,0.34488 0.56789,0.75563 0.91278,0.91278 0.40512,0.18458 0.57207,0.42902 0.47168,0.69063 -0.0976,0.25432 -0.005,0.40492 0.24775,0.40492 0.22173,0 0.45698,-0.14882 0.52279,-0.33073 0.0697,-0.19259 0.2584,-0.0356 0.45185,0.37594 0.23163,0.49273 0.46241,0.65529 0.76229,0.53698 0.37156,-0.14658 0.36185,-0.18339 -0.0713,-0.27044 z m -2.04587,-1.8331 c -0.3291,-0.41964 -0.31975,-0.429 0.0999,-0.0999 0.25466,0.19972 0.46302,0.40808 0.46302,0.46303 0,0.21776 -0.21727,0.0776 -0.56292,-0.36313 z m -1.00503,-0.96863 c -0.22602,-0.27234 -0.23002,-0.42265 -0.0148,-0.55566 0.16227,-0.10029 0.36649,-0.11089 0.45382,-0.0236 0.0873,0.0873 0.005,0.15879 -0.18229,0.15879 -0.27318,0 -0.27551,0.079 -0.0117,0.39687 0.18116,0.21828 0.26985,0.39688 0.19709,0.39688 -0.0728,0 -0.27172,-0.168 -0.44212,-0.37332 z m -7.92331,0.43946 c 0.329108,-0.41964 0.319749,-0.429 -0.0999,-0.0999 -0.254661,0.19972 -0.46302,0.40808 -0.46302,0.46302 0,0.21776 0.217272,0.0776 0.562915,-0.36313 z m 20.2246,0 c -0.0613,-0.41901 -0.53693,-0.46986 -5.00367,-0.535 -2.71476,-0.0396 -4.93592,0.0259 -4.93592,0.14552 0,0.72617 0.78852,0.8525 5.32117,0.8525 4.31244,0 4.68077,-0.0369 4.61842,-0.46302 z m -21.327233,-1.12448 c 0.02031,0.30255 0.09496,0.27928 0.314092,-0.0979 0.206014,-0.35459 0.343219,-0.40453 0.484301,-0.17625 0.14348,0.23216 0.240449,0.2049 0.357659,-0.10055 0.08844,-0.23048 0.04166,-0.41906 -0.10397,-0.41906 -0.41007,0 -2.099864,0.7469 -2.099864,0.92816 0,0.0888 0.119062,0.0878 0.264583,-0.002 0.145521,-0.0899 0.272952,-0.008 0.28318,0.18282 0.01023,0.1905 0.120922,0.10823 0.245987,-0.18281 0.154686,-0.35998 0.235909,-0.40228 0.254032,-0.1323 z m 2.814513,-0.19465 c -0.156838,-0.15683 -0.951879,0.25225 -0.951879,0.48979 0,0.13118 0.232711,0.0932 0.517134,-0.0844 0.284424,-0.17763 0.48006,-0.36003 0.434745,-0.40535 z m 3.6746,-0.98494 c 1.18494,-0.27708 0.23588,-0.69955 -1.079495,-0.48054 -0.94523,0.15739 -0.97698,0.18817 -0.37198,0.36057 0.646225,0.18414 0.643535,0.18909 -0.11672,0.21486 -0.73206,0.0248 -0.74826,0.0482 -0.27343,0.39545 0.40711,0.29768 0.55764,0.30382 0.778185,0.0317 0.15038,-0.18554 0.62893,-0.42047 1.06344,-0.52207 z m -0.44275,-0.32406 c 0.191,-0.0764 0.4192,-0.067 0.50712,0.0209 0.0879,0.0879 -0.0683,0.15046 -0.34726,0.13897 -0.30823,-0.0127 -0.37093,-0.0754 -0.15986,-0.15985 z m 2.03399,0.44532 c -0.0899,-0.14552 -0.0176,-0.26458 0.16077,-0.26458 0.17837,0 0.26196,-0.0623 0.18578,-0.13852 -0.0762,-0.0762 -0.34414,-0.0596 -0.59545,0.0368 -0.36216,0.13897 -0.38373,0.22174 -0.10402,0.39905 0.46585,0.2953 0.5508,0.28741 0.35292,-0.0328 z m -18.367664,45.61858 c 0.01269,-0.30823 0.07539,-0.37092 0.159853,-0.15986 0.07643,0.191 0.06703,0.4192 -0.02089,0.50712 -0.08792,0.0879 -0.150453,-0.0684 -0.138965,-0.34726 z m -0.848387,-0.30868 c -0.329107,-0.41965 -0.319749,-0.42901 0.0999,-0.0999 0.254661,0.19972 0.463021,0.40808 0.463021,0.46302 0,0.21776 -0.217272,0.0776 -0.562916,-0.36312 z m 33.635841,0.23114 c 0,-0.17264 0.17791,-0.38217 0.39536,-0.46561 0.21744,-0.0834 0.32948,-0.2583 0.24896,-0.38857 -0.0805,-0.13027 -0.0203,-0.23686 0.13381,-0.23686 0.43832,0 0.33029,0.40183 -0.24896,0.92604 -0.31549,0.28551 -0.52917,0.35214 -0.52917,0.165 z m -34.131259,-1.08274 c 0,-0.14095 0.178594,-0.18774 0.396875,-0.10398 0.218282,0.0838 0.396875,0.19909 0.396875,0.25628 0,0.0572 -0.178593,0.10398 -0.396875,0.10398 -0.218281,0 -0.396875,-0.11532 -0.396875,-0.25628 z m 0.06615,-0.72488 c -0.260591,-0.0956 -0.330729,-4.35701 -0.330729,-20.09466 0,-18.87985 0.02535,-19.96851 0.463021,-19.88424 0.435336,0.0838 0.467077,1.27454 0.530864,19.91437 0.03731,10.90387 -0.02222,19.90634 -0.132292,20.00551 -0.110074,0.0992 -0.348963,0.12572 -0.530864,0.059 z m 40.944279,-1.76865 c 0,-0.0572 0.18477,-0.17489 0.41061,-0.26156 0.23546,-0.0904 0.34167,-0.046 0.24897,0.10399 -0.15538,0.25141 -0.65958,0.37185 -0.65958,0.15757 z M 77.040479,162.2355 c -0.290566,-0.0751 -0.423858,-0.27743 -0.335136,-0.50863 0.09072,-0.23642 -0.07969,-0.47519 -0.443593,-0.62155 -0.402801,-0.162 -0.453824,-0.24299 -0.160282,-0.25442 0.236843,-0.009 0.578843,0.16182 0.760001,0.3801 0.181157,0.21828 0.23251,0.39687 0.114118,0.39687 -0.118392,0 0.01586,0.17481 0.298333,0.38846 0.541156,0.40932 0.532693,0.41726 -0.233441,0.21917 z m 46.934381,-0.63228 c 0.36405,-0.51126 0.77814,-0.7691 1.23518,-0.7691 0.82056,0 0.69586,0.21087 -0.21047,0.3559 -0.39799,0.0637 -0.6184,0.25657 -0.57499,0.50318 0.0387,0.21994 -0.16985,0.46272 -0.46348,0.53951 -0.53057,0.13875 -0.53049,0.13484 0.0138,-0.62949 z m -48.436308,-1.34236 c 0,-0.12127 0.112036,-0.22049 0.248968,-0.22049 0.136933,0 0.310289,0.0992 0.385237,0.22049 0.07495,0.12127 -0.03709,0.22049 -0.248969,0.22049 -0.21188,0 -0.385236,-0.0992 -0.385236,-0.22049 z m 49.344798,0.0441 c 0.0899,-0.14552 0.48392,-0.25622 0.87551,-0.24599 0.63575,0.0166 0.65532,0.0429 0.18282,0.24599 -0.73507,0.31587 -1.25355,0.31587 -1.05833,0 z m -49.723391,-0.82333 c 0.09999,-0.1618 0.01772,-0.3981 -0.182822,-0.52512 -0.249828,-0.15824 -0.263431,-0.23223 -0.04321,-0.235 0.176781,-0.002 0.448861,0.23407 0.604622,0.52511 0.228153,0.42631 0.201213,0.52917 -0.138597,0.52917 -0.242103,0 -0.344347,-0.12532 -0.239996,-0.29416 z m -0.993933,-1.73866 c 0.190996,-0.0764 0.419199,-0.067 0.507118,0.0209 0.08792,0.0879 -0.06835,0.15046 -0.347266,0.13897 -0.308224,-0.0127 -0.370919,-0.0754 -0.159852,-0.15985 z m 52.387504,0 c 0.19099,-0.0764 0.4192,-0.067 0.50712,0.0209 0.0879,0.0879 -0.0683,0.15046 -0.34727,0.13897 -0.30822,-0.0127 -0.37092,-0.0754 -0.15985,-0.15985 z M 73.901443,157.2138 c 0.190996,-0.0764 0.419199,-0.067 0.507118,0.0209 0.08792,0.0879 -0.06835,0.15045 -0.347266,0.13896 -0.308224,-0.0127 -0.370919,-0.0754 -0.159852,-0.15985 z m 52.916667,0 c 0.191,-0.0764 0.4192,-0.067 0.50712,0.0209 0.0879,0.0879 -0.0684,0.15045 -0.34726,0.13896 -0.30823,-0.0127 -0.37092,-0.0754 -0.15986,-0.15985 z m -53.756488,-1.20147 c 0.07273,-0.11768 0.272846,-0.14367 0.444691,-0.0577 0.171846,0.0859 0.08133,-0.0312 -0.201143,-0.26027 -0.419633,-0.3403 -0.436913,-0.4165 -0.09445,-0.4165 0.230525,0 0.491406,0.18833 0.579736,0.41852 0.227893,0.59388 0.217224,0.61119 -0.350238,0.56845 -0.28096,-0.0212 -0.451327,-0.13477 -0.378593,-0.25246 z m -1.359528,-4.43867 c -0.291042,-0.12507 -0.469636,-0.24487 -0.396875,-0.26624 0.71465,-0.20981 1.058333,-0.15871 1.058333,0.15736 0,0.2054 -0.02977,0.36509 -0.06615,0.35486 -0.03638,-0.0102 -0.304271,-0.12092 -0.595312,-0.24598 z m -0.24495,-2.29321 c -0.0931,-0.24261 -0.04631,-0.56408 0.103984,-0.71437 0.187954,-0.18795 0.273257,-0.0503 0.273257,0.44112 0,0.8162 -0.132159,0.91193 -0.377241,0.27325 z m 57.791826,-0.37655 c 0,-0.29506 0.11763,-0.46378 0.2614,-0.37493 0.16677,0.10308 0.19959,-0.28932 0.0907,-1.08406 -0.12483,-0.91073 -0.0884,-1.19473 0.13548,-1.05636 0.16842,0.10409 0.30621,0.0433 0.30621,-0.13504 0,-0.17837 0.0733,-0.251 0.16289,-0.16141 0.0896,0.0896 0.0362,0.52614 -0.11853,0.97013 -0.17937,0.51453 -0.18708,0.80726 -0.0213,0.80726 0.16887,0 0.1673,0.17346 -0.004,0.49438 -0.14552,0.27191 -0.20411,0.55485 -0.13019,0.62877 0.0739,0.0739 -0.0493,0.2049 -0.27389,0.29107 -0.28529,0.10947 -0.40831,-0.005 -0.40831,-0.37981 z m -58.340626,-1.05028 c 0,-0.86263 0.123138,-1.34845 0.365341,-1.44139 0.290928,-0.11164 0.329383,0.0847 0.1888,0.96383 -0.269526,1.68552 -0.554141,1.93081 -0.554141,0.47756 z m 0.03957,-6.15103 c 0.10491,-2.04741 0.199043,-2.47616 0.543649,-2.47616 0.18855,0 0.342817,0.22531 0.342817,0.50069 0,0.29036 -0.119733,0.42668 -0.285032,0.32452 -0.196666,-0.12154 -0.230736,0.18591 -0.109895,0.99174 0.125914,0.83965 0.07346,1.25227 -0.186617,1.46812 -0.297337,0.24677 -0.351634,0.10272 -0.304922,-0.80891 z m 58.565646,-0.16748 c 0,-0.42798 0.11906,-0.85172 0.26458,-0.94166 0.14552,-0.0899 0.26458,0.0719 0.26458,0.35962 0,0.28773 0.0723,0.71147 0.1606,0.94165 0.10539,0.27464 0.0144,0.41852 -0.26458,0.41852 -0.29414,0 -0.42518,-0.23982 -0.42518,-0.77813 z m -0.26459,-1.8677 c 0,-0.49389 0.0706,-0.56445 0.3175,-0.3175 0.24695,0.24694 0.24695,0.38805 0,0.635 -0.24694,0.24694 -0.3175,0.17639 -0.3175,-0.3175 z M 70.776048,126.70282 v -12.17083 h 12.170833 c 11.285715,0 12.836498,0.0865 11.901934,0.66413 -0.147894,0.0914 -0.200399,0.27702 -0.116676,0.41249 0.08372,0.13546 -0.04798,0.2463 -0.292665,0.2463 -0.36859,0 -0.38749,-0.0692 -0.110203,-0.40327 0.393208,-0.47379 0.18616,-0.78515 -0.378113,-0.56862 -0.229086,0.0879 -0.351663,0.38011 -0.291186,0.69414 0.06361,0.33031 -0.03509,0.54233 -0.252471,0.54233 -0.234115,0 -0.306115,-0.19425 -0.209269,-0.56459 0.106453,-0.40708 0.04418,-0.5297 -0.223208,-0.43954 -0.203968,0.0688 -0.356595,0.38237 -0.339171,0.69688 0.0185,0.33402 -0.125534,0.57183 -0.346344,0.57183 -0.236224,0 -0.300522,-0.12406 -0.171412,-0.33073 0.352373,-0.56405 0.323677,-0.99218 -0.0665,-0.99218 -0.238571,0 -0.373464,0.28669 -0.373464,0.79375 0,0.43656 -0.102552,0.79375 -0.227893,0.79375 -0.125341,0 -0.170992,-0.29766 -0.101447,-0.66146 0.07381,-0.38612 0.0035,-0.66146 -0.168982,-0.66146 -0.162485,0 -0.295428,0.36993 -0.295428,0.82206 0,0.60557 -0.100014,0.78368 -0.37978,0.67632 -0.20888,-0.0802 -0.427491,-0.0631 -0.485803,0.0378 -0.05831,0.10096 -0.07702,0.0537 -0.04157,-0.10501 0.03545,-0.15871 -0.04178,-0.45637 -0.171604,-0.66145 -0.181403,-0.28656 -0.23699,-0.2927 -0.240104,-0.0265 -0.0022,0.19049 -0.112369,0.2794 -0.244758,0.19758 -0.483867,-0.29905 -1.082144,0.18563 -1.078158,0.87344 0.0031,0.52815 0.06354,0.60526 0.247125,0.31506 0.13369,-0.21133 0.17231,-0.50899 0.08582,-0.66146 -0.0884,-0.15583 -0.05179,-0.18067 0.0836,-0.0567 0.325796,0.29824 0.318635,0.79514 -0.01488,1.03223 -0.491716,0.34957 -0.669976,0.21414 -0.691198,-0.52511 -0.01149,-0.40018 -0.08119,-0.57804 -0.15489,-0.39523 -0.0737,0.18281 -0.242895,0.26508 -0.375987,0.18283 -0.133092,-0.0823 -0.241985,-0.0272 -0.241985,0.12233 0,0.14955 -0.177827,0.20366 -0.395172,0.12026 -0.253,-0.0971 -0.484939,0.0725 -0.644687,0.47132 -0.137234,0.34263 -0.257063,0.46995 -0.266287,0.28293 -0.02622,-0.53164 -1.074233,0.12881 -1.079156,0.68008 -0.0028,0.3149 -0.06654,0.35537 -0.208307,0.13228 -0.149351,-0.23504 -0.509626,-0.11927 -1.340293,0.43065 -0.62482,0.41365 -1.117465,0.82916 -1.094765,0.92336 0.0227,0.0942 -0.01779,0.31712 -0.08998,0.49539 -0.09176,0.2266 -0.137531,0.21227 -0.152135,-0.0476 -0.01614,-0.28718 -0.141254,-0.26281 -0.550055,0.10715 -0.291041,0.26339 -0.529166,0.62445 -0.529166,0.80236 0,0.17791 -0.198087,0.48688 -0.440193,0.6866 -0.402337,0.33189 -0.411057,0.30624 -0.101394,-0.29834 0.217554,-0.42474 -0.193028,-0.14392 -1.147308,0.78472 -1.64418,1.59999 -1.830681,1.88317 -0.79207,1.20264 0.381719,-0.25011 0.609835,-0.31851 0.506925,-0.152 -0.10291,0.16651 -0.670356,0.60781 -1.260992,0.98066 -0.819911,0.51759 -0.986729,0.73311 -0.705363,0.91127 0.308572,0.1954 0.303959,0.23912 -0.02836,0.26874 -0.218282,0.0195 -0.462467,0.0292 -0.542634,0.0216 -0.08017,-0.008 -0.297317,0.2289 -0.482554,0.52552 -0.276664,0.44301 -0.27426,0.503 0.01347,0.33604 0.192644,-0.1118 0.0044,0.12524 -0.418231,0.52674 -0.616229,0.58536 -0.694863,0.77661 -0.396875,0.96526 0.300862,0.19048 0.285232,0.23605 -0.08209,0.23933 -0.551263,0.005 -1.211713,1.05293 -0.680077,1.07915 0.187021,0.009 0.0597,0.12905 -0.282928,0.26629 -0.398841,0.15975 -0.56841,0.39169 -0.471324,0.64469 0.0834,0.21734 0.02929,0.39517 -0.120253,0.39517 -0.149542,0 -0.204595,0.10889 -0.12234,0.24198 0.08226,0.13309 -1.5e-5,0.30229 -0.182822,0.37599 -0.182808,0.0737 -0.005,0.1434 0.395226,0.15489 0.73925,0.0212 0.874677,0.19948 0.525115,0.6912 -0.237093,0.33351 -0.733991,0.34067 -1.032233,0.0149 -0.123943,-0.13539 -0.0991,-0.172 0.05673,-0.0836 0.152469,0.0865 0.450125,0.0479 0.661458,-0.0858 0.290201,-0.18358 0.213093,-0.24407 -0.315054,-0.24713 -0.687813,-0.004 -1.172493,0.59429 -0.873447,1.07816 0.08182,0.13239 -0.0071,0.24253 -0.197579,0.24476 -0.266161,0.003 -0.260017,0.0587 0.02654,0.2401 0.205084,0.12983 0.502741,0.20705 0.661458,0.17161 0.158717,-0.0354 0.205968,-0.0167 0.105003,0.0416 -0.100966,0.0583 -0.117993,0.27692 -0.03784,0.4858 0.107357,0.27977 -0.07075,0.37978 -0.676322,0.37978 -0.452131,0 -0.822057,0.13295 -0.822057,0.29543 0,0.17245 0.275339,0.24279 0.661458,0.16898 0.363802,-0.0695 0.661459,-0.0239 0.661459,0.10145 0,0.12534 -0.357188,0.22789 -0.79375,0.22789 -0.512874,0 -0.79375,0.13424 -0.79375,0.37936 0,0.26024 0.207691,0.34169 0.661458,0.25941 0.363802,-0.066 0.661458,-0.0141 0.661458,0.11534 0,0.12941 -0.257325,0.22104 -0.571835,0.20362 -0.314509,-0.0174 -0.628105,0.1352 -0.69688,0.33917 -0.09016,0.26738 0.03247,0.32966 0.439543,0.2232 0.370339,-0.0968 0.564589,-0.0248 0.564589,0.20927 0,0.21738 -0.212019,0.31609 -0.542328,0.25247 -0.31403,-0.0605 -0.606236,0.0621 -0.694144,0.29119 -0.216532,0.56427 0.09483,0.77132 0.56862,0.37811 0.33411,-0.27728 0.403269,-0.25838 0.403269,0.11021 0,0.24468 -0.110836,0.37638 -0.246301,0.29266 -0.135466,-0.0837 -0.321086,-0.0312 -0.41249,0.11668 -0.577593,0.93456 -0.664126,-0.61622 -0.664126,-11.90194 z m 1.984375,7.40834 c -0.08994,-0.14552 -0.335089,-0.26459 -0.544782,-0.26459 -0.209693,0 -0.38126,0.11907 -0.38126,0.26459 0,0.14552 0.245152,0.26458 0.544782,0.26458 0.29963,0 0.471197,-0.11906 0.38126,-0.26458 z m 17.750472,-18.45335 c -0.289031,-0.28903 -0.487224,0.17062 -0.279712,0.64871 0.196765,0.45332 0.211028,0.45291 0.320658,-0.009 0.0631,-0.26605 0.04468,-0.55379 -0.04095,-0.63941 z m 38.936515,22.84753 c -0.25466,-0.19331 -0.46302,-0.4461 -0.46302,-0.56175 0,-0.11566 0.23812,0.005 0.52917,0.26861 0.40255,0.36431 0.52819,0.38994 0.52511,0.10715 -0.005,-0.44377 -0.38341,-1.08757 -0.62084,-1.05579 -0.48526,0.0649 -0.69802,-0.001 -0.69802,-0.21722 0,-0.13189 0.25406,-0.17337 0.56459,-0.0922 0.40671,0.10636 0.53002,0.0439 0.44097,-0.2232 -0.068,-0.20397 -0.26253,-0.38574 -0.4323,-0.40393 -0.16977,-0.0182 -0.42774,-0.048 -0.57326,-0.0661 -0.14552,-0.0182 -0.26459,-0.15917 -0.26459,-0.31327 0,-0.15797 0.14428,-0.19007 0.33073,-0.0736 0.53568,0.33465 1.03011,0.33564 0.92062,0.002 -0.0558,-0.17023 -0.41977,-0.34719 -0.80873,-0.39323 -0.38896,-0.0461 -0.7072,-0.17838 -0.7072,-0.29405 0,-0.11568 0.29766,-0.15342 0.66146,-0.0839 0.38612,0.0738 0.66146,0.003 0.66146,-0.16898 0,-0.16248 -0.35719,-0.29543 -0.79375,-0.29543 -0.43657,0 -0.79375,-0.10255 -0.79375,-0.22789 0,-0.12534 0.28974,-0.1725 0.64387,-0.10481 0.54767,0.1047 0.62213,0.0399 0.49831,-0.43356 -0.0801,-0.30616 -0.25777,-0.55665 -0.39491,-0.55665 -0.13713,0 -0.18239,-0.10832 -0.10057,-0.24071 0.29904,-0.48387 -0.18564,-1.08214 -0.87345,-1.07816 -0.54868,0.003 -0.61381,0.0593 -0.30242,0.26053 0.21828,0.14107 0.27781,0.26209 0.13229,0.26895 -0.14552,0.007 -0.0335,0.18727 0.24901,0.40093 0.39854,0.30144 0.42287,0.38846 0.10861,0.38846 -0.22273,0 -0.54314,-0.30326 -0.71202,-0.67391 -0.41332,-0.90714 -0.41063,-0.91302 0.42055,-0.91764 0.40018,-0.002 0.60854,-0.0915 0.46302,-0.19844 -0.14552,-0.10691 -0.26459,-0.37298 -0.26459,-0.59126 0,-0.24602 -0.35199,-0.45907 -0.92604,-0.56049 -0.92489,-0.1634 -0.92505,-0.16368 -0.13229,-0.22913 0.55318,-0.0457 0.64178,-0.10443 0.29233,-0.19391 -0.40289,-0.10317 -0.42889,-0.17433 -0.1323,-0.36213 0.28562,-0.18086 0.24941,-0.23557 -0.16003,-0.24184 -0.40166,-0.006 -0.44195,-0.0634 -0.16721,-0.23741 0.29221,-0.18511 0.25397,-0.33729 -0.19844,-0.7897 -0.30821,-0.30821 -0.47109,-0.56418 -0.36195,-0.56881 0.10914,-0.005 0.008,-0.15345 -0.2247,-0.33073 -0.23272,-0.17727 -0.42467,-0.44137 -0.42656,-0.58689 -0.002,-0.14553 -0.26007,-0.39568 -0.57374,-0.55591 -0.79118,-0.40413 -1.0693,-0.7562 -0.42865,-0.54261 0.35934,0.1198 0.25604,-0.0577 -0.32191,-0.55316 -0.46809,-0.40126 -1.12912,-0.9677 -1.46895,-1.25874 -0.33983,-0.29104 -0.4331,-0.39845 -0.20726,-0.23868 1.11679,0.79005 1.08436,0.58659 -0.10259,-0.64356 -1.22572,-1.27032 -2.00846,-1.68521 -1.18291,-0.627 0.20526,0.26312 0.13508,0.20035 -0.15596,-0.13948 -0.29104,-0.33983 -0.85748,-1.00086 -1.25875,-1.46895 -0.51112,-0.59625 -0.68094,-0.69264 -0.56716,-0.32191 0.0949,0.30904 -0.0542,0.19898 -0.3583,-0.26459 -0.62268,-0.94918 -2.17224,-1.93891 -2.19819,-1.40402 -0.009,0.19013 -0.1344,0.0509 -0.27817,-0.3094 -0.21346,-0.53496 -0.30668,-0.58348 -0.50834,-0.26458 -0.20113,0.31805 -0.24845,0.29232 -0.25505,-0.13866 -0.006,-0.40945 -0.061,-0.44566 -0.24184,-0.16004 -0.1878,0.29659 -0.25897,0.2706 -0.36213,-0.13229 -0.0895,-0.34946 -0.14825,-0.26086 -0.19392,0.29233 -0.0655,0.79366 -0.0655,0.79365 -0.23159,-0.1323 -0.11878,-0.66232 -0.29723,-0.91557 -0.62663,-0.88929 -0.25331,0.0202 -0.47464,-0.0988 -0.49186,-0.26458 -0.0172,-0.16574 -0.1222,0.0559 -0.23328,0.49242 l -0.20198,0.79375 -0.0313,-0.83159 c -0.0305,-0.81059 -0.59878,-1.32386 -1.11351,-1.00574 -0.13239,0.0818 -0.24253,-0.007 -0.24476,-0.19758 -0.003,-0.25167 -0.0742,-0.23786 -0.26053,0.0505 -0.21919,0.33917 -0.25707,0.32955 -0.26054,-0.0661 -0.002,-0.25466 -0.13699,-0.46302 -0.29948,-0.46302 -0.17245,0 -0.24279,0.27534 -0.16898,0.66146 0.0695,0.3638 0.0239,0.66146 -0.10144,0.66146 -0.12534,0 -0.2279,-0.35719 -0.2279,-0.79375 0,-0.43656 -0.13294,-0.79375 -0.29543,-0.79375 -0.17245,0 -0.24279,0.27534 -0.16898,0.66146 0.0696,0.3638 0.0318,0.66146 -0.0839,0.66146 -0.11568,0 -0.24799,-0.31824 -0.29404,-0.7072 -0.046,-0.38896 -0.223,-0.75289 -0.39323,-0.80873 -0.3338,-0.10949 -0.33281,0.38494 0.002,0.92061 0.11648,0.18645 0.0844,0.33073 -0.0736,0.33073 -0.15411,0 -0.29508,-0.11906 -0.31327,-0.26458 -0.0182,-0.14552 -0.048,-0.40349 -0.0662,-0.57326 -0.0182,-0.16978 -0.19995,-0.36431 -0.40392,-0.4323 -0.26715,-0.0891 -0.32956,0.0343 -0.22321,0.44097 0.0956,0.36548 0.0247,0.56459 -0.20106,0.56459 -0.19178,0 -0.31656,-0.20836 -0.27729,-0.46302 0.0757,-0.49092 -0.28623,-0.84914 -0.86473,-0.85585 -0.25659,-0.003 -0.23564,0.10994 0.0787,0.42433 0.2356,0.2356 0.36194,0.4948 0.28075,0.57599 -0.15352,0.15352 -0.91275,-0.72278 -0.9275,-1.07051 -0.005,-0.10914 5.46846,-0.19844 12.16242,-0.19844 h 12.17084 v 12.17083 c 0,6.69396 -0.0893,12.16705 -0.19844,12.16242 -0.10914,-0.005 -0.4068,-0.16658 -0.66146,-0.3599 z m -56.339721,-5.36867 c 0.190996,-0.0764 0.419199,-0.067 0.507118,0.0209 0.08792,0.0879 -0.06835,0.15046 -0.347266,0.13897 -0.308224,-0.0127 -0.370919,-0.0754 -0.159852,-0.15985 z m 0.79375,-1.85209 c 0.190996,-0.0764 0.419199,-0.067 0.507118,0.0209 0.08792,0.0879 -0.06835,0.15045 -0.347266,0.13897 -0.308224,-0.0127 -0.370919,-0.0754 -0.159852,-0.15986 z m 52.916671,0 c 0.191,-0.0764 0.4192,-0.067 0.50712,0.0209 0.0879,0.0879 -0.0684,0.15045 -0.34726,0.13897 -0.30823,-0.0127 -0.37092,-0.0754 -0.15986,-0.15986 z m -52.652088,-0.52916 c 0.190996,-0.0764 0.419199,-0.067 0.507118,0.0209 0.08792,0.0879 -0.06835,0.15046 -0.347266,0.13897 -0.308224,-0.0127 -0.370919,-0.0754 -0.159852,-0.15985 z m 52.387508,0 c 0.19099,-0.0764 0.4192,-0.067 0.50712,0.0209 0.0879,0.0879 -0.0683,0.15046 -0.34727,0.13897 -0.30822,-0.0127 -0.37092,-0.0754 -0.15985,-0.15985 z m -52.531301,-0.53178 c 0.257431,-0.0671 0.614619,-0.0627 0.79375,0.01 0.179132,0.0725 -0.03149,0.12736 -0.468056,0.12197 -0.436563,-0.005 -0.583125,-0.0647 -0.325694,-0.13177 z m 0.954904,-0.56068 c 0.200544,-0.14033 0.282814,-0.38751 0.182822,-0.54931 -0.103085,-0.16679 -0.0068,-0.29416 0.222382,-0.29416 0.22812,0 0.345217,-0.15367 0.268813,-0.35278 -0.07659,-0.1996 0.04105,-0.35278 0.270949,-0.35278 0.342037,0 0.325054,0.12836 -0.107341,0.81128 -0.282516,0.4462 -0.668597,0.85214 -0.857958,0.90209 -0.254158,0.067 -0.248835,0.024 0.02033,-0.16434 z m 50.567677,-0.3143 c -0.22816,-0.42631 -0.20122,-0.52917 0.13859,-0.52917 0.24211,0 0.34435,0.12532 0.24,0.29416 -0.1,0.1618 -0.0177,0.3981 0.18282,0.52512 0.24983,0.15824 0.26343,0.23223 0.0432,0.235 -0.17678,0.002 -0.44886,-0.23407 -0.60462,-0.52511 z m -0.71747,-1.12448 c -0.1392,-0.1819 -0.57923,-0.77013 -0.97784,-1.30718 l -0.72474,-0.97645 0.68096,0.31499 c 0.37453,0.17325 0.62962,0.45209 0.56687,0.61965 -0.0627,0.16756 0.14557,0.38393 0.46292,0.48083 0.44199,0.13494 0.48468,0.21309 0.18246,0.33397 -0.27,0.10799 -0.10295,0.26307 0.52916,0.49124 0.85287,0.30784 0.87039,0.33496 0.22851,0.35355 -0.38236,0.0111 -0.8091,-0.1287 -0.9483,-0.3106 z m -48.928356,-0.64707 c 0.281813,-0.28181 0.985119,-0.33122 0.815834,-0.0573 -0.08204,0.13275 -0.340577,0.24136 -0.574524,0.24136 -0.233946,0 -0.342536,-0.0828 -0.24131,-0.18405 z m 0.699962,-0.80814 c 0.0011,-0.10914 0.313306,-0.34291 0.693712,-0.5195 0.676317,-0.31394 0.681227,-0.30954 0.221512,0.19844 -0.477127,0.52722 -0.918981,0.68222 -0.915224,0.32106 z m 1.056269,-1.52135 c 0.181157,-0.21829 0.468102,-0.39688 0.637655,-0.39688 0.387843,0 2.801928,-2.43048 2.801928,-2.82096 0,-0.15909 0.178594,-0.43747 0.396875,-0.61862 0.320578,-0.26606 0.396875,-0.2583 0.396875,0.0404 0,0.47286 -3.731499,4.19296 -4.205806,4.19296 -0.287249,0 -0.292622,-0.0775 -0.02753,-0.39687 z m 43.267285,-1.71185 c -1.153,-1.1598 -2.01629,-2.1888 -1.91842,-2.28666 0.22595,-0.22595 0.98448,0.39021 0.98448,0.7997 0,0.38785 2.43048,2.80193 2.82096,2.80193 0.15908,0 0.43746,0.17859 0.61862,0.39688 0.26602,0.32054 0.25834,0.39687 -0.04,0.39687 -0.20313,0 -1.31269,-0.94893 -2.46568,-2.10872 z m -37.975619,0.51292 c 0,-0.14096 0.178594,-0.25628 0.396875,-0.25628 0.218282,0 0.396875,0.0468 0.396875,0.10398 0,0.0572 -0.178593,0.17252 -0.396875,0.25628 -0.218281,0.0838 -0.396875,0.037 -0.396875,-0.10398 z m 33.723499,-0.27389 c -0.28476,-0.46075 0.0396,-0.55833 0.40245,-0.12108 0.20869,0.25146 0.22877,0.40327 0.0533,0.40327 -0.15475,0 -0.35984,-0.12698 -0.45577,-0.28219 z m -34.190048,-2.69164 c 0.183842,-0.39217 0.377843,-0.58617 0.431114,-0.43112 0.05327,0.15506 -0.09714,0.47592 -0.334257,0.71304 -0.39843,0.39842 -0.405773,0.37705 -0.09686,-0.28192 z m 35.747448,-0.0803 c -0.0862,-0.22456 -0.0976,-0.4674 -0.0253,-0.53966 0.0723,-0.0723 0.19488,0.11147 0.2725,0.40829 0.16488,0.63048 -0.0183,0.72784 -0.2472,0.13137 z m -34.836092,-0.59887 c 0.09462,-0.37518 0.293393,-0.55674 0.516007,-0.47132 0.211996,0.0814 0.362103,-0.0339 0.362103,-0.27793 0,-0.26185 0.147583,-0.36024 0.396875,-0.26458 0.239328,0.0918 0.396875,0.001 0.396875,-0.22797 0,-0.22931 0.157547,-0.31981 0.396875,-0.22797 0.218281,0.0838 0.396875,0.0135 0.396875,-0.15621 0,-0.16968 0.110959,-0.23993 0.246576,-0.15612 0.135617,0.0838 0.296371,-0.17705 0.357232,-0.57969 l 0.110656,-0.73209 0.03964,0.70246 c 0.03249,0.57576 -0.187032,0.8353 -1.217128,1.43898 -0.691224,0.40508 -1.281411,0.68429 -1.311527,0.62045 -0.03012,-0.0638 -0.232553,0.12206 -0.449861,0.41311 -0.386137,0.51715 -0.391612,0.51531 -0.241201,-0.0811 z m 33.024992,-0.46552 c -0.7276,-0.50289 -1.36175,-1.06188 -1.4092,-1.24219 -0.0551,-0.20924 0.006,-0.19594 0.16885,0.0368 0.14033,0.20055 0.38752,0.28282 0.54931,0.18283 0.1668,-0.10309 0.29417,-0.007 0.29417,0.22238 0,0.25057 0.15083,0.34631 0.39687,0.25189 0.26103,-0.10017 0.4059,0.0159 0.42325,0.33903 0.0194,0.36102 0.074,0.32101 0.20581,-0.15083 0.16937,-0.60614 0.19619,-0.58759 0.47803,0.33073 0.16422,0.53509 0.27997,0.96633 0.25721,0.95831 -0.0228,-0.008 -0.63669,-0.42603 -1.3643,-0.92893 z m -22.957021,0.11693 c 0.179476,-0.18082 0.39297,-0.26212 0.474432,-0.18065 0.08146,0.0815 -0.06538,0.2294 -0.32632,0.32876 -0.377083,0.14359 -0.407474,0.1132 -0.148112,-0.14811 z m 4.237743,-0.93615 c 0.181901,-0.0734 0.479557,-0.0734 0.661458,0 0.181905,0.0734 0.03307,0.13345 -0.330729,0.13345 -0.363802,0 -0.51263,-0.0601 -0.330729,-0.13345 z m -10.760883,-1.03744 c 0.0127,-0.30823 0.07539,-0.37092 0.159853,-0.15986 0.07643,0.191 0.06703,0.4192 -0.02089,0.50712 -0.08792,0.0879 -0.150453,-0.0683 -0.138963,-0.34726 z m 26.987511,0 c 0.0127,-0.30823 0.0754,-0.37092 0.15985,-0.15986 0.0764,0.191 0.067,0.4192 -0.0209,0.50712 -0.0879,0.0879 -0.15045,-0.0683 -0.13896,-0.34726 z m -26.458344,-0.26459 c 0.0127,-0.30822 0.07539,-0.37092 0.159853,-0.15985 0.07643,0.191 0.06703,0.4192 -0.02089,0.50712 -0.08792,0.0879 -0.150453,-0.0683 -0.138965,-0.34727 z m 25.929174,0 c 0.0127,-0.30822 0.0754,-0.37092 0.15985,-0.15985 0.0764,0.191 0.067,0.4192 -0.0209,0.50712 -0.0879,0.0879 -0.15046,-0.0683 -0.13897,-0.34727 z m -1.54224,-0.28547 c -0.1819,-0.0734 -0.33073,-0.32488 -0.33073,-0.55885 0,-0.35345 0.0704,-0.33854 0.4165,0.0882 0.22907,0.28247 0.34619,0.37299 0.26026,0.20114 -0.0859,-0.17184 -0.0599,-0.37196 0.0577,-0.44469 0.11769,-0.0727 0.23129,0.0976 0.25246,0.37859 0.0391,0.51943 -0.0666,0.57352 -0.65624,0.33561 z m -22.534851,-0.50828 c 0.01269,-0.30822 0.07539,-0.37092 0.159853,-0.15985 0.07643,0.191 0.06703,0.4192 -0.02089,0.50712 -0.08792,0.0879 -0.150453,-0.0683 -0.138963,-0.34727 z m 6.152723,-1.77711 c 0,-0.18918 0.248047,-0.36223 0.551216,-0.38456 2.934307,-0.21613 3.003087,-0.21239 2.861867,0.15562 -0.10489,0.27334 -0.440627,0.3283 -1.292324,0.21156 -0.68292,-0.0936 -1.15062,-0.0522 -1.15062,0.10181 0,0.14274 -0.218281,0.25952 -0.485069,0.25952 -0.266788,0 -0.48507,-0.15478 -0.48507,-0.34395 z m 9.151298,-0.0277 c 0.26185,-0.31551 0.14777,-0.33087 -0.75528,-0.10165 -1.04846,0.26613 -1.86953,0.1581 -1.86972,-0.246 -5e-5,-0.1137 0.68423,-0.20674 1.52062,-0.20674 1.09524,0 1.65047,0.12955 1.98447,0.46302 0.44183,0.44113 0.4247,0.46302 -0.36239,0.46302 -0.67943,0 -0.77137,-0.066 -0.5177,-0.37165 z"
       id="path40"
       inkscape:connector-curvature="0" />
  </g>
</svg>
