<?xml version="1.0" encoding="UTF-8" standalone="no"?>
<!-- Created with Inkscape (http://www.inkscape.org/) -->

<svg
   xmlns:dc="http://purl.org/dc/elements/1.1/"
   xmlns:cc="http://creativecommons.org/ns#"
   xmlns:rdf="http://www.w3.org/1999/02/22-rdf-syntax-ns#"
   xmlns:svg="http://www.w3.org/2000/svg"
   xmlns="http://www.w3.org/2000/svg"
   xmlns:sodipodi="http://sodipodi.sourceforge.net/DTD/sodipodi-0.dtd"
   xmlns:inkscape="http://www.inkscape.org/namespaces/inkscape"
   width="210mm"
   height="297mm"
   viewBox="0 0 210 297"
   version="1.1"
   id="svg8"
   inkscape:version="0.92.4 (5da689c313, 2019-01-14)"
   sodipodi:docname="cv2.svg">
  <defs
     id="defs2" />
  <sodipodi:namedview
     id="base"
     pagecolor="#ffffff"
     bordercolor="#666666"
     borderopacity="1.0"
     inkscape:pageopacity="0.0"
     inkscape:pageshadow="2"
     inkscape:zoom="0.35"
     inkscape:cx="400"
     inkscape:cy="560"
     inkscape:document-units="mm"
     inkscape:current-layer="layer1"
     showgrid="false"
     inkscape:window-width="1440"
     inkscape:window-height="838"
     inkscape:window-x="-8"
     inkscape:window-y="-8"
     inkscape:window-maximized="1" />
  <metadata
     id="metadata5">
    <rdf:RDF>
      <cc:Work
         rdf:about="">
        <dc:format>image/svg+xml</dc:format>
        <dc:type
           rdf:resource="http://purl.org/dc/dcmitype/StillImage" />
        <dc:title></dc:title>
      </cc:Work>
    </rdf:RDF>
  </metadata>
  <g
     inkscape:label="Capa 1"
     inkscape:groupmode="layer"
     id="layer1">
    <path
       style="fill:#000000;stroke-width:1.10226083"
       d="m 2.7403438,236.73783 c 0,-33.29969 0.3115577,-60.52608 0.6923235,-60.50306 1.2132078,0.0732 4.2705271,3.8502 3.7349083,4.61389 -0.2832622,0.40394 -1.1963028,-0.23679 -2.0289495,-1.42422 -1.4031413,-2.00064 -1.482939,-1.80258 -1.0906734,2.70687 0.432687,4.97411 0.9687869,6.43972 2.4617182,6.72998 0.4653957,0.0906 1.2615694,0.23829 1.7692749,0.32882 0.5077054,0.0905 0.9231007,0.79181 0.9231007,1.55845 0,0.78578 -0.5033727,0.94547 -1.1538756,0.36611 -1.8689156,-1.66475 -3.593921,-1.66967 -3.2119181,-0.0108 0.1948187,0.84681 1.4645207,1.72712 2.821557,1.95616 1.3570363,0.22933 2.4673392,0.88736 2.4673392,1.46277 0,0.57546 -1.0384917,0.76321 -2.3077542,0.41738 -1.3471234,-0.36714 -2.30775,-0.0154 -2.30775,0.8406 0,0.80827 1.2461835,1.46965 2.769301,1.46965 1.5231138,0 2.7693022,0.51013 2.7693022,1.13364 0,0.62353 -1.038487,0.85061 -2.3077501,0.50469 -1.347128,-0.36714 -2.3077535,-0.0154 -2.3077535,0.8406 0,0.80828 0.7269425,1.4787 1.6154265,1.48979 1.3805407,0.0154 1.4140957,0.20545 0.2307898,1.29603 -1.0061482,0.9271 -1.0543408,1.2814 -0.1762933,1.29603 0.6645931,0.0108 0.974794,0.559 0.6893292,1.21758 -1.1098868,2.56057 0.680846,5.38747 3.5089074,5.53927 l 2.901314,0.15567 -2.769302,1.00472 c -1.523117,0.55264 -2.296212,1.07482 -1.717992,1.16046 0.578219,0.0856 0.993617,1.18675 0.923099,2.44681 -0.09169,1.63863 0.791865,2.52636 3.102643,3.11724 3.201978,0.81876 3.206107,0.82851 0.461552,1.09191 -2.416248,0.23183 -2.533931,0.40991 -0.923101,1.39696 1.015409,0.62214 1.31234,1.17281 0.659846,1.22366 -1.851396,0.14425 0.446794,5.35291 2.37271,5.37744 1.250202,0.0154 1.317493,0.26016 0.320105,1.16087 -1.023137,0.92416 -0.906328,1.64898 0.6154,3.81873 1.033032,1.47293 1.658306,2.99162 1.389501,3.37491 -0.268783,0.38306 0.908153,1.97637 2.615452,3.54023 1.707304,1.56381 2.273396,2.47973 1.257983,2.0354 -1.822952,-0.79782 0.729003,2.85488 6.156551,8.81199 2.091643,2.29573 2.07449,2.29836 -0.617949,0.095 -2.136976,-1.7487 -1.617235,-0.55983 2.276219,5.20687 6.041044,8.94754 7.049829,9.59139 3.352753,2.13992 -0.557408,-1.12342 -0.182679,-0.65949 0.832731,1.03102 1.015411,1.69052 2.991637,4.97887 4.391614,7.30743 1.728531,2.87506 2.347879,3.38898 1.929899,1.60137 -0.753633,-3.22308 0.476831,-1.79791 1.968587,2.28005 0.600511,1.64161 1.577122,2.83665 2.170245,2.6557 0.59313,-0.18109 1.078412,0.36215 1.078412,1.20654 0,0.84452 0.232882,1.2035 0.517494,0.79766 0.284626,-0.40591 1.556368,0.74341 2.826102,2.55385 2.210483,3.15181 2.361559,3.18842 3.554599,0.86206 0.685298,-1.33629 1.023209,-2.94363 0.750913,-3.5718 -0.272308,-0.62821 -0.852191,-0.33878 -1.288658,0.64356 -0.618195,1.3911 -0.7967,1.27672 -0.807709,-0.51756 -0.01779,-2.90388 1.229421,-2.95381 2.872909,-0.11493 0.987689,1.70606 1.012601,2.31041 0.11303,2.7421 -0.634632,0.30444 -1.147514,1.54089 -1.139741,2.74738 0.01158,1.77916 0.168232,1.84665 0.829612,0.35716 0.655221,-1.47541 0.903508,-1.34607 1.263435,0.65809 0.312186,1.73843 0.517242,1.29768 0.676557,-1.45417 0.228314,-3.94365 0.229324,-3.94287 0.799403,0.6581 0.35384,2.85567 1.097128,4.60667 1.955462,4.60667 0.761556,0 1.689834,0.59232 2.062841,1.31622 0.373004,0.72391 0.68455,-0.31242 0.692322,-2.30334 0.01604,-4.13477 0.03666,-4.14821 3.201555,-2.09207 1.29315,0.84012 2.351185,2.43404 2.351185,3.54206 0,1.57984 -0.313581,1.46323 -1.453105,-0.54032 -0.79921,-1.40519 -1.207828,-1.85549 -0.908045,-1.0006 0.2998,0.85484 0.05871,1.98288 -0.535724,2.50671 -0.594431,0.52381 -0.836312,0.3885 -0.537516,-0.30098 0.298789,-0.68932 0.16164,-2.11351 -0.30479,-3.16478 -0.640499,-1.44362 -0.851516,-1.06004 -0.862191,1.56725 -0.01398,3.42161 2.073412,5.83271 3.76157,4.34505 0.46189,-0.40692 0.839798,-0.18207 0.839798,0.50035 0,0.68216 0.873937,1.5662 1.942084,1.96446 1.651919,0.61595 1.877925,0.24573 1.512659,-2.47889 -0.236196,-1.76166 -0.07162,-3.20298 0.365664,-3.20298 0.4373,0 0.795092,1.77687 0.795092,3.94858 0,2.17171 0.463824,3.94856 1.030716,3.94856 0.601667,0 0.847075,-1.36969 0.589557,-3.29048 -0.242617,-1.80975 -0.110936,-3.29049 0.292613,-3.29049 0.403576,0 0.865218,1.58311 1.025868,3.51804 0.160663,1.93491 0.778029,3.74531 1.371953,4.02309 1.16457,0.54466 1.161119,-1.91491 -0.0066,-4.57965 -0.45045,-1.02811 -0.226114,-1.64526 0.598037,-1.64526 0.77038,0 1.272915,1.18301 1.208353,2.84462 -0.06077,1.56456 0.471709,3.1246 1.183327,3.46671 0.932886,0.44869 1.150147,-0.16165 0.778749,-2.18654 -0.283263,-1.54471 -0.138586,-2.8086 0.321605,-2.8086 0.750976,0 1.18623,1.839 0.979,4.13643 -0.04197,0.46511 0.739634,1.15016 1.736889,1.52201 2.049501,0.76419 2.350995,-0.41637 0.705471,-2.76285 -0.609246,-0.86865 -0.758887,-1.57942 -0.332526,-1.57942 0.858153,0 3.210909,4.0407 3.257101,5.59382 0.016,0.54294 -19.078819,0.98715 -42.43326,0.98715 H 2.7403438 Z m 90.7687302,58.5706 c 0.489279,-2.15488 6.156804,-2.44361 6.156804,-0.3139 0,1.22947 -1.056112,1.79502 -3.227815,1.72863 -1.775316,-0.0542 -3.093355,-0.69104 -2.928989,-1.41498 z m 20.497396,0.58316 c 0.24249,-0.55904 -0.0814,-1.36836 -0.71905,-1.79845 -0.63781,-0.4303 1.03459,-0.50637 3.71641,-0.16966 2.97596,0.37408 4.66335,0.12193 4.33024,-0.64649 -0.30005,-0.69256 0.30946,-1.25923 1.35487,-1.25923 2.418,0 2.41047,0.83454 -0.0244,2.69249 -2.2455,1.71351 -9.30649,2.67674 -8.65818,1.18114 z m 11.53561,0.40394 c 0.045,-1.5154 2.3895,-5.59382 3.21557,-5.59382 0.40348,0 -0.0575,1.28503 -1.02487,2.85562 -1.66126,2.69761 -1.66499,2.8068 -0.0677,1.97427 0.93001,-0.48453 2.0485,-0.88131 2.48553,-0.88131 0.43704,0 0.63462,-1.18454 0.43908,-2.63235 -0.21389,-1.58203 0.14131,-2.63241 0.88966,-2.63241 0.80665,0 1.06843,0.96407 0.7432,2.73727 -0.43419,2.36741 -0.14193,2.67867 2.16338,2.30333 2.12906,-0.34673 2.72423,-1.1623 2.95753,-4.05345 0.16049,-1.99073 0.62227,-3.61955 1.02588,-3.61955 0.40359,0 0.53525,1.48074 0.29271,3.29048 -0.25748,1.9208 -0.0104,3.2905 0.58955,3.2905 0.56691,0 1.03072,-1.84021 1.03072,-4.0894 0,-3.01248 0.34896,-3.89851 1.32501,-3.36442 0.72875,0.39895 1.51721,0.0199 1.75212,-0.84634 0.23481,-0.86424 0.38266,-0.26863 0.3283,1.32305 -0.0753,2.20921 -0.3809,2.56052 -1.29056,1.48407 -0.90995,-1.07676 -1.19174,-0.74967 -1.19174,1.38327 0,3.18797 1.15153,3.59599 2.94238,1.04259 0.67542,-0.96309 1.74356,-1.50602 2.37367,-1.20655 0.63173,0.30048 1.15199,-0.53789 1.15977,-1.86849 0.0104,-2.03954 0.15247,-2.10743 0.90896,-0.43876 0.68658,1.51475 0.89482,1.05525 0.89482,-1.97427 0,-3.02952 -0.20829,-3.48908 -0.89482,-1.97431 -0.49215,1.08585 -0.91441,1.38203 -0.9383,0.65814 -0.0244,-0.72396 -0.6534,-0.16659 -1.39881,1.23866 -1.05169,1.98263 -1.35529,2.10367 -1.35529,0.54035 0,-1.10806 1.05805,-2.70195 2.3512,-3.54207 3.1616,-2.05395 3.17701,-2.04405 3.2603,2.09208 0.0402,1.99072 0.28329,2.8755 0.54039,1.96609 0.25713,-0.9094 0.84741,-1.31867 1.31174,-0.90946 0.46434,0.40893 0.89344,-1.21592 0.95349,-3.61134 l 0.10909,-4.3553 0.70465,3.94858 0.70468,3.94858 0.10921,-4.23134 c 0.0681,-2.64027 0.74557,-4.7169 1.80155,-5.52273 1.28891,-0.98354 1.69239,-0.82415 1.69239,0.66843 0,1.09246 -0.54474,1.66181 -1.23081,1.28642 -0.82083,-0.4492 -1.23081,0.40891 -1.23081,2.57575 0,3.44759 1.58287,4.44291 2.37645,1.49427 0.25959,-0.96522 0.98181,-1.75493 1.60454,-1.75493 1.95574,0 8.98625,-7.31693 10.43909,-10.86441 0.96643,-2.35977 1.23722,-2.59201 0.88844,-0.76202 -0.34156,1.79196 0.30284,1.21754 2.01823,-1.7991 2.82003,-4.95931 6.94103,-11.5053 4.91024,-7.7997 -2.69107,4.91045 -0.27387,3.3954 3.62883,-2.2745 2.23177,-3.24238 3.63899,-5.89528 3.12712,-5.89528 -0.51189,0 -1.33587,0.44423 -1.83104,0.98715 -0.49517,0.54293 -0.1332,0.0985 0.80409,-0.98715 6.40068,-7.41414 7.97549,-9.60192 7.57568,-10.52425 -0.24909,-0.57511 0.19362,-1.39971 0.9846,-1.83239 0.79082,-0.43279 1.20623,-1.3211 0.92309,-1.97427 -0.28328,-0.65321 0.1323,-1.54163 0.92313,-1.97431 0.79083,-0.43279 1.17931,-1.38319 0.86332,-2.11222 -0.31609,-0.72901 -0.14943,-1.32548 0.37056,-1.32548 0.51981,0 1.34598,-1.06805 1.83595,-2.37342 0.68707,-1.8305 0.45272,-2.76353 -1.02447,-4.07891 -1.66061,-1.4787 -1.83998,-1.42563 -1.34888,0.39896 0.36431,1.35367 0.0711,2.10459 -0.82178,2.10459 -1.10209,0 -1.18452,-0.54241 -0.40007,-2.63241 1.03395,-2.75462 2.76931,-3.5794 2.76931,-1.31617 0,0.7239 0.72695,1.30713 1.61542,1.29604 1.38052,-0.0154 1.41409,-0.20545 0.23063,-1.29604 -1.15448,-1.06376 -1.07775,-1.30512 0.46155,-1.45179 1.25037,-0.11884 0.95246,-0.50014 -0.9231,-1.18061 l -2.7693,-1.00472 3.05456,-0.15568 c 1.77917,-0.0905 2.81636,-0.70526 2.48404,-1.47189 -0.31366,-0.7239 -0.10599,-1.31622 0.46155,-1.31622 0.56764,0 0.77533,-0.59228 0.46154,-1.31619 -0.31366,-0.7239 -0.0279,-1.38627 0.63787,-1.47192 0.66459,-0.0856 -0.0381,-0.60785 -1.56096,-1.16047 l -2.7693,-1.00473 3.23085,-0.1761 c 2.28039,-0.12436 2.84814,-0.52134 1.92991,-1.35008 -0.7155,-0.64587 -1.92995,-0.83012 -2.69876,-0.40942 -1.03543,0.56651 -1.23664,0.16557 -0.77607,-1.5456 0.34192,-1.27078 0.62181,-2.5582 0.62181,-2.86094 0,-0.30297 0.70251,-0.55044 1.56108,-0.55044 1.43923,0 1.43522,0.13123 -0.0514,1.68116 -1.46472,1.5271 -1.38734,1.70773 0.84455,1.97113 1.84819,0.21788 2.32558,-0.1985 1.92655,-1.68118 -0.29167,-1.08411 -0.17653,-1.97111 0.25608,-1.97111 0.43256,0 1.00373,-1.18455 1.26927,-2.63236 0.36563,-1.99362 0.0279,-2.63241 -1.39001,-2.63241 -1.42535,0 -1.63651,0.40593 -0.88373,1.69927 0.75491,1.29697 0.50853,1.73259 -1.04084,1.84016 -1.11647,0.0776 -1.53403,-0.1334 -0.9279,-0.46811 0.60607,-0.3348 0.8732,-1.45914 0.59355,-2.49824 -0.37454,-1.39174 0.24702,-1.88925 2.3596,-1.88925 1.57745,0 2.86809,-0.66137 2.86809,-1.46965 0,-0.85786 -0.96064,-1.20777 -2.30777,-0.8406 -1.26926,0.34574 -2.30776,0.15823 -2.30776,-0.41736 0,-0.57541 1.11031,-1.23365 2.46734,-1.46274 1.35704,-0.22883 2.62676,-1.10932 2.82156,-1.95615 0.38202,-1.66052 -1.343,-1.6556 -3.21193,0.0108 -0.65049,0.57945 -1.15387,0.41987 -1.15387,-0.36612 0,-0.76663 0.41542,-1.46794 0.92313,-1.55843 0.50769,-0.0906 1.40773,-0.2383 2.00003,-0.32884 0.59231,-0.0906 1.27104,-0.99472 1.50826,-2.00937 0.31049,-1.32892 -0.11967,-1.63944 -1.53851,-1.11034 -1.29206,0.48154 -1.96978,0.12342 -1.96978,-1.04103 0,-1.06704 0.73667,-1.57321 1.84617,-1.26857 1.01539,0.27857 1.84621,-0.004 1.84621,-0.62601 0,-0.62316 0.27808,-2.21793 0.61809,-3.54395 0.58386,-2.27766 0.50731,-2.27233 -1.38465,0.0965 -1.10153,1.37906 -2.00275,2.03665 -2.00275,1.46133 0,-1.17782 2.86037,-4.52059 3.92318,-4.58488 0.3808,-0.0249 0.69235,27.20332 0.69235,60.50301 v 60.54491 h -42.46265 c -23.35444,0 -42.44939,-0.44423 -42.43326,-0.98715 z m -36.491847,-2.96137 c -0.313785,-0.7239 0.0771,-1.31617 0.868623,-1.31617 0.791522,0 1.439126,0.59227 1.439126,1.31617 0,0.72391 -0.390876,1.31617 -0.868613,1.31617 -0.477748,0 -1.125352,-0.59226 -1.439136,-1.31617 z m 45.622887,-0.32883 c -0.69789,-3.25138 -0.44982,-4.93569 0.72687,-4.93569 1.07992,0 1.17199,0.41936 0.38789,1.76633 -0.56547,0.97148 -0.75479,2.15604 -0.42073,2.63241 0.33389,0.47608 0.33041,0.86602 -0.008,0.86602 -0.33842,0 -0.64718,-0.14818 -0.68604,-0.32881 z M 60.881534,280.72089 c -0.01188,-2.11063 -0.160312,-2.20022 -0.908962,-0.5484 -0.76472,1.68723 -0.896888,1.63938 -0.908964,-0.32881 -0.0077,-1.26683 0.414297,-2.30334 0.937935,-2.30334 1.152303,0 2.275989,3.73317 1.469719,4.88281 -0.316582,0.45119 -0.581951,-0.31441 -0.589728,-1.70201 z m 90.550886,0 c 0.0443,-1.53333 0.26307,-1.84518 0.55769,-0.79518 0.26656,0.95008 0.23377,2.08533 -0.073,2.52271 -0.30666,0.43726 -0.52493,-0.34028 -0.48485,-1.72753 z m 8.34209,-5.89102 c -0.0589,-1.12863 2.31265,-4.43284 5.27011,-7.34269 4.45341,-4.38181 5.21153,-4.79024 4.41299,-2.37766 -0.53027,1.60218 -1.44151,2.65182 -2.02501,2.33254 -0.58343,-0.31937 -1.3231,0.78574 -1.64366,2.45546 -0.48464,2.52431 -0.73602,2.70319 -1.49181,1.06158 -0.84076,-1.82607 -1.35584,-0.90359 -1.00885,1.80671 0.0809,0.63179 -0.46698,0.81266 -1.21749,0.40195 -0.81279,-0.44472 -1.53129,0.15517 -1.77687,1.48377 -0.33494,1.8114 -0.43242,1.84489 -0.51941,0.1781 z M 50.126165,271.67509 c 0,-1.05402 0.346167,-1.61132 0.769253,-1.23847 0.423086,0.3726 0.769249,1.23518 0.769249,1.91636 0,0.68118 -0.346166,1.23852 -0.769249,1.23852 -0.42309,0 -0.769253,-0.86239 -0.769253,-1.91641 z M 47.475851,270.301 c -0.391246,-1.4478 -0.913518,-3.22466 -1.160604,-3.94856 -0.247084,-0.72391 0.280576,-0.33779 1.172579,0.85785 0.892006,1.19575 1.414281,2.97263 1.160607,3.94858 -0.325023,1.25048 -0.671306,0.99712 -1.172582,-0.85787 z m -3.900623,-5.6074 c -1.077772,-3.2781 -1.052152,-3.38442 0.337933,-1.40239 0.827256,1.17952 1.352041,2.77568 1.166185,3.54704 -0.185854,0.77136 -0.862705,-0.19351 -1.504107,-2.14465 z m -3.69163,-1.84551 c -0.628284,-0.89583 -1.142338,-2.273 -1.142338,-3.06029 0,-1.85622 -8.521642,-13.83637 -9.842008,-13.83637 -0.555028,0 -1.52626,-0.88842 -2.158296,-1.97432 -0.928239,-1.5947 -0.901162,-1.97426 0.140841,-1.97426 1.750019,0 14.938449,19.07632 14.496216,20.96796 -0.256571,1.09754 -0.661923,1.06425 -1.494423,-0.12302 z m 131.784172,0.0154 c 0,-2.35229 13.01874,-20.85827 14.67355,-20.85827 1.00218,0 1.02092,0.38553 0.096,1.97426 -0.63203,1.08591 -1.63312,1.97433 -2.2247,1.97433 -1.35312,0 -9.77557,12.09064 -9.77557,14.03311 0,0.79142 -0.62311,2.17624 -1.38466,3.07739 -1.11847,1.32353 -1.38464,1.28493 -1.38464,-0.20098 z m -118.464601,-0.6767 c -0.338457,-0.48255 -0.615401,-1.77708 -0.615401,-2.8766 0,-1.0995 -0.836084,-3.26808 -1.85796,-4.81904 -1.828381,-2.77499 -1.857959,-4.41944 -1.857959,-103.28385 0,-87.830288 0.175594,-100.740693 1.396408,-102.664118 0.768025,-1.210019 1.390048,-3.634138 1.382274,-5.386936 -0.01116,-2.540622 -0.195585,-2.786467 -0.908965,-1.212556 -0.492156,1.085854 -0.901189,1.438302 -0.908962,0.783149 -0.0077,-0.655103 -0.761435,-0.359165 -1.674803,0.658139 -0.913366,1.017055 -0.682507,0.516563 0.513026,-1.112219 1.979135,-2.696377 2.974653,-2.939486 11.122445,-2.716227 l 8.948753,0.245248 -7.761895,0.741961 c -6.451905,0.6167 -7.80131,1.130674 -7.99545,3.045246 -0.206367,2.035204 0.657236,2.303333 7.418092,2.303333 5.650178,0 7.950029,-0.512629 8.792368,-1.95979 0.627399,-1.077893 1.6129,-1.626241 2.190007,-1.218575 0.577101,0.40742 0.21851,-0.238282 -0.796922,-1.435864 -1.817845,-2.143603 -1.810753,-2.173199 0.461552,-1.926213 1.269264,0.137791 2.515448,0.139785 2.769301,0.0044 0.253851,-0.135301 1.226556,-0.452689 2.161559,-0.705 0.935009,-0.252211 1.973495,-0.893586 2.307754,-1.425219 0.334268,-0.531586 -0.05303,-0.630829 -0.860621,-0.220376 -0.807598,0.410405 -2.053786,0.21739 -2.7693,-0.428312 -1.100231,-0.993127 -1.087318,-1.200816 0.0837,-1.346273 0.761556,-0.09452 2.007744,-0.251714 2.7693,-0.349216 0.761558,-0.0975 1.270514,-0.96159 1.131008,-1.920293 -0.139533,-0.958702 0.102845,-1.42895 0.538558,-1.044961 0.435712,0.384038 3.185191,-0.688632 6.109956,-2.383575 2.924765,-1.694895 4.867865,-3.297657 4.318008,-3.561707 -0.549856,-0.264151 3.343651,-0.480049 8.652232,-0.480049 11.018138,0 10.281608,1.661613 -0.903101,2.037393 -7.169032,0.24077 -7.262441,0.284547 -3.196811,1.49984 3.055114,0.913136 5.732528,0.742956 9.8978,-0.629087 3.14039,-1.034466 5.48911,-1.371594 5.21931,-0.749223 -0.50934,1.175096 0.33075,1.509837 4.23022,1.685739 1.72395,0.07759 2.30491,0.821802 2.30774,2.955703 0.001,1.568439 0.38193,3.345312 0.8441,3.948581 0.48825,0.637247 0.56211,0.407419 0.17619,-0.548447 -0.3652,-0.904879 -0.28854,-1.645248 0.17062,-1.645248 0.94624,0 4.01755,4.519316 3.66116,5.387382 -0.12809,0.311908 0.24667,-0.215897 0.83248,-1.172759 0.71627,-1.169726 1.26336,-1.282698 1.66991,-0.34474 0.39461,0.910351 7.29537,1.394975 19.86445,1.394975 h 19.25979 l 2.84013,3.407447 c 2.88313,3.45913 3.63602,5.805893 1.86254,5.805893 -0.53767,0 -0.81125,-0.444231 -0.60796,-0.987158 0.20341,-0.542925 -0.39528,-2.023613 -1.33017,-3.290493 -0.93485,-1.266828 -1.70614,-1.859103 -1.71389,-1.316176 -0.006,0.542927 -0.41681,0.09849 -0.90899,-0.987158 -0.6998,-1.543963 -0.8979,-1.201612 -0.90896,1.570627 -0.0175,4.133189 2.93921,7.671864 5.58421,6.685652 1.74478,-0.650578 1.78647,0.574265 1.78647,52.50039 0,48.23551 0.14794,53.46749 1.59426,56.41185 0.8768,1.78495 1.68676,3.84168 1.79985,4.57051 0.113,0.72883 0.46477,2.56042 0.78153,4.07032 0.74185,3.53632 -3.18299,10.40801 -6.12512,10.72401 -2.09787,0.22535 -2.09312,0.18852 0.34366,-2.67181 3.21464,-3.77357 4.91392,-10.0412 3.25932,-12.02188 -0.6555,-0.78469 -0.8803,-0.85982 -0.49949,-0.1671 1.07451,1.95526 0.81739,3.35151 -0.48588,2.63843 -0.64804,-0.35471 -2.80872,1.73617 -4.80153,4.646 -2.99617,4.37495 -3.40785,5.57583 -2.37872,6.93793 0.68447,0.90596 0.99306,1.00307 0.68575,0.21588 -0.30737,-0.78726 1.08565,-3.72079 3.09545,-6.51905 2.53453,-3.52882 3.65414,-4.43012 3.65414,-2.94168 0,1.18033 -1.29167,3.58739 -2.8704,5.34909 -2.38807,2.66484 -2.70911,3.63269 -1.91061,5.76013 0.5945,1.58387 0.63836,3.28153 0.11516,4.46047 -0.46448,1.04685 -0.85093,16.46374 -0.8587,34.2598 -0.0151,28.34731 0.16293,32.35643 1.41576,32.35643 1.25913,0 1.41261,-4.21642 1.28527,-35.31705 -0.0795,-19.42438 0.21177,-35.46551 0.64709,-35.64693 0.43544,-0.18157 0.90211,16.10613 1.0371,36.19452 l 0.24526,36.52439 -3.01468,0.0199 c -2.04127,0.0154 -2.61028,0.38553 -1.76226,1.15171 0.87309,0.78877 0.94297,1.40419 0.23095,2.03183 -0.5619,0.49496 -1.07079,2.19798 -1.13087,3.78403 -0.0848,2.24185 -0.2662,2.0048 -0.81388,-1.06482 -0.38754,-2.17171 -0.75374,-3.3563 -0.81372,-2.63239 -0.0711,0.86109 -18.86074,1.30706 -54.3414,1.28976 l -54.232328,-0.0249 53.770968,0.68456 c 29.57407,0.37657 53.77085,1.12878 53.77064,1.67171 -2.2e-4,0.54292 -3.6e-4,1.57943 -3.6e-4,2.30334 0,1.48406 -106.349547,1.91855 -107.387397,0.43876 z m 80.386691,-2.74126 c -14.59652,-0.20345 -38.481782,-0.20345 -53.078304,0 -14.596525,0.20345 -2.653912,0.37011 26.539164,0.37011 29.19306,0 41.13567,-0.16659 26.53914,-0.37011 z M 61.357223,239.37234 c 0.33284,-0.76788 -0.605817,-1.31618 -2.253274,-1.31618 -1.553076,0 -2.823781,0.59228 -2.823781,1.31618 0,0.72391 1.013975,1.31623 2.253276,1.31623 1.2393,0 2.509999,-0.59232 2.823779,-1.31623 z m 49.385927,0 c 0,-0.7239 -1.06304,-1.31618 -2.36226,-1.31618 -1.33977,0 -2.11527,0.5697 -1.79172,1.31618 0.31365,0.72391 1.37679,1.31623 2.36225,1.31623 0.98544,0 1.79173,-0.59232 1.79173,-1.31623 z M 95.33324,238.3905 c -5.683034,-0.23032 -15.237121,-0.23132 -21.231306,-0.001 -5.994181,0.22984 -1.344421,0.41837 10.332799,0.41936 11.67722,9e-4 16.581557,-0.18703 10.898507,-0.41737 z m 61.56491,-16.04525 c 0,-0.75415 -19.53106,-1.13744 -50.30661,-0.98715 -27.668654,0.13538 -50.307694,0.68987 -50.308999,1.23279 -0.0013,0.54295 22.636669,0.98712 50.306629,0.98712 30.65442,0 50.30898,-0.48153 50.30898,-1.23276 z m 0,-17.85206 c 0,-1.73052 -6.14795,-1.97426 -49.79294,-1.97426 -27.386157,0 -50.013904,0.50963 -50.283916,1.13262 -0.270005,0.62291 -0.225311,1.51138 0.09936,1.97426 0.324677,0.46313 22.952413,0.8417 50.283926,0.8417 43.55665,0 49.69357,-0.24376 49.69357,-1.97432 z m -75.528646,-0.32981 c 13.545277,-0.20496 35.976676,-0.20496 49.847446,-3.9e-4 13.87079,0.20495 2.78833,0.37259 -24.62778,0.37309 -27.416109,2e-4 -38.764949,-0.16711 -25.219666,-0.37261 z M 59.972572,185.9111 c 0,-0.27757 -0.830788,-0.50456 -1.846201,-0.50456 -1.015412,0 -1.846203,0.53681 -1.846203,1.19295 0,0.65615 0.830791,0.88319 1.846203,0.50458 1.015413,-0.37857 1.846201,-0.91543 1.846201,-1.19297 z m 68.937718,-0.1746 c -12.60095,-0.20695 -32.955327,-0.20695 -45.231943,4.4e-4 -12.276617,0.20744 -1.966761,0.37658 22.910823,0.37608 24.87756,-2.4e-4 34.92205,-0.16966 22.32112,-0.37658 z m 30.14044,-7.00054 c -0.69927,-0.99702 0.45511,-3.3492 3.96932,-8.0881 5.30449,-7.1531 5.8183,-8.90541 3.43748,-11.72271 -1.35569,-1.60431 -1.45153,-1.44587 -0.89747,1.48405 l 0.62034,3.28016 -1.64107,-3.24205 c -0.90255,-1.78308 -7.43163,-11.40778 -14.50905,-21.38813 -7.07745,-9.98039 -12.472,-18.14612 -11.98794,-18.14612 0.48404,0 6.66997,8.27129 13.74651,18.38065 7.07653,10.10937 13.06123,18.10288 13.29932,17.76344 0.23794,-0.33929 -0.57264,-2.19113 -1.8016,-4.11476 -1.22895,-1.92366 -1.61137,-2.9954 -0.84982,-2.38167 1.95157,1.57267 -8.20505,-13.80185 -17.57735,-26.60765 -5.93393,-8.10783 -8.21789,-10.47301 -9.23099,-9.55922 -1.68491,1.51958 -3.92441,1.62699 -3.2875,0.15772 0.26166,-0.60321 -0.11174,-1.09679 -0.8289,-1.09679 -0.71738,0 -1.51686,0.7897 -1.77665,1.75493 -0.32899,1.2224 0.3691,1.75489 2.30055,1.75489 2.45344,0 2.66296,0.29251 1.8191,2.54087 -0.52455,1.39746 -2.14885,3.75422 -3.60949,5.23725 l -2.65582,2.69638 v -3.41263 c 0,-1.87695 -0.57117,-3.92852 -1.26924,-4.55901 -1.01551,-0.91716 -0.96173,-1.15037 0.26934,-1.1665 2.5311,-0.0348 2.53778,-3.07708 0.0136,-6.93711 -2.58761,-3.95953 -3.39392,-7.54954 -1.70278,-7.58132 0.61583,-0.0102 0.49381,-0.54168 -0.28643,-1.2454 -1.16464,-1.05018 -1.1324,-1.3491 0.22537,-2.09205 0.87135,-0.476563 1.35023,-1.406719 1.06421,-2.066547 -0.28609,-0.659879 -0.90673,-0.859018 -1.37932,-0.442749 -0.47261,0.416388 -0.85932,0.169659 -0.85932,-0.548586 0,-0.718193 -1.29235,-1.253445 -2.87187,-1.189384 -2.6308,0.106402 -2.71321,0.237794 -0.98146,1.558984 1.8072,1.37906 1.73317,1.630769 -1.68154,5.718402 -4.57015,5.47075 -5.75198,5.5009 -2.25341,0.0573 l 2.71123,-4.218414 -3.36457,4.056684 c -1.85052,2.23121 -5.28679,5.10343 -7.63617,6.38275 -2.34938,1.27932 -4.08917,2.58614 -3.86619,2.90407 0.22294,0.31787 2.37344,-0.66322 4.77878,-2.18032 2.4053,-1.51704 4.57868,-2.46551 4.82966,-2.10762 0.25086,0.35766 -1.37095,1.83272 -3.60429,3.27755 -3.02675,1.95804 -6.07099,2.63419 -11.956542,2.65573 -9.073373,0.0348 -14.621625,-3.01703 -20.86285,-11.46987 -1.952376,-2.64423 -3.030532,-4.361316 -2.3959,-3.8158 0.634631,0.545516 1.153875,0.364638 1.153875,-0.401947 0,-0.766635 -0.657707,-1.393878 -1.461573,-1.393878 -0.803868,0 -1.286652,-0.740325 -1.072857,-1.645245 0.213798,-0.904886 -0.270842,-2.429496 -1.076948,-3.388041 -1.174454,-1.396572 -1.190555,-1.573321 -0.081,-0.889557 0.761557,0.469093 0.578314,-0.07912 -0.407208,-1.21858 -1.309032,-1.51362 -1.433398,-2.082714 -0.461548,-2.111964 0.982175,-0.02985 0.907564,-0.391004 -0.285113,-1.381593 -0.888485,-0.737832 -1.615425,-1.939344 -1.615425,-2.670013 0,-0.730667 0.415393,-0.962432 0.9231,-0.515018 0.507706,0.447216 0.923101,0.221368 0.923101,-0.502733 0,-0.723902 -0.415395,-1.682258 -0.923101,-2.129673 -1.200623,-1.057993 -1.200623,-10.787746 0,-11.845743 0.507706,-0.447215 0.923101,-1.40572 0.923101,-2.129622 0,-0.723902 -0.415395,-0.950147 -0.923101,-0.502732 -0.507707,0.447215 -0.9231,0.2154 -0.9231,-0.515021 0,-0.730667 0.668561,-1.861989 1.485693,-2.514009 1.304049,-1.040534 1.314401,-1.279165 0.08464,-1.952027 -1.820514,-0.996113 -2.789426,4.033546 -2.544257,13.207238 0.112351,4.204326 -0.202985,6.910005 -0.805357,6.910005 -0.567234,0 -1.029322,-2.950927 -1.082044,-6.910005 -0.06818,-5.119748 -0.263514,-6.057508 -0.753936,-3.619511 -0.364053,1.809756 -0.34533,5.348531 0.04159,7.863882 0.420892,2.736174 0.335387,4.897883 -0.212857,5.380966 -0.548985,0.484026 -0.347807,1.480338 0.501811,2.485753 0.779998,0.922985 1.190543,2.203346 0.912315,2.845217 -0.278239,0.64187 -0.06598,1.167088 0.471711,1.167088 0.537668,0 0.97758,0.62725 0.97758,1.393834 0,0.766636 -0.519241,1.018889 -1.153878,0.560538 -0.63463,-0.458163 -0.433388,0.01024 0.447203,1.03959 0.880594,1.030127 1.330607,2.258609 1.000028,2.730004 -0.330572,0.471583 -0.07197,0.856972 0.574658,0.856972 0.646643,0 0.952316,0.8301 0.679275,1.844626 -0.305592,1.135499 0.272133,2.131169 1.502899,2.590069 1.984341,0.73988 1.985591,0.76136 0.166909,2.85969 -1.007841,1.16282 -1.365453,1.78524 -0.794694,1.38314 1.439579,-1.01412 6.122086,5.43852 5.407465,7.4517 -0.320069,0.90168 0.08528,0.46362 0.900813,-0.97333 1.471656,-2.59317 1.486697,-2.59142 2.005613,0.23777 0.321849,1.75489 1.020156,2.57863 1.816533,2.1429 0.711529,-0.38949 1.29369,-0.0153 1.29369,0.82688 0,0.8441 0.415394,1.16863 0.9231,0.72123 0.507706,-0.44722 0.9231,-0.0875 0.9231,0.7998 0,0.88727 0.273318,1.2235 0.607394,0.7472 0.33406,-0.47607 1.164846,-0.20646 1.846191,0.59987 0.681345,0.80628 1.238819,1.00547 1.238819,0.44275 0,-0.56279 0.830786,0.0498 1.846192,1.35901 1.442923,1.86188 1.846204,1.96973 1.846204,0.49348 0,-1.05283 -2.076499,-3.03596 -4.692646,-4.48162 -2.580953,-1.42621 -5.124189,-3.33343 -5.651628,-4.23829 -1.429699,-2.45282 0.03831,-1.99377 3.566313,1.11514 4.881503,4.30169 18.420187,4.63139 25.306347,0.61631 0.98463,-0.57413 1.78523,0.19998 2.49092,2.40825 0.78811,2.46624 0.77202,3.40953 -0.0663,3.8955 -0.62252,0.36065 -0.67883,0.68668 -0.12869,0.74519 0.53761,0.0571 1.7838,-0.78598 2.76931,-1.87363 1.49369,-1.64847 1.52307,-1.84403 0.17653,-1.17539 -1.14275,0.56745 -1.61542,0.11886 -1.61542,-1.53233 0,-1.28393 0.27039,-1.94879 0.60106,-1.47745 0.33076,0.47159 1.14817,-0.17017 1.81684,-1.42586 0.81278,-1.52616 1.22554,-1.71176 1.24515,-0.55999 0.0174,0.94761 0.40958,1.38785 0.8743,0.97836 1.31419,-1.1581 6.53984,5.77847 6.53984,8.68105 0,1.4262 0.41541,2.22703 0.92311,1.7796 0.5077,-0.44721 0.92312,-0.2358 0.92312,0.4706 0,0.70629 -0.51927,1.58292 -1.1539,1.94805 -0.71957,0.41389 -0.57478,0.703 0.38463,0.76778 0.8462,0.0573 1.69822,0.78708 1.89343,1.62206 0.37444,1.60182 8.2163,-9.56011 9.06312,-12.9003 0.39868,-1.57252 0.84685,-1.38031 2.30776,0.98994 1.43617,2.33005 1.50294,2.7809 0.32132,2.16917 -1.79837,-0.93104 -10.98275,11.94852 -10.32268,14.47586 0.29061,1.11252 -0.11863,1.36453 -1.26267,0.77743 -0.93095,-0.47755 -1.47525,-0.62626 -1.20963,-0.32982 0.26549,0.29648 2.92036,3.79631 5.89948,7.77783 2.9791,3.98146 5.12577,6.49869 4.7704,5.59384 -1.13031,-2.87818 -0.0695,-1.78991 3.20492,3.28769 2.87665,4.46077 2.91608,4.61825 0.41186,1.64525 l -2.7693,-3.28776 -40.38628,0.65814 c -25.767635,0.41986 -40.469579,1.13451 -40.616428,1.97427 -0.149666,0.85592 14.523611,1.54635 41.957955,1.97431 l 42.188133,0.65809 3.73615,5.20283 c 2.05486,2.86158 3.73895,5.82301 3.74241,6.58099 0.003,0.75796 1.39533,2.72647 3.09299,4.3745 1.69767,1.64803 4.05189,4.46135 5.23166,6.2519 1.17973,1.79056 2.36337,3.25552 2.63023,3.25552 0.2669,0 0.0415,-0.63261 -0.50072,-1.40581 z m -9.09748,-13.40136 -7.36316,-10.8586 7.61557,10.49869 c 7.07312,9.75086 8.03643,11.2185 7.36314,11.2185 -0.13876,0 -3.56583,-4.88634 -7.61555,-10.85859 z m -5.94567,-12.12789 c -7.83907,-11.19473 -14.06497,-20.60482 -13.83533,-20.91124 0.22957,-0.30645 7.06386,8.84955 15.18714,20.34671 8.12328,11.49718 14.34918,20.90727 13.83535,20.91129 -0.51384,0.004 -7.34805,-9.152 -15.18716,-20.34676 z m -66.726877,-1.69088 c 11.296442,-0.20942 29.781567,-0.20942 41.078017,0 11.29643,0.20944 2.05391,0.38057 -20.539037,0.38057 -22.592877,0 -31.835419,-0.17113 -20.53898,-0.38057 z M 150.42137,134.4498 c -5.8303,-8.48073 -7.9005,-11.88638 -4.60044,-7.56808 6.18475,8.09286 16.28842,22.98758 15.59339,22.98758 -0.21595,0 -5.1626,-6.93876 -10.99295,-15.4195 z m -18.02881,5.87708 -3.64897,-5.59382 3.92317,5.20283 c 3.64854,4.83857 4.34736,5.98483 3.64896,5.98483 -0.15074,0 -1.91624,-2.51725 -3.92316,-5.59384 z m -15.64927,-32.11461 c 3.72376,-5.09666 6.52107,-8.09575 5.67311,-6.08223 -0.37479,0.88996 -0.23237,2.81488 0.31679,4.27764 0.54903,1.46279 0.67209,2.73519 0.27353,2.82758 -0.39866,0.0926 -1.55559,0.30095 -2.57101,0.46362 -1.0154,0.16266 -2.88468,0.74753 -4.15393,1.29967 -2.25719,0.98192 -2.24709,0.92089 0.46154,-2.78638 z m -41.577519,-3.18116 c -0.993504,-2.29208 0.138029,-2.77745 1.404095,-0.60231 0.728093,1.25085 0.798124,2.0061 0.186026,2.0061 -0.539909,0 -1.255457,-0.63173 -1.590115,-1.40379 z m -3.90659,-6.822441 c -1.980138,-3.466645 -5.052012,-16.22781 -3.307661,-13.740664 0.662678,0.944873 4.87965,15.385911 4.492886,15.385911 -0.135006,0 -0.668362,-0.740359 -1.185225,-1.645247 z M 172.53235,168.55168 c -0.0388,-1.48289 -0.36444,-1.13665 -0.97173,1.03347 -0.5022,1.79488 -1.41055,4.19303 -2.01844,5.32927 -0.60792,1.13621 -0.17061,0.67113 0.97172,-1.03346 1.14233,-1.70463 2.05063,-4.10284 2.01845,-5.32928 z M 59.972572,167.89085 c 1.987426,-0.57746 1.93324,-0.64152 -0.390364,-0.46165 -1.52212,0.11789 -2.860355,1.0693 -3.070349,2.18311 -0.248828,1.3197 -0.119417,1.47283 0.390359,0.46164 0.419431,-0.83191 1.801092,-1.81429 3.070354,-2.1831 z m 67.617128,2.05151 c -12.31185,-0.20744 -32.458537,-0.20744 -44.770393,0 -12.311852,0.20744 -2.238517,0.37708 22.385193,0.37708 24.62374,0 34.69706,-0.16966 22.3852,-0.37708 z m 11.07721,-2.51803 c -0.63463,-0.36514 -1.67313,-0.36514 -2.30776,0 -0.63462,0.36513 -0.11545,0.66387 1.15387,0.66387 1.26927,0 1.78852,-0.29899 1.15389,-0.66387 z m 28.67555,-63.09881 c -0.0942,-28.668063 -0.314,-52.327165 -0.48827,-52.575695 -0.17443,-0.248731 -0.81464,-0.01501 -1.42297,0.522679 -0.82587,0.727783 -1.12228,13.584364 -1.17018,50.759926 -0.0352,27.38189 0.2296,50.15835 0.58841,50.61437 0.35893,0.45617 0.31399,-0.001 -0.0995,-1.01944 -0.506,-1.24361 -0.40339,-1.54129 0.31366,-0.90945 0.58615,0.5165 1.06571,1.79258 1.06571,2.83572 0,1.04316 0.31158,1.8964 0.69232,1.89615 0.38078,-2.3e-4 0.61523,-23.45614 0.52099,-52.12426 z m -105.976507,29.7293 c 0.321919,-0.74275 -0.643801,-1.29607 -2.262004,-1.29607 -1.553076,0 -2.823781,0.46312 -2.823781,1.02913 0,1.53478 4.43534,1.76752 5.085785,0.26714 z m 61.377487,0.0199 c -1.26925,-0.57958 -15.18502,-0.97805 -30.923902,-0.88546 l -28.616116,0.16812 27.693014,0.71714 c 15.231194,0.39447 29.146914,0.79284 30.923914,0.8854 2.85645,0.1487 2.96342,0.0449 0.92309,-0.8854 z m -19.00295,-13.91408 c 1.37421,-0.78668 1.59541,-0.5961 0.99522,0.85747 -0.42441,1.02791 0.13047,0.74062 1.23325,-0.63844 1.51197,-1.89089 2.0121,-2.0527 2.03422,-0.65809 0.0209,1.37986 0.33807,1.26981 1.24515,-0.43378 0.66868,-1.25558 1.48627,-1.89726 1.81683,-1.42592 0.3304,0.4716 0.60108,0.16608 0.60108,-0.67853 0,-1.86546 0.46443,-1.90761 -4.99301,0.45318 -2.49232,1.07804 -6.64625,1.9691 -9.231027,1.98018 -3.499156,0.0153 -4.345881,0.36515 -3.314916,1.37022 1.427618,1.39198 6.499923,0.95602 9.613203,-0.82623 z m -14.76011,-9.85248 c -2.576952,-1.41357 -6.523206,-4.75247 -8.769456,-7.41969 l -4.084096,-4.849492 2.769303,4.364272 c 2.759022,4.34808 10.752153,10.63681 13.384953,10.53086 0.761566,-0.0299 -0.723763,-1.21231 -3.300704,-2.62595 z m 10.685498,-6.60246 c 0,-8.157584 -0.19992,-9.25513 -1.615416,-8.867508 -1.319433,0.361143 -1.657326,2.067142 -1.844087,9.309848 -0.208741,8.09544 -0.06813,8.8675 1.615426,8.8675 1.669567,0 1.844077,-0.881 1.844077,-9.30984 z M 92.592969,91.291013 c -2.319936,-2.438105 -2.784576,0.127367 -0.637385,3.519368 1.5164,2.395513 1.745487,2.450179 2.022032,0.482529 0.171559,-1.220468 -0.451545,-3.021372 -1.384647,-4.001949 z m 34.765991,4.614067 c -1.14855,-1.058295 -1.06984,-1.282739 0.46153,-1.316176 1.50162,-0.03479 1.5923,-0.269117 0.48591,-1.266882 -0.89714,-0.808955 -1.59949,-0.690024 -2.06285,0.349225 -1.11601,2.503121 -0.85327,3.551561 0.88462,3.529872 1.38054,-0.01535 1.41411,-0.20545 0.23061,-1.296039 z M 88.357909,88.897479 c 0.634635,-0.574564 1.147517,-1.75006 1.139737,-2.612205 -0.0092,-1.08302 -0.252701,-1.031084 -0.785951,0.16814 -0.424501,0.954576 -2.910518,3.148369 -5.524468,4.875145 -2.613956,1.726784 -4.75265,3.43575 -4.75265,3.797711 0,0.640765 7.615825,-4.139511 9.923332,-6.22864 z m 15.738861,5.428429 c 0.60928,-0.86867 1.10773,-2.441193 1.10773,-3.494506 0,-1.520185 -0.38063,-1.423828 -1.84619,0.467113 -1.89641,2.447058 -2.41571,4.606668 -1.10772,4.606668 0.40615,0 1.23694,-0.710725 1.84618,-1.579429 z M 126.122,87.12195 c -0.35202,-0.501937 -1.15233,-0.124861 -1.77852,0.838018 -0.90383,1.389751 -0.90065,1.559138 0.0136,0.821704 0.63462,-0.510841 1.15387,-0.30146 1.15387,0.465124 0,0.766634 -0.72693,1.402934 -1.61543,1.414027 -1.38054,0.01501 -1.41411,0.205451 -0.23061,1.296036 1.18333,1.090368 1.14975,1.278817 -0.23097,1.296021 -0.88847,0.01024 -1.61542,-0.670825 -1.61542,-1.515401 0,-0.844541 -0.31087,-1.092276 -0.69087,-0.550496 -0.37997,0.541834 0.13636,1.847473 1.14722,2.901488 1.69636,1.76861 1.9401,1.609182 3.16174,-2.068745 0.72798,-2.191798 1.03559,-4.395741 0.68361,-4.897678 z m -24.12561,2.168523 c 1.47179,-2.190313 3.16659,-3.713979 3.76627,-3.385856 0.74114,0.405429 1.02789,-1.033272 0.89546,-4.49305 -0.10714,-2.799301 0.0491,-4.977426 0.34749,-4.840326 1.49749,0.688283 5.12545,-5.363356 5.15667,-8.601614 l 0.0349,-3.586183 -2.01417,2.698018 c -2.22727,2.983412 -2.60749,2.567883 -3.58375,-3.916594 -0.46883,-3.114093 -0.36329,-4.173084 0.353,-3.541858 0.56204,0.495468 1.02187,1.718969 1.02187,2.719408 0,1.000391 0.46925,2.232447 1.04283,2.737916 0.63731,0.561583 0.86531,0.207938 0.5863,-0.909506 -0.2512,-1.005611 -0.028,-3.01301 0.49291,-4.460814 0.81651,-2.263637 0.75399,-2.402577 -0.44616,-0.991784 -1.14261,1.343141 -1.69804,1.164154 -3.06348,-0.987156 -1.62715,-2.563606 -0.76972,-3.817403 0.97217,-1.42159 0.53395,0.734398 1.23842,0.605655 1.80111,-0.329319 0.65378,-1.086002 -0.329,-3.304967 -3.35903,-7.584061 -2.35578,-3.326857 -4.21602,-5.39584 -4.13386,-4.597716 0.25295,2.458294 2.79079,6.825884 4.49178,7.730513 3.4913,1.856866 1.27146,3.006096 -6.00016,3.106334 -4.188592,0.05771 -7.119698,-0.147747 -6.513579,-0.456667 0.614657,-0.313399 0.838415,-1.541129 0.505965,-2.776417 -0.53874,-2.001777 -0.351104,-1.985908 1.951317,0.165157 1.458688,1.362788 3.609505,2.148674 5.032627,1.838907 2.29789,-0.500194 2.2639,-0.55586 -0.45035,-0.738229 -2.807158,-0.188538 -2.900889,-0.370109 -2.141429,-4.145774 0.628907,-3.12663 0.508077,-3.948582 -0.580467,-3.948582 -0.756077,0 -1.116146,-0.596454 -0.800152,-1.325481 0.315994,-0.729025 -0.115309,-1.702951 -0.958477,-2.164294 -1.000274,-0.547255 -2.223581,0.327826 -3.520135,2.51769 -2.181324,3.684531 -6.076822,7.008951 -7.525729,6.422496 -0.507703,-0.205451 -0.436314,0.333296 0.158648,1.196936 0.594955,0.863837 0.891846,2.276124 0.659767,3.138469 -0.232078,0.862345 0.445112,2.686775 1.504881,4.054291 1.9202,2.477744 1.923502,2.473765 0.958443,-1.145448 -0.617776,-2.316816 -0.635187,-3.338101 -0.0481,-2.820743 0.506173,0.44622 0.920317,0.183561 0.920317,-0.582872 0,-0.766635 0.702485,-1.39388 1.561085,-1.39388 1.358248,0 1.328443,0.242758 -0.229328,1.866665 -0.984726,1.026706 -1.479518,2.309951 -1.099529,2.851782 0.379978,0.541783 0.690874,0.383043 0.690874,-0.352697 0,-1.44676 13.804261,-0.767183 14.964991,0.736736 0.36131,0.468109 -2.66869,0.686593 -6.733325,0.485522 l -7.390247,-0.365635 -1.383231,4.720289 c -1.218037,4.156519 -1.681711,4.626966 -3.882345,3.938731 -2.165367,-0.677141 -2.51632,-0.350709 -2.627993,2.443121 -0.09894,2.475059 0.22294,3.036938 1.38465,2.417153 1.284553,-0.685298 1.332184,-0.489002 0.314836,1.296082 -0.923929,1.621367 -0.944132,2.327858 -0.08816,3.082156 0.750642,0.661471 0.888794,0.379561 0.426271,-0.869957 -0.376356,-1.016706 0.218614,-0.367622 1.322124,1.441886 1.103522,1.809756 1.741092,2.55689 1.416812,1.660319 -0.384592,-1.063368 -0.106563,-1.365875 0.799554,-0.870106 1.073889,0.587599 1.160658,1.281754 0.382336,3.058777 -0.836275,1.909297 -0.320758,3.221545 3.043526,7.747179 2.227678,2.996693 4.699551,5.46334 5.493052,5.481449 0.7935,0.01995 2.6469,-1.759216 4.11865,-3.949574 z m -9.715306,-41.84546 c 0,-1.590726 1.75131,-3.445253 2.39148,-2.532514 0.23232,0.331306 -0.210698,1.351545 -0.98452,2.267268 -0.8773,1.038148 -1.40696,1.137987 -1.40696,0.265145 z m 37.385586,43.195564 c 0.31366,-0.723902 0.0512,-1.316227 -0.58348,-1.316227 -0.65614,0 -0.42466,-0.760367 0.53659,-1.762598 1.52737,-1.592465 1.54439,-1.842588 0.17653,-2.591064 -0.83279,-0.455673 -1.51985,-0.402942 -1.52676,0.117397 -0.008,0.520193 -0.26306,2.278462 -0.56921,3.907292 -0.55949,2.976504 0.87075,4.173083 1.96644,1.645246 z M 109.82001,89.32435 c -0.76154,-0.701715 -1.80001,-1.275883 -2.30775,-1.275883 -0.5077,0 -0.30004,0.574168 0.46158,1.275883 0.76156,0.701766 1.80001,1.275884 2.30772,1.275884 0.50775,0 0.30005,-0.574118 -0.46155,-1.275884 z m 17.53895,-6.961491 c 0,-2.138925 -0.23412,-2.297117 -1.38468,-0.935672 -0.76155,0.901198 -1.38464,2.059579 -1.38464,2.574201 0,0.514621 0.62309,0.935673 1.38464,0.935673 0.76155,0 1.38468,-1.158384 1.38468,-2.574202 z m 3.30878,-11.794258 c -1.30707,-4.261533 -1.31199,-4.245466 -1.31199,4.277651 0,8.523065 0.003,8.539183 1.31199,4.277599 1.13393,-3.697065 1.13393,-4.858183 0,-8.55525 z m -58.981645,1.974315 c -0.232186,-1.266878 -0.422157,-0.230323 -0.422157,2.303336 0,2.533659 0.189971,3.570164 0.422157,2.303335 0.232185,-1.26683 0.232185,-3.339841 0,-4.606671 z M 110.8609,75.17527 c 1.14819,-2.087536 1.11557,-2.134097 -0.34854,-0.496959 -0.88849,0.993524 -1.61543,2.03003 -1.61543,2.303333 0,1.083267 0.75803,0.386028 1.96397,-1.806424 z m 16.49806,-8.006853 c 0,-1.327121 -0.6007,-2.413023 -1.33482,-2.413023 -1.00829,0 -1.11323,0.590235 -0.42907,2.413023 0.49814,1.327173 1.09879,2.413026 1.33478,2.413026 0.23586,0 0.42911,-1.085853 0.42911,-2.413026 z M 67.053398,63.44454 c -0.272969,-0.389013 -0.983673,-0.27808 -1.579362,0.246739 -0.803043,0.707636 -0.759253,1.241259 0.169351,2.063908 1.230905,1.090431 2.424027,-0.864883 1.41,-2.310697 z M 129.61978,62.1307 c -1.1776,-1.22773 -1.30094,-1.762598 -0.40645,-1.762598 0.98871,0 1.03286,-0.35817 0.19189,-1.557493 -1.53337,-2.186332 -2.24286,-0.676048 -1.54494,3.288852 0.41098,2.334673 1.02679,3.119762 2.02065,2.576041 1.23806,-0.67744 1.20311,-1.018201 -0.26097,-2.544802 z m -41.492649,0.869808 c 0.313796,-0.723904 -0.101614,-1.316228 -0.92309,-1.316228 -0.821488,0 -1.236887,0.592324 -0.923102,1.316228 0.313784,0.723902 0.729171,1.316176 0.923102,1.316176 0.193907,0 0.609317,-0.592274 0.92309,-1.316176 z m 38.308689,-1.254294 c 0,-0.689826 -0.47434,-2.738661 -1.05413,-4.552994 -0.85809,-2.685335 -1.37304,-3.055343 -2.76929,-1.989936 -0.94332,0.719872 -1.68238,2.028389 -1.6423,2.907797 0.0548,1.205145 0.18736,1.193753 0.53849,-0.04477 0.25607,-0.904878 1.15792,-1.636193 2.00408,-1.6251 1.33066,0.0199 1.35146,0.192518 0.15386,1.29603 -1.1523,1.061827 -1.07486,1.296729 0.46153,1.39995 1.01544,0.06815 1.32439,0.423834 0.68658,0.790712 -0.63778,0.366626 -0.92479,1.208278 -0.63783,1.870347 0.68636,1.583512 2.25901,1.54834 2.25901,-0.05026 z M 71.705018,51.650282 c 0.229603,0.327328 -0.03175,1.791548 -0.580452,3.253781 -1.332371,3.549719 -1.262608,5.821814 0.155987,5.08015 0.634636,-0.331803 1.050028,-1.269564 0.923102,-2.083955 -0.126919,-0.81439 0.171585,-1.480737 0.663354,-1.480737 0.491771,0 0.655027,-0.888411 0.362791,-1.974266 -0.336468,-1.250214 0.01262,-1.974314 0.952071,-1.974314 0.815876,0 1.483411,-0.627247 1.483411,-1.39388 0,-0.766634 -0.415393,-1.027802 -0.923101,-0.580386 -1.861346,1.640221 -0.83108,-0.24873 2.904926,-5.326742 2.105416,-2.861533 3.561686,-4.52454 3.236156,-3.695524 -0.325549,0.829064 0.01116,1.837215 0.747827,2.240357 1.079451,0.590632 1.170874,0.09999 0.470616,-2.526296 -0.762897,-2.861037 -0.504268,-3.576434 2.116622,-5.854944 3.529343,-3.068278 5.84463,-3.315864 6.863017,-0.733903 0.638167,1.617937 0.980997,1.617937 2.530057,0 1.614919,-1.686784 1.632319,-1.871589 0.176289,-1.871589 -0.888556,0 -1.358835,-0.592276 -1.045051,-1.316178 0.313785,-0.723902 0.23445,-1.324286 -0.1763,-1.334185 -0.410738,-0.0098 -1.785293,-0.357175 -3.054551,-0.772256 -1.885802,-0.616402 -2.054587,-0.47358 -0.923101,0.782502 1.112164,1.234397 0.839658,1.378511 -1.384647,0.732312 -2.171247,-0.630779 -2.470277,-0.487014 -1.384659,0.665798 1.13106,1.201066 1.004025,1.351398 -0.693589,0.820808 -1.336905,-0.417866 -1.859139,-0.143775 -1.464002,0.767628 0.380883,0.878712 0.06476,1.116447 -0.832101,0.625754 -0.795498,-0.435276 -2.213674,0.0398 -3.151506,1.050635 -0.937834,1.013124 -1.329222,1.860893 -0.869757,1.883927 1.074892,0.05373 -2.231898,5.306595 -3.340694,5.306595 -0.458979,0 -0.522557,-0.740319 -0.141276,-1.645247 0.471034,-1.117891 0.19262,-1.066253 -0.868624,0.161184 -1.769865,2.046994 -2.112889,3.441221 -0.496119,2.0165 0.660292,-0.581878 0.815156,-0.361155 0.407072,0.580435 -0.362262,0.83573 -1.361083,1.528593 -2.219604,1.539686 -1.347064,0.0199 -1.371221,0.197492 -0.176292,1.316226 1.151331,1.077695 1.025871,1.436115 -0.744536,2.127136 -1.300201,0.507458 -1.940434,1.532372 -1.644395,2.632354 0.266621,0.990691 0.01323,1.801299 -0.563193,1.801299 -0.576387,0 -0.777502,0.385531 -0.446926,0.857023 0.330573,0.47159 -0.119416,1.699817 -1.000028,2.729955 -0.880591,1.030139 -1.081834,1.497999 -0.447202,1.039639 0.634635,-0.458159 1.153879,-0.205946 1.153879,0.560487 0,0.766636 -0.439915,1.393883 -0.977582,1.393883 -0.537667,0 -0.680908,0.684402 -0.318327,1.52093 0.402015,0.927463 1.370181,-0.632719 2.481134,-3.998377 1.002025,-3.035695 2.009713,-5.251576 2.239303,-4.924198 z M 79.35768,36.159357 c 0,-0.284547 0.644666,-0.870006 1.432596,-1.301153 0.82149,-0.449703 1.19202,-0.228832 0.868623,0.517306 -0.542102,1.250663 -2.301219,1.849852 -2.301219,0.783847 z m 48.55961,19.178589 c -1.39961,-0.400951 -1.49193,-0.733703 -0.46156,-1.66395 0.9965,-0.899654 0.87016,-1.171865 -0.55835,-1.203055 -1.48246,-0.03482 -1.58208,-0.278577 -0.50562,-1.249519 0.73731,-0.665052 1.73613,-0.860605 2.2196,-0.434779 0.48344,0.426324 0.60675,0.146249 0.27386,-0.621376 -0.33282,-0.767778 -1.38859,-1.103861 -2.34619,-0.746785 -0.9576,0.357175 -2.02021,0.005 -2.36131,-0.781657 -0.34121,-0.786981 -0.10783,-1.430842 0.51828,-1.430842 0.6335,0 0.19396,-1.433678 -0.99116,-3.232242 -1.1713,-1.777769 -2.57487,-3.11041 -3.11904,-2.961472 -0.54416,0.148736 -1.00825,-0.617596 -1.03135,-1.703448 -0.0244,-1.085855 -0.92573,-2.038041 -2.00595,-2.115943 -1.08024,-0.07811 -2.9381,-1.114358 -4.12858,-2.303334 -2.4134,-2.41024 -4.9561,-2.90934 -4.03867,-0.792752 0.39063,0.901097 -0.30073,1.051379 -2.02247,0.439754 -2.35579,-0.836776 -2.49078,-0.712611 -1.35742,1.248971 0.69217,1.197932 1.6268,1.853531 2.07701,1.456809 0.45016,-0.396475 0.82485,0.05422 0.83261,1.001634 0.0104,1.251954 0.25889,1.183255 0.90897,-0.251218 0.74226,-1.637586 0.89969,-1.52541 0.92313,0.658139 0.0244,2.183496 0.18072,2.295675 0.92308,0.658088 0.75408,-1.663751 0.89706,-1.58988 0.90897,0.4701 0.0104,1.649723 0.47328,2.192898 1.42687,1.671163 0.9127,-0.499349 1.76551,0.331309 2.40953,2.346464 0.54824,1.715639 1.9813,3.758951 3.18458,4.540708 1.41342,0.918209 1.99589,2.134199 1.64565,3.435601 -0.34052,1.265139 -0.0175,2.01431 0.86436,2.01431 0.77359,0 1.59436,-0.740316 1.82396,-1.645245 0.24317,-0.958057 0.90153,-0.177095 1.57645,1.870148 0.80813,2.45113 1.6133,3.259799 2.65953,2.671255 1.29634,-0.729175 1.26246,-0.91229 -0.24875,-1.345329 z m -7.13781,-9.118923 c -1.1482,-2.087536 -1.11558,-2.134098 0.34853,-0.496961 0.88849,0.993525 1.61543,2.030031 1.61543,2.303384 0,1.083269 -0.75803,0.386029 -1.96396,-1.806423 z m -3.50645,-4.818536 c -0.78855,-1.354782 -0.80251,-2.102511 -0.0517,-2.764182 0.56614,-0.498901 1.27864,-0.551632 1.58333,-0.117397 0.30459,0.434282 0.0175,0.789916 -0.63598,0.789916 -0.9531,0 -0.96122,0.392993 -0.0409,1.974266 0.63203,1.085853 0.94147,1.974316 0.68762,1.974316 -0.25399,0 -0.94801,-0.835732 -1.54251,-1.857115 z M 89.629526,43.58662 c 1.148219,-2.087536 1.115571,-2.1341 -0.348538,-0.496962 -0.888475,0.993525 -1.615425,2.030032 -1.615425,2.303335 0,1.083267 0.758045,0.386028 1.963952,-1.806423 z m 70.561284,0 c -0.21386,-2.084402 -1.87329,-2.337361 -17.45722,-2.661405 -9.47147,-0.196996 -17.22085,0.128836 -17.22085,0.723902 0,3.612397 2.75105,4.240839 18.56494,4.240839 15.0456,0 16.33066,-0.183564 16.11313,-2.303336 z M 85.782568,37.992793 c 0.07089,1.505061 0.331311,1.389304 1.095835,-0.487012 0.718757,-1.763941 1.197449,-2.012373 1.689674,-0.876773 0.50058,1.154902 0.838899,1.019294 1.24783,-0.500195 0.308549,-1.146544 0.145344,-2.084652 -0.362739,-2.084652 -1.430689,0 -7.326185,3.715521 -7.326185,4.617216 0,0.441744 0.415393,0.436768 0.9231,-0.0098 0.507705,-0.447216 0.952296,-0.0398 0.987982,0.909455 0.03569,0.94766 0.421884,0.538399 0.85822,-0.909405 0.539679,-1.790753 0.823059,-2.001177 0.886283,-0.658139 z m 9.819507,-0.968304 c -0.547186,-0.780166 -3.320991,1.254839 -3.320991,2.436505 0,0.652566 0.811901,0.463632 1.804223,-0.419858 0.992321,-0.883636 1.674875,-1.791001 1.516768,-2.016449 z m 12.820265,-4.899674 c 4.13411,-1.378361 0.82296,-3.479975 -3.76623,-2.39049 -3.29781,0.78295 -3.40858,0.936067 -1.2978,1.793688 2.25461,0.916021 2.24522,0.940646 -0.40723,1.068839 -2.55406,0.123366 -2.61059,0.239777 -0.95395,1.967203 1.42035,1.480837 1.94554,1.511381 2.71499,0.157689 0.52466,-0.922985 2.19427,-2.091666 3.71022,-2.597083 z m -1.5447,-1.612067 c 0.66637,-0.380059 1.46253,-0.333297 1.76927,0.103963 0.30668,0.437267 -0.23829,0.748477 -1.21154,0.69132 -1.07539,-0.06318 -1.29414,-0.375084 -0.55773,-0.795189 z m 7.09636,2.215286 c -0.31366,-0.723902 -0.0615,-1.316178 0.56089,-1.316178 0.62232,0 0.91396,-0.309917 0.64817,-0.68908 -0.26585,-0.379063 -1.20066,-0.296485 -2.07745,0.183066 -1.26354,0.691318 -1.33879,1.103064 -0.36292,1.98511 1.6253,1.468995 1.92168,1.429747 1.23131,-0.163162 z M 49.891342,259.66181 c 0.04427,-1.53333 0.263026,-1.84519 0.557709,-0.79525 0.266655,0.95015 0.233859,2.08535 -0.07289,2.52272 -0.306744,0.43727 -0.524914,-0.34026 -0.484832,-1.72747 z m -2.959923,-1.53558 c -1.148218,-2.08758 -1.115566,-2.13413 0.348539,-0.49695 0.888483,0.99354 1.615426,2.03004 1.615426,2.30334 0,1.08326 -0.758036,0.38604 -1.963947,-1.80639 z m 117.351541,1.14985 c 0,-0.85881 0.6207,-1.90114 1.37937,-2.31623 0.75862,-0.41488 1.14952,-1.28494 0.86859,-1.93297 -0.28085,-0.64804 -0.0708,-1.1783 0.46684,-1.1783 1.52925,0 1.15236,1.99896 -0.86858,4.6067 -1.10071,1.42028 -1.84622,1.75173 -1.84622,0.8208 z m -119.079997,-5.3862 c 0,-0.70117 0.623094,-0.93392 1.38465,-0.51726 0.761561,0.41687 1.384652,0.9904 1.384652,1.2749 0,0.28454 -0.623091,0.51725 -1.384652,0.51725 -0.761556,0 -1.38465,-0.57368 -1.38465,-1.27489 z m 0.23079,-3.60598 c -0.909172,-0.47557 -1.153874,-21.67433 -1.153874,-99.96271 0,-93.919527 0.08845,-99.335166 1.615426,-98.915957 1.518834,0.416871 1.629576,6.340314 1.852121,99.065847 0.130167,54.2423 -0.07752,99.02589 -0.461551,99.51921 -0.384034,0.4935 -1.217492,0.62542 -1.852122,0.2935 z m 142.849827,-8.79832 c 0,-0.28452 0.64465,-0.87 1.43258,-1.30115 0.8215,-0.44968 1.19204,-0.22882 0.86862,0.51732 -0.5421,1.25066 -2.3012,1.84981 -2.3012,0.78383 z M 24.596214,238.44457 c -1.013751,-0.37359 -1.478791,-1.38011 -1.169251,-2.53021 0.316511,-1.1761 -0.278029,-2.36389 -1.547644,-3.09198 -1.405324,-0.80588 -1.583338,-1.20877 -0.559204,-1.26563 0.826316,-0.0449 2.019516,0.80501 2.651554,1.89086 0.632036,1.08585 0.811201,1.97425 0.398145,1.97425 -0.413057,0 0.05533,0.86961 1.040849,1.93242 1.888031,2.03621 1.858503,2.0757 -0.814449,1.09029 z m 163.748596,-3.14533 c 1.27013,-2.5433 2.71485,-3.82596 4.30941,-3.82596 2.86282,0 2.42776,1.04899 -0.73431,1.77046 -1.38855,0.31687 -2.15753,1.27632 -2.00607,2.50312 0.13501,1.0941 -0.59259,2.30183 -1.61704,2.68383 -1.85109,0.69023 -1.85081,0.67078 0.0481,-3.13145 z M 19.356165,228.62156 c 0,-0.60327 0.39088,-1.09686 0.868623,-1.09686 0.477742,0 1.08256,0.49348 1.344045,1.09686 0.261492,0.60326 -0.129399,1.09685 -0.868623,1.09685 -0.739226,0 -1.344045,-0.49348 -1.344045,-1.09685 z m 172.158255,0.21938 c 0.31366,-0.72392 1.68835,-1.27459 3.05457,-1.22371 2.21806,0.0826 2.28632,0.21341 0.63782,1.22371 -2.56455,1.57131 -4.37348,1.57131 -3.69239,0 z M 18.035298,224.7452 c 0.348855,-0.8049 0.06183,-1.98039 -0.637843,-2.61227 -0.871622,-0.78718 -0.91908,-1.15524 -0.150755,-1.16902 0.616769,-0.0108 1.566024,1.1644 2.109456,2.61221 0.796,2.12072 0.702009,2.63241 -0.483551,2.63241 -0.844669,0 -1.201385,-0.62342 -0.837316,-1.46333 z m -3.467715,-8.64913 c 0.666361,-0.38004 1.462536,-0.33329 1.769275,0.10401 0.306742,0.43727 -0.238464,0.74849 -1.21157,0.69133 -1.075359,-0.0633 -1.294094,-0.3751 -0.557705,-0.7952 z m 182.773907,0 c 0.66635,-0.38004 1.46254,-0.33329 1.76928,0.10401 0.30667,0.43727 -0.23829,0.74849 -1.21157,0.69133 -1.07535,-0.0633 -1.29411,-0.3751 -0.55771,-0.7952 z m -183.697007,-2.6324 c 0.666363,-0.38005 1.462538,-0.3333 1.769277,0.10402 0.306742,0.43726 -0.238467,0.74843 -1.211573,0.69127 -1.075356,-0.0631 -1.294091,-0.37508 -0.557704,-0.7952 z m 184.620097,0 c 0.66637,-0.38005 1.46255,-0.3333 1.76929,0.10402 0.30666,0.43726 -0.23864,0.74843 -1.21156,0.69127 -1.07538,-0.0631 -1.2941,-0.37508 -0.55773,-0.7952 z M 10.714446,207.48686 c 0.253746,-0.58542 0.951927,-0.71471 1.551475,-0.28703 0.599551,0.4273 0.28375,-0.15518 -0.701765,-1.29475 -1.464051,-1.69286 -1.524339,-2.07192 -0.329524,-2.07192 0.804274,0 1.714457,0.93687 2.02263,2.08198 0.795092,2.95429 0.757869,3.04041 -1.221939,2.8278 -0.980237,-0.1055 -1.574627,-0.67043 -1.320867,-1.25589 z M 5.9712095,185.40628 c -1.0154109,-0.62218 -1.6385043,-1.21812 -1.3846493,-1.32443 2.4933302,-1.04373 3.6924005,-0.78951 3.6924005,0.7828 0,1.02178 -0.1038698,1.81617 -0.2307898,1.76529 -0.1269177,-0.0508 -1.0615666,-0.60152 -2.0769752,-1.22366 z M 5.1166081,173.9985 c -0.3248147,-1.20687 -0.1615701,-2.80607 0.3627883,-3.5537 0.6557493,-0.93497 0.9533606,-0.25021 0.9533606,2.19439 0,4.06027 -0.461086,4.53648 -1.3161489,1.35931 z M 206.74556,172.12531 c 0,-1.4678 0.41039,-2.30711 0.91201,-1.86511 0.58183,0.51278 0.69635,-1.43925 0.31644,-5.39276 -0.43553,-4.53051 -0.30841,-5.94329 0.47267,-5.25497 0.58758,0.51781 1.06833,0.21541 1.06833,-0.67176 0,-0.88733 0.25573,-1.24863 0.5683,-0.80295 0.31262,0.44573 0.12643,2.61734 -0.41354,4.82601 -0.6258,2.55958 -0.65269,4.01578 -0.0742,4.01578 0.58916,0 0.58367,0.86289 -0.0151,2.45932 -0.50771,1.35266 -0.71213,2.76017 -0.45423,3.1279 0.25784,0.36763 -0.17199,1.01929 -0.95556,1.44796 -0.99535,0.54455 -1.42456,-0.0249 -1.42456,-1.88942 z M 3.2019097,166.90061 c 0,-4.29124 0.4296132,-6.70798 1.274632,-7.17034 1.0150128,-0.55534 1.1491781,0.42136 0.6586999,4.79467 -0.940344,8.38478 -1.9333319,9.605 -1.9333319,2.37567 z m 0.1380585,-30.59887 c 0.3660185,-10.18502 0.6944375,-12.31788 1.8967289,-12.31788 0.6578276,0 1.1960484,1.12082 1.1960484,2.49073 0,1.44443 -0.4177348,2.12256 -0.9944436,1.61436 -0.686145,-0.60461 -0.8050107,0.92482 -0.3834104,4.93349 0.4392983,4.17692 0.2562924,6.22955 -0.6510851,7.30331 -1.0373748,1.22757 -1.22681,0.51098 -1.0638382,-4.02401 z M 207.6687,135.46859 c 0,-2.12902 0.41538,-4.23694 0.92309,-4.68436 0.50771,-0.44722 0.92309,0.35768 0.92309,1.78897 0,1.43133 0.25225,3.53926 0.56031,4.68432 0.36769,1.36621 0.0502,2.08196 -0.9231,2.08196 -1.0262,0 -1.48339,-1.193 -1.48339,-3.87089 z m -0.92313,-9.29103 c 0,-2.4569 0.2463,-2.80791 1.10772,-1.57943 0.86159,1.22843 0.86159,1.93039 0,3.15886 -0.86153,1.22843 -1.10772,0.87746 -1.10772,-1.57943 z M 2.7403438,61.684032 V 1.1391328 H 45.202963 c 39.374545,0 44.785044,0.430302 41.524457,3.3037743 -0.515977,0.4546783 -0.699159,1.3780615 -0.407067,2.0519696 0.292092,0.6738586 -0.167393,1.2252425 -1.021068,1.2252425 -1.285971,0 -1.351911,-0.3442417 -0.384489,-2.0061038 1.371851,-2.3569119 0.649492,-3.9058 -1.319192,-2.8286517 -0.799254,0.4372658 -1.226912,1.8908912 -1.015913,3.4530621 0.221926,1.643157 -0.122424,2.6978695 -0.880842,2.6978695 -0.816801,0 -1.068,-0.9663143 -0.730116,-2.8086029 0.371403,-2.0250578 0.154132,-2.6350412 -0.778746,-2.186532 -0.71162,0.3422519 -1.244118,1.9021346 -1.183328,3.4666927 0.06454,1.6616131 -0.437975,2.8446199 -1.208355,2.8446199 -0.824157,0 -1.048486,-0.6171482 -0.598035,-1.6452473 1.229386,-2.8059173 1.129271,-4.9356878 -0.232012,-4.9356878 -0.832347,0 -1.302973,1.4261645 -1.302973,3.9485813 0,2.171706 -0.357792,3.9485818 -0.79509,3.9485818 -0.437302,0 -0.596574,-1.480737 -0.353937,-3.2904938 0.257515,-1.9207884 0.01217,-3.2904932 -0.58956,-3.2904932 -0.56689,0 -1.030712,1.840251 -1.030712,4.0894117 0,3.0124643 -0.348938,3.8984883 -1.32501,3.3644163 C 70.842217,12.14258 70.07951,12.227645 69.876066,12.72958 69.672629,13.231816 69.607352,12.996717 69.73103,12.207199 69.854701,11.417682 69.585259,9.9369458 69.132324,8.9167568 68.499436,7.4912369 68.305498,7.4606932 68.294633,8.7849344 c -0.0077,0.9476094 -0.392042,1.3899006 -0.85393,0.9828797 -1.688157,-1.4876525 -3.775476,0.9234329 -3.76157,4.3450069 0.01082,2.62733 0.221684,3.010921 0.862191,1.567294 0.46643,-1.05128 0.601171,-2.532017 0.299415,-3.290493 -0.30842,-0.77519 -0.180691,-0.898758 0.291669,-0.282058 1.136664,1.483621 1.111681,3.955495 -0.05191,5.134921 -1.715541,1.738969 -2.337468,1.065259 -2.411509,-2.612207 -0.04008,-1.990733 -0.283263,-2.875512 -0.540393,-1.966107 -0.25713,0.909404 -0.847433,1.318663 -1.311774,0.909503 -0.464345,-0.409408 -0.844258,-0.1353 -0.844258,0.608542 0,0.743951 -0.620419,1.013126 -1.37871,0.598245 -0.882686,-0.483033 -1.691895,0.360659 -2.249236,2.344624 -0.478793,1.704444 -0.896863,2.33781 -0.929045,1.407462 -0.09149,-2.644693 -3.747874,0.640777 -3.76505,3.383119 -0.0098,1.566499 -0.232151,1.76782 -0.726759,0.658038 -0.521069,-1.169227 -1.778027,-0.593318 -4.676126,2.142309 -2.179925,2.057738 -3.898706,4.124731 -3.819509,4.593338 0.0792,0.468607 -0.06206,1.577542 -0.313931,2.464362 -0.320139,1.127243 -0.479827,1.055955 -0.530779,-0.236791 -0.05632,-1.428603 -0.492819,-1.307372 -1.919078,0.533029 -1.015408,1.310256 -1.846199,3.106382 -1.846199,3.991411 0,0.885031 -0.691102,2.422029 -1.535782,3.415554 -1.403706,1.651017 -1.434129,1.523419 -0.353752,-1.484118 0.759022,-2.112908 -0.673452,-0.715944 -4.002822,3.903661 -5.736355,7.959294 -6.387033,9.367998 -2.763441,5.982641 1.331774,-1.244195 2.127644,-1.584457 1.768602,-0.756139 -0.359042,0.82832 -2.338794,3.023607 -4.399455,4.878383 -2.860573,2.5748 -3.442581,3.646923 -2.460927,4.533196 1.07657,0.972035 1.060475,1.189523 -0.09894,1.336871 -0.76156,0.097 -1.613494,0.145258 -1.893187,0.107453 -0.279705,-0.0398 -1.037304,1.138684 -1.683576,2.614247 -0.965248,2.203794 -0.95686,2.502219 0.047,1.671662 0.672113,-0.556159 0.01536,0.623017 -1.459158,2.620316 -2.149953,2.911927 -2.424297,3.863317 -1.384651,4.801773 1.049672,0.94756 0.995141,1.174252 -0.286403,1.19057 -1.923293,0.02487 -4.227526,5.237895 -2.37271,5.368329 0.652494,0.04477 0.208287,0.641971 -0.987103,1.324682 -1.39151,0.794692 -1.983115,1.948499 -1.644393,3.20707 0.290972,1.081178 0.102189,1.96581 -0.41955,1.96581 -0.521735,0 -0.713809,0.541682 -0.426829,1.203751 0.286994,0.662067 -5.3e-5,1.503769 -0.637846,1.870396 -0.637794,0.366628 -0.01743,0.713356 1.378898,0.770515 2.579157,0.105459 3.051647,0.99233 1.832065,3.438437 -0.82719,1.65907 -2.56081,1.694691 -3.60134,0.07412 -0.432423,-0.67351 -0.345749,-0.855631 0.197924,-0.415876 0.531946,0.430302 1.570434,0.238282 2.307749,-0.42682 1.012478,-0.913236 0.743457,-1.21415 -1.099186,-1.229371 -2.3996994,-0.0199 -4.0906913,2.95635 -3.0473554,5.363407 0.2854601,0.658583 -0.024776,1.206487 -0.6893292,1.21757 -0.9286061,0.01535 -0.9071704,0.292017 0.092592,1.194413 0.7155141,0.645846 1.7540052,1.029991 2.3077506,0.853681 0.553745,-0.176103 0.718597,-0.08304 0.366342,0.206951 -0.352259,0.290005 -0.411663,1.37756 -0.132015,2.416655 0.374556,1.391728 -0.246837,1.889248 -2.3596092,1.889248 -1.5774311,0 -2.8680602,0.66136 -2.8680602,1.46964 0,0.85787 0.9606255,1.20778 2.3077501,0.8406 1.2692613,-0.34573 2.3077533,-0.11885 2.3077533,0.50468 0,0.62351 -1.2461867,1.13366 -2.7693019,1.13366 -1.7893573,0 -2.7693022,0.66779 -2.7693022,1.88717 0,1.29458 0.72461,1.69975 2.3077512,1.29044 1.2692625,-0.32832 2.3077501,-0.0701 2.3077501,0.57377 0,0.64377 -0.8977777,1.09959 -1.9950658,1.01294 -1.0972858,-0.0866 -2.191385,0.67256 -2.431334,1.68723 -0.3145566,1.3301 0.1132833,1.63992 1.5335149,1.11033 1.2920699,-0.48154 1.9697853,-0.12345 1.9697853,1.04102 0,1.08139 -0.7397094,1.57242 -1.89212,1.25594 -1.0956125,-0.30095 -2.1150869,0.30893 -2.4217871,1.44856 -0.7554555,2.807 0.3308518,3.837 1.9838491,1.88094 1.1656712,-1.37937 1.4069585,-1.28535 1.4069585,0.54825 0,1.21717 -0.3866936,1.87233 -0.8593162,1.45586 -0.4726296,-0.41638 -1.120237,-0.15517 -1.4391344,0.58043 -2.015155,4.64906 -2.3170576,-3.06545 -2.3170576,-59.20728 z m 6.9232538,36.853451 c -0.313791,-0.723887 -1.1690868,-1.316226 -1.900682,-1.316226 -0.7315952,0 -1.3301712,0.592339 -1.3301712,1.316226 0,0.723906 0.8553056,1.316177 1.9006807,1.316177 1.0453755,0 1.6439525,-0.592271 1.3301725,-1.316177 z M 71.592927,6.7396268 c -1.008396,-1.4378053 -1.699869,0.848764 -0.975883,3.2270664 0.686491,2.2550808 0.736253,2.2530418 1.118739,-0.044776 0.220149,-1.3234893 0.155876,-2.7548782 -0.14287,-3.1808033 z M 207.43791,120.39673 c -0.88848,-0.96163 -1.61543,-2.21915 -1.61543,-2.79447 0,-0.57536 0.83077,0.0249 1.84622,1.33623 1.40444,1.81229 1.84278,1.93978 1.83204,0.53302 -0.0175,-2.20756 -1.33768,-5.41021 -2.16603,-5.25213 -1.69302,0.32287 -2.43531,-0.005 -2.43531,-1.08058 0,-0.65609 0.88638,-0.86244 1.96978,-0.45865 1.41897,0.52909 1.84918,0.21839 1.5385,-1.11032 -0.23725,-1.01468 -0.91594,-1.9189 -1.50826,-2.00939 -0.5923,-0.0905 -1.49232,-0.23879 -2.00002,-0.32882 -0.5077,-0.0905 -0.92314,-0.79182 -0.92314,-1.5584 0,-0.78584 0.50338,-0.94552 1.1539,-0.36612 1.86891,1.66475 3.59393,1.66966 3.21192,0.0102 -0.19467,-0.84683 -1.46451,-1.72713 -2.82157,-1.95616 -1.35702,-0.22934 -2.46734,-0.88737 -2.46734,-1.46278 0,-0.57546 1.0385,-0.76321 2.30778,-0.41736 1.3471,0.36711 2.30775,0.0154 2.30775,-0.84062 0,-0.80826 -1.2462,-1.46964 -2.7693,-1.46964 -1.52314,0 -2.7693,-0.51015 -2.7693,-1.13366 0,-0.623505 1.01087,-0.858112 2.24637,-0.521386 1.91077,0.520846 2.17053,0.198491 1.73856,-2.156781 -0.27947,-1.523023 -0.89935,-2.769102 -1.37779,-2.769102 -0.47845,0 -0.63636,-0.53885 -0.35088,-1.197432 1.04331,-2.40706 -0.64767,-5.38321 -3.04737,-5.36341 -1.91429,0.01501 -2.14152,0.294993 -1.05512,1.296031 0.76156,0.701764 0.96926,1.30379 0.46156,1.337916 -0.50771,0.03482 -0.11697,0.931592 0.86876,1.994458 1.39047,1.499544 1.47535,1.932437 0.37892,1.932437 -0.77707,0 -1.89495,-1.508598 -2.48415,-3.352438 -1.44203,-4.512643 -1.43263,-4.541894 1.46726,-4.564875 1.39617,-0.0098 2.12312,-0.455176 1.6154,-0.987158 -0.50769,-0.531835 -0.92309,-1.855422 -0.92309,-2.941278 0,-1.223848 -1.22807,-2.283683 -3.23087,-2.788207 -3.22683,-0.812848 -3.22738,-0.814241 -0.46153,-1.139829 1.92998,-0.227338 2.23908,-0.519496 1.0199,-0.964623 -1.40565,-0.513228 -1.49635,-0.86722 -0.46158,-1.801448 0.99649,-0.899704 0.87016,-1.171863 -0.55832,-1.203055 -1.40136,-0.02984 -1.54192,-0.315388 -0.58339,-1.181017 1.01949,-0.920846 0.88607,-1.67788 -0.69233,-3.928434 -1.07531,-1.53322 -1.64358,-2.806566 -1.26281,-2.829598 0.38079,-0.02487 0.0279,-0.763352 -0.78393,-1.645246 -0.81194,-0.881846 -1.48164,-2.195635 -1.48824,-2.919537 -0.006,-0.723953 -0.90734,-1.968346 -2.00171,-2.765424 -2.76032,-2.010382 -3.73066,-3.761787 -1.49549,-2.699265 1.25368,0.595957 0.89328,-0.287033 -1.12312,-2.751744 -1.63311,-1.996103 -3.93938,-4.81391 -5.12499,-6.261716 -1.18562,-1.447805 -1.51104,-1.982126 -0.72313,-1.187335 3.89636,3.930175 3.78322,2.918044 -0.35792,-3.201449 -4.27639,-6.319322 -7.00726,-8.383229 -4.12703,-3.119067 0.71612,1.308913 0.47128,0.99666 -0.54412,-0.693857 -1.0154,-1.690514 -2.99164,-4.978868 -4.39163,-7.307424 -1.78323,-2.9661 -2.37572,-3.4456 -1.97875,-1.601371 0.33109,1.537347 -0.1891,0.989845 -1.25008,-1.316227 -2.17246,-4.721782 -7.57868,-9.645283 -7.66922,-6.984425 -0.0313,0.945819 -0.46891,0.253207 -0.9705,-1.539139 -0.74474,-2.661206 -1.06998,-2.902572 -1.77354,-1.316175 -0.70172,1.582169 -0.86681,1.454171 -0.88985,-0.689779 -0.0209,-2.036787 -0.21282,-2.216916 -0.84374,-0.796073 -0.65522,1.475415 -0.90353,1.346125 -1.26342,-0.658088 -0.31227,-1.738421 -0.51725,-1.297673 -0.67657,1.454222 -0.22853,3.948135 -0.22853,3.948084 -0.808,-0.658138 -0.4144,-3.294771 -1.037,-4.554586 -2.18624,-4.423856 -0.88377,0.100488 -1.65596,-0.491488 -1.71604,-1.316176 -0.0599,-0.824488 -0.42635,0.27808 -0.81389,2.449588 l -0.70467,3.948582 -0.1091,-4.136821 c -0.10644,-4.032353 -2.08907,-6.5856618 -3.88491,-5.0031453 -0.46189,0.4069213 -0.84615,-0.034819 -0.85394,-0.9828796 -0.0103,-1.2519548 -0.25887,-1.1832558 -0.90894,0.2512175 -0.76474,1.6872324 -0.8969,1.6393764 -0.90901,-0.3288206 -0.008,-1.2668284 -0.47793,-2.3033356 -1.04484,-2.3033356 -0.60167,0 -0.84707,1.3697049 -0.58955,3.2904932 0.24247,1.8097564 0.0834,3.2904934 -0.35392,3.2904934 -0.4373,0 -0.79512,-1.776874 -0.79512,-3.9485814 0,-2.1717077 -0.46382,-3.9485813 -1.03072,-3.9485813 -0.60165,0 -0.84706,1.3697031 -0.58956,3.2904932 0.24284,1.8097545 0.11094,3.2904915 -0.29271,3.2904915 -0.40359,0 -0.8652,-1.583113 -1.02587,-3.5180301 -0.16049,-1.9349171 -0.77802,-3.74532 -1.37193,-4.0230999 -1.16459,-0.544669 -1.16114,1.9149178 0.008,4.579657 0.40639,0.9275129 0.29446,1.645246 -0.25679,1.645246 -0.53767,0 -1.02949,-0.5922744 -1.09297,-1.3161764 -0.0636,-0.7239019 -0.16754,-2.0071984 -0.23104,-2.8517337 -0.0634,-0.8445864 -0.69761,-1.8122939 -1.40923,-2.1505165 -0.93205,-0.4432355 -1.14979,0.1706289 -0.77876,2.1936457 0.33353,1.8181134 0.0862,2.8086045 -0.70147,2.8086045 -0.6691,0 -1.10444,-1.0365054 -0.96744,-2.3033356 0.26413,-2.4421265 -0.99862,-4.224124 -3.01693,-4.2575032 -0.89522,-0.015006 -0.82212,0.5469062 0.27457,2.1108676 0.82199,1.172014 1.26277,2.4614284 0.97952,2.8653149 -0.53564,0.7636994 -3.18449,-3.5955344 -3.23595,-5.3253486 -0.0174,-0.5429265 19.07881,-0.9871576 42.43326,-0.9871576 h 42.46265 V 61.68512 c 0,33.299712 -0.31156,60.52609 -0.69234,60.50305 -0.38078,-0.0249 -1.41928,-0.82866 -2.30776,-1.79035 z M 10.875167,93.689798 c 0.666364,-0.380052 1.462538,-0.333298 1.769277,0.104017 0.306743,0.437277 -0.238467,0.748494 -1.211571,0.691338 -1.075358,-0.06326 -1.294093,-0.375091 -0.557706,-0.795196 z m 2.769302,-9.213387 c 0.666363,-0.380057 1.462536,-0.333296 1.769276,0.103964 0.306742,0.437276 -0.238466,0.748435 -1.21157,0.691328 -1.075358,-0.06318 -1.294093,-0.375084 -0.557706,-0.795239 z m 184.620111,0 c 0.66637,-0.380057 1.46255,-0.333296 1.76929,0.103964 0.30666,0.437268 -0.23864,0.748427 -1.21156,0.69132 -1.07538,-0.06318 -1.2941,-0.375084 -0.55773,-0.795239 z M 14.567568,81.844058 c 0.666363,-0.38006 1.462537,-0.333299 1.769277,0.103964 0.306742,0.437265 -0.238466,0.748476 -1.211572,0.691318 -1.075357,-0.06318 -1.294093,-0.375083 -0.557705,-0.795189 z m 182.773922,0 c 0.66635,-0.38006 1.46254,-0.333299 1.76928,0.103964 0.30667,0.437265 -0.23829,0.748476 -1.21157,0.691318 -1.07535,-0.06318 -1.29411,-0.375083 -0.55771,-0.795189 z M 14.065891,79.198671 c 0.898147,-0.333795 2.144334,-0.311908 2.769302,0.04976 0.624972,0.360657 -0.109865,0.633564 -1.632993,0.606751 -1.523118,-0.02487 -2.034455,-0.321865 -1.136309,-0.655509 z m 3.331549,-2.789154 c 0.699675,-0.698084 0.986706,-1.927704 0.637846,-2.732591 -0.359652,-0.829713 -0.02373,-1.463327 0.775864,-1.463327 0.795885,0 1.204421,-0.764446 0.937857,-1.754937 -0.267213,-0.992928 0.143215,-1.754936 0.94531,-1.754936 1.193326,0 1.134075,0.638539 -0.374501,4.035787 -0.985664,2.219661 -2.332658,4.239047 -2.993315,4.487527 -0.886728,0.333299 -0.868157,0.119391 0.07093,-0.817523 z M 193.8222,74.846002 c -0.79603,-2.120718 -0.70206,-2.632403 0.48352,-2.632403 0.84467,0 1.20139,0.623415 0.83732,1.463327 -0.34889,0.804887 -0.0618,1.980383 0.63784,2.612255 0.87162,0.787181 0.91907,1.155249 0.15069,1.16903 -0.61677,0.0098 -1.56603,-1.164404 -2.10946,-2.612209 z m -2.50317,-5.593827 c -0.48566,-0.904879 -2.02088,-3.831081 -3.41158,-6.502685 l -2.52854,-4.857441 2.37579,1.566947 c 1.30669,0.861848 2.19667,2.248963 1.97775,3.082505 -0.21876,0.833544 0.50787,1.909895 1.61508,2.391934 1.54204,0.67127 1.69098,1.060034 0.63657,1.661362 -0.942,0.537207 -0.35918,1.308668 1.84617,2.443719 2.97557,1.531379 3.0367,1.666289 0.79725,1.758767 -1.334,0.05522 -2.82285,-0.64023 -3.30849,-1.545108 z M 20.613671,66.033266 c 0.983212,-1.401888 3.436966,-1.647683 2.846351,-0.285043 -0.286229,0.660376 -1.188235,1.200666 -2.004447,1.200666 -0.816212,0 -1.195069,-0.411895 -0.841904,-0.915573 z m 2.442087,-4.020165 c 0.0039,-0.542926 1.093088,-1.705837 2.42028,-2.584301 2.359591,-1.561722 2.37672,-1.539834 0.772828,0.987158 -1.664639,2.622705 -3.206215,3.393765 -3.193108,1.597143 z m 3.685198,-7.568095 c 0.632036,-1.085902 1.633153,-1.974315 2.224705,-1.974315 1.353138,0 9.775599,-12.090642 9.775599,-14.033121 0,-0.791407 0.623095,-2.176233 1.384653,-3.077382 1.118458,-1.323539 1.38465,-1.284937 1.38465,0.200974 0,2.352285 -13.018767,20.858261 -14.673567,20.858261 -1.00218,0 -1.020925,-0.385531 -0.09606,-1.974266 z M 177.69549,45.929255 c -4.02269,-5.769531 -7.0346,-10.888385 -6.69315,-11.375197 0.7883,-1.124011 3.43475,1.941133 3.43475,3.978178 0,1.929396 8.47964,13.938455 9.84198,13.938455 0.55503,0 1.52626,0.888413 2.15831,1.974315 0.9281,1.594557 0.90131,1.974266 -0.13951,1.974266 -0.7087,0 -4.57983,-4.720538 -8.60248,-10.490017 z M 45.202963,48.48082 c 0,-0.701216 0.623094,-1.274886 1.38465,-1.274886 0.761561,0 1.384652,0.232811 1.384652,0.517258 0,0.284546 -0.623091,0.858215 -1.384652,1.274886 -0.761556,0.416872 -1.38465,0.18406 -1.38465,-0.517258 z M 162.86033,47.11833 c -0.99349,-2.292042 0.13816,-2.777462 1.4041,-0.602323 0.7281,1.25091 0.79815,2.006102 0.18595,2.006102 -0.53989,0 -1.25542,-0.631671 -1.59012,-1.403779 z M 43.575228,33.728523 c 0.641405,-1.950885 1.31825,-2.915956 1.504106,-2.144645 0.185852,0.77136 -0.338911,2.367508 -1.166183,3.547082 -1.390075,1.981976 -1.415695,1.875669 -0.337932,-1.402437 z M 168.29392,33.329064 c -0.30073,-1.117094 -0.34053,-2.325123 -0.0883,-2.684589 0.25224,-0.359663 0.6799,0.554519 0.95072,2.031077 0.57523,3.13638 -0.0639,3.620705 -0.86247,0.653512 z M 46.754843,30.349931 c 0.330117,-1.866368 1.023614,-2.769554 1.800289,-2.344625 0.739629,0.404931 1.263334,-0.168636 1.263334,-1.382587 0,-1.302597 0.514901,-1.792047 1.384652,-1.316178 0.834988,0.456667 1.38465,0.005 1.38465,-1.134059 0,-1.140722 0.549663,-1.590921 1.38465,-1.134055 0.761558,0.41687 1.384651,0.06714 1.384651,-0.777082 0,-0.844088 0.387124,-1.193552 0.860275,-0.776632 0.473153,0.416869 1.034004,-0.880752 1.246341,-2.883722 l 0.386066,-3.641848 0.138299,3.494452 c 0.113364,2.86417 -0.652533,4.155275 -4.246419,7.158337 -2.411598,2.015106 -4.470693,3.404063 -4.575765,3.086483 -0.10509,-0.317377 -0.811349,0.6072 -1.569513,2.055054 -1.347185,2.572609 -1.366288,2.563456 -0.841521,-0.40344 z M 161.9752,28.034159 c -2.5385,-2.501671 -4.75098,-5.282418 -4.91654,-6.179388 -0.19223,-1.040882 0.0209,-0.97472 0.5891,0.183067 0.48961,0.997653 1.35201,1.406913 1.91648,0.909503 0.58195,-0.51283 1.02633,-0.03482 1.02633,1.10625 0,1.246482 0.52623,1.722749 1.38463,1.25305 0.91071,-0.498305 1.41614,0.0791 1.47668,1.686535 0.0677,1.795927 0.25817,1.596893 0.71804,-0.750316 0.59091,-3.015301 0.68448,-2.923022 1.66779,1.645245 0.57295,2.661855 0.97677,4.807096 0.89739,4.7672 -0.0795,-0.0398 -2.22135,-2.119324 -4.7599,-4.621047 z m -80.094377,0.58168 c 0.626168,-0.899507 1.371025,-1.303941 1.655235,-0.898661 0.284205,0.405429 -0.228102,1.141172 -1.138491,1.635446 -1.315599,0.714303 -1.421629,0.563124 -0.516744,-0.736785 z m 14.784991,-4.656964 c 0.634624,-0.365137 1.673115,-0.365137 2.307749,0 0.634645,0.365135 0.115367,0.663859 -1.15388,0.663859 -1.269258,0 -1.788503,-0.298974 -1.153869,-0.663859 z m -37.543468,-5.16084 c 0.04431,-1.533318 0.263026,-1.845177 0.557707,-0.795238 0.266657,0.950146 0.23386,2.085348 -0.07288,2.522715 -0.306743,0.437267 -0.524914,-0.339765 -0.484826,-1.727477 z m 94.156284,0 c 0.0443,-1.533318 0.26307,-1.845177 0.5577,-0.795238 0.26655,0.950146 0.23377,2.085348 -0.073,2.522715 -0.30669,0.437267 -0.52491,-0.339765 -0.48483,-1.727477 z M 60.968548,17.481809 c 0.04431,-1.53327 0.263025,-1.845176 0.557708,-0.795189 0.266655,0.950148 0.233859,2.085347 -0.07289,2.522714 -0.30674,0.437267 -0.524912,-0.339764 -0.484832,-1.727525 z m 90.463872,0 c 0.0443,-1.53327 0.26307,-1.845176 0.55769,-0.795189 0.26656,0.950148 0.23377,2.085347 -0.073,2.522714 -0.30666,0.437267 -0.52493,-0.339764 -0.48485,-1.727525 z m -5.3807,-1.420099 c -0.63463,-0.365133 -1.15387,-1.616144 -1.15387,-2.780048 0,-1.75827 0.24561,-1.684099 1.45313,0.438757 0.79918,1.405173 1.20782,1.855473 0.908,1.000591 -0.2997,-0.854835 -0.20898,-1.850349 0.20131,-2.212151 0.41061,-0.361653 0.80694,0.48552 0.88081,1.883331 0.13636,2.58395 -0.23236,2.853025 -2.28954,1.66952 z M 67.430249,13.533227 c 0.04427,-1.533269 0.263028,-1.845175 0.557709,-0.795189 0.266656,0.950146 0.233861,2.085349 -0.07289,2.522715 -0.306744,0.437266 -0.524913,-0.339766 -0.484827,-1.727526 z M 88.896384,4.6928305 c 0,-0.9410923 0.865402,-1.8019455 1.923123,-1.9130285 10.237463,-1.0751569 10.477423,-1.0565523 9.984723,0.7741466 -0.36595,1.3597554 -1.537292,1.6331581 -4.508761,1.0524242 -2.38263,-0.4656219 -4.014385,-0.2596732 -4.014385,0.5064626 0,0.7100736 -0.761555,1.291007 -1.692344,1.291007 -0.930801,0 -1.692356,-0.7699672 -1.692356,-1.7110119 z M 120.82419,4.5550403 c 0.91358,-1.5695319 0.51556,-1.6459413 -2.63507,-0.5056663 -3.65796,1.3238884 -6.52257,0.786483 -6.52324,-1.2237488 -1.7e-4,-0.5656113 2.38719,-1.028447 5.30527,-1.028447 3.82116,0 5.75831,0.6444574 6.92359,2.3033339 1.5415,2.1944418 1.48172,2.3033354 -1.26435,2.3033354 -2.37044,0 -2.69121,-0.3283227 -1.8062,-1.8488072 z"
       id="path40"
       inkscape:connector-curvature="0" />
  </g>
</svg>
